{
.appVersion = "3151";
.formatVersion = 3;
axes = (
{
name = Weight;
tag = wght;
}
);
classes = (
{
automatic = 1;
code = "A Aacute Abreve Acircumflex Adieresis Agrave Amacron Aogonek Aring Atilde AE B C Cacute Ccaron Ccedilla D Eth Dcaron Dcroat E Eacute Ecaron Ecircumflex Edieresis Edotaccent Egrave Emacron Eogonek F G Gcommaaccent H I IJ Iacute Icircumflex Idieresis Igrave Imacron Iogonek J Jacute K Kcommaaccent L Lacute Lcaron Lcommaaccent Lslash M N Nacute Ncaron Ncommaaccent Ntilde O Oacute Ocircumflex Odieresis Ograve Ohungarumlaut Omacron Oslash Otilde OE P Thorn Q R Racute Rcaron Rcommaaccent S Sacute Scaron Scedilla Germandbls T Tcaron Tcedilla U Uacute Ucircumflex Udieresis Ugrave Uhorn Uhungarumlaut Umacron Uogonek Uring V W Wacute Wcircumflex Wdieresis Wgrave X Y Yacute Ycircumflex Ydieresis Ygrave Z Zacute Zcaron Zdotaccent";
name = Uppercase;
}
);
customParameters = (
{
name = fsType;
value = (
);
},
{
name = panose;
value = (
0,
0,
0,
0,
0,
0,
0,
0,
0,
0
);
},
{
name = "Use Typo Metrics";
value = 1;
},
{
name = "Use Line Breaks";
value = 1;
},
{
name = "Enforce Compatibility Check";
value = 1;
}
);
date = "2023-10-02 05:34:29 +0000";
familyName = "Sankofa Display";
featurePrefixes = (
{
automatic = 1;
code = "languagesystem DFLT dflt;
languagesystem DFLT MAH;

languagesystem latn dflt;
languagesystem latn AZE;
languagesystem latn CRT;
languagesystem latn KAZ;
languagesystem latn TAT;
languagesystem latn TRK;
languagesystem latn ROM;
languagesystem latn MOL;
languagesystem latn MAH;
languagesystem latn CAT;
languagesystem latn NLD;
";
name = Languagesystems;
}
);
features = (
{
automatic = 1;
code = "feature locl;
feature subs;
feature sinf;
feature sups;
feature numr;
feature dnom;
feature frac;
feature ordn;
feature pnum;
feature tnum;
feature case;
feature zero;
";
tag = aalt;
},
{
automatic = 1;
code = "lookup ccmp_Other_1 {

glyphs = (
{
glyphname = A;
kernRight = V;
lastChange = "2023-11-11 06:55:37 +0000";
layers = (
{
anchors = (
{
name = bottom;
pos = (236,1);
},
{
name = ogonek;
pos = (503,39);
},
{
name = top;
pos = (71,700);
}
);
layerId = m01;
shapes = (
{
closed = 1;
nodes = (
(248,1,o),
(329,2,o),
(341,1,cs),
(355,1,o),
(365,8,o),
(379,9,c),
(413,1,l),
(423,1,o),
(452,1,o),
(452,17,cs),
(452,21,o),
(451,27,o),
(447,33,cs),
(429,69,o),
(410,103,o),
(391,137,cs),
(385,149,o),
(376,161,o),
(373,173,cs),
(370,187,o),
(347,237,o),
(337,246,cs),
(325,256,o),
(326,271,o),
(317,281,cs),
(299,302,o),
(292,329,o),
(275,351,c),
(275,364,o),
(273,372,o),
(264,381,cs),
(255,391,o),
(254,404,o),
(246,414,cs),
(238,422,o),
(233,432,o),
(227,441,cs),
(202,489,o),
(178,535,o),
(153,581,cs),
(148,592,o),
(139,601,o),
(138,611,cs),
(138,626,o),
(120,630,o),
(120,644,c),
(109,653,o),
(104,665,o),
(97,677,cs),
(92,684,o),
(86,691,o),
(79,696,cs),
(68,707,o),
(48,697,o),
(48,681,cs),
(48,594,ls),
(48,591,o),
(47,586,o),
(49,584,cs),
(55,578,o),
(57,570,o),
(57,564,cs),
(57,558,o),
(56,553,o),
(56,548,cs),
(56,451,ls),
(56,444,o),
(55,439,o),
(54,432,c),
(42,427,o),
(62,416,o),
(49,411,c),
(49,401,o),
(48,391,o),
(48,48,cs),
(48,37,o),
(50,28,o),
(41,19,cs),
(37,16,o),
(43,9,o),
(48,8,cs),
(55,8,o),
(96,7,o),
(103,2,cs),
(104,1,o),
(124,8,o),
(132,8,cs),
(201,8,ls),
(224,8,o),
(218,1,o),
(236,1,cs)
);
},
{
closed = 1;
nodes = (
(230,166,o),
(233,173,o),
(234,179,cs),
(237,186,o),
(234,192,o),
(229,197,cs),
(220,208,o),
(187,224,o),
(176,213,c),
(171,205,o),
(165,196,o),
(163,186,cs),
(163,180,o),
(171,172,o),
(173,164,cs),
(177,145,o),
(202,145,o),
(226,162,cs)
);
},
{
closed = 1;
nodes = (
(201,174,o),
(194,174,o),
(193,179,cs),
(192,181,o),
(190,183,o),
(190,185,cs),
(190,188,o),
(192,190,o),
(193,192,c),
(196,195,o),
(206,191,o),
(208,188,cs),
(209,187,o),
(210,185,o),
(209,183,cs),
(209,181,o),
(208,179,o),
(207,178,cs)
);
},
{
closed = 1;
nodes = (
(392,35,o),
(379,33,o),
(372,32,cs),
(368,31,o),
(362,31,o),
(360,32,cs),
(351,42,o),
(311,40,o),
(303,32,c),
(293,43,o),
(264,42,o),
(255,32,c),
(247,38,o),
(239,39,o),
(229,39,cs),
(220,38,o),
(210,39,o),
(104,39,cs),
(98,39,o),
(93,38,o),
(88,39,cs),
(77,45,o),
(69,53,o),
(76,61,cs),
(82,67,o),
(81,72,o),
(75,77,c),
(71,82,o),
(77,83,o),
(78,86,cs),
(81,92,o),
(80,108,o),
(80,113,cs),
(80,120,o),
(81,127,o),
(87,133,c),
(81,140,o),
(79,147,o),
(79,156,cs),
(79,163,o),
(81,172,o),
(81,180,cs),
(81,187,o),
(80,297,o),
(80,304,cs),
(80,313,o),
(82,323,o),
(88,331,cs),
(89,333,o),
(85,339,o),
(83,342,c),
(83,347,o),
(106,355,o),
(110,351,cs),
(117,347,o),
(125,347,o),
(133,347,cs),
(226,347,ls),
(239,347,o),
(246,343,o),
(251,332,cs),
(255,321,o),
(260,309,o),
(267,299,cs),
(277,285,o),
(281,267,o),
(296,255,cs),
(303,249,o),
(296,237,o),
(305,232,cs),
(314,226,o),
(313,217,o),
(316,210,cs),
(322,194,o),
(356,141,o),
(356,126,c),
(357,121,o),
(361,115,o),
(365,110,cs),
(385,90,o),
(393,64,o),
(407,42,c),
(412,28,o),
(408,32,o),
(397,31,c)
);
},
{
closed = 1;
nodes = (
(139,388,o),
(115,387,o),
(94,379,c),
(93,378,o),
(89,381,o),
(89,382,cs),
(88,390,o),
(88,417,o),
(88,421,cs),
(88,427,o),
(87,434,o),
(82,440,cs),
(79,443,o),
(79,466,o),
(81,469,cs),
(90,482,o),
(92,494,o),
(83,507,c),
(87,517,o),
(90,524,o),
(88,527,cs),
(81,536,o),
(81,617,o),
(81,626,cs),
(81,630,o),
(88,629,o),
(88,627,cs),
(88,616,o),
(104,613,o),
(104,603,cs),
(104,593,o),
(109,587,o),
(115,580,cs),
(122,572,o),
(125,563,o),
(133,556,cs),
(141,550,o),
(133,538,o),
(143,532,c),
(159,501,o),
(194,433,o),
(196,432,cs),
(211,423,o),
(211,399,o),
(220,387,cs),
(221,386,o),
(218,379,o),
(215,379,cs),
(204,377,o),
(189,385,o),
(178,377,cs),
(174,375,o),
(164,375,o),
(159,377,cs)
);
}
);
width = 452;
}
);
unicode = 65;
},
{
glyphname = "Alpha-latin";
lastChange = "2023-11-11 16:49:38 +0000";
layers = (
{
layerId = m01;
shapes = (
{
ref = zero;
},
{
closed = 1;
nodes = (
(417,9,o),
(405,-2,o),
(468,0,c),
(513,-9,o),
(526,16,o),
(498,25,c),
(489,23,o),
(488,25,o),
(445,29,c),
(441,131,o),
(443,139,o),
(441,289,cs),
(441,299,o),
(423,345,o),
(441,394,cs),
(441,394,o),
(446,510,o),
(441,519,cs),
(435,529,o),
(441,545,o),
(441,557,cs),
(441,560,o),
(442,564,o),
(441,567,cs),
(430,591,o),
(440,642,o),
(439,667,c),
(457,669,o),
(480,674,o),
(489,670,c),
(509,700,o),
(462,700,o),
(407,698,c),
(399,692,o),
(402,669,o),
(409,649,c),
(414,31,l)
);
}
);
width = 513;
}
);
unicode = 11373;
},
{
glyphname = Astroke;
kernRight = V;
lastChange = "2023-11-07 18:22:11 +0000";
layers = (
{
anchors = (
{
name = bottom;
pos = (266,1);
},
{
name = ogonek;
pos = (543,29);
},
{
name = top;
pos = (101,700);
}
);
layerId = m01;
shapes = (
{
closed = 1;
nodes = (
(105,-18,o),
(108,-6,o),
(110,6,c),
(121,6,o),
(130,4,o),
(133,2,cs),
(134,1,o),
(154,8,o),
(162,8,cs),
(231,8,ls),
(254,8,o),
(248,1,o),
(266,1,cs),
(278,1,o),
(359,2,o),
(371,1,cs),
(385,1,o),
(395,8,o),
(409,9,c),
(443,1,l),
(453,1,o),
(482,1,o),
(482,17,cs),
(482,21,o),
(481,27,o),
(477,33,c),
(459,69,o),
(440,103,o),
(421,137,cs),
(415,149,o),
(406,161,o),
(403,173,cs),
(400,187,o),
(377,237,o),
(367,246,cs),
(355,256,o),
(356,271,o),
(347,281,cs),
(329,302,o),
(322,329,o),
(305,351,c),
(305,364,o),
(303,372,o),
(294,381,cs),
(285,391,o),
(284,404,o),
(276,414,cs),
(268,422,o),
(263,432,o),
(257,441,cs),
(254,447,o),
(250,453,o),
(247,460,c),
(270,532,o),
(293,604,o),
(315,678,c),
(320,689,o),
(320,703,o),
(318,713,cs),
(316,721,o),
(313,725,o),
(307,728,c),
(304,724,o),
(291,718,o),
(282,682,cs),
(280,673,o),
(272,640,o),
(269,632,cs),
(256,588,o),
(242,543,o),
(227,498,c),
(212,526,o),
(198,554,o),
(183,581,cs),
(178,592,o),
(169,601,o),
(168,611,cs),
(168,626,o),
(150,630,o),
(150,644,c),
(139,653,o),
(134,665,o),
(127,677,cs),
(122,684,o),
(116,691,o),
(109,696,c),
(98,707,o),
(78,697,o),
(78,681,cs),
(78,594,ls),
(78,591,o),
(77,586,o),
(79,584,cs),
(85,578,o),
(87,570,o),
(87,564,cs),
(87,558,o),
(86,553,o),
(86,548,cs),
(86,451,ls),
(86,444,o),
(85,439,o),
(84,432,c),
(72,427,o),
(92,416,o),
(79,411,c),
(79,401,o),
(78,391,o),
(78,48,cs),
(78,37,o),
(80,28,o),
(71,19,cs),
(67,16,o),
(73,9,o),
(78,8,cs),
(80,8,l),
(76,-2,o),
(74,-9,o),
(73,-12,cs),
(61,-40,o),
(89,-41,o),
(96,-27,c)
);
},
{
closed = 1;
nodes = (
(111,142,o),
(109,148,o),
(109,156,cs),
(109,163,o),
(111,172,o),
(111,180,cs),
(110,304,ls),
(110,313,o),
(112,323,o),
(118,331,cs),
(119,333,o),
(115,339,o),
(113,342,c),
(113,347,o),
(136,355,o),
(140,351,c),
(147,347,o),
(155,347,o),
(163,347,cs),
(181,347,l),
(177,320,o),
(157,310,o),
(159,283,c),
(153,265,o),
(143,255,o),
(139,235,cs),
(134,216,o),
(113,159,o),
(115,136,c)
);
},
{
closed = 1;
nodes = (
(422,35,o),
(409,33,o),
(402,32,cs),
(398,31,o),
(392,31,o),
(390,32,c),
(381,42,o),
(341,40,o),
(333,32,c),
(323,43,o),
(294,42,o),
(285,32,c),
(277,38,o),
(269,39,o),
(259,39,cs),
(250,38,o),
(240,39,o),
(134,39,cs),
(129,39,o),
(124,38,o),
(119,39,c),
(127,53,o),
(129,68,o),
(128,84,c),
(149,152,o),
(168,220,o),
(190,287,cs),
(194,300,o),
(206,310,o),
(205,325,cs),
(204,335,o),
(205,341,o),
(208,347,c),
(256,347,ls),
(269,347,o),
(276,343,o),
(281,332,cs),
(285,321,o),
(290,309,o),
(297,299,cs),
(307,285,o),
(311,267,o),
(326,255,cs),
(333,249,o),
(326,237,o),
(335,232,cs),
(344,226,o),
(343,217,o),
(346,210,cs),
(352,194,o),
(386,141,o),
(386,126,c),
(387,121,o),
(391,115,o),
(395,110,cs),
(415,90,o),
(423,64,o),
(437,42,c),
(442,28,o),
(438,32,o),
(427,31,c)
);
},
{
closed = 1;
nodes = (
(236,422,l),
(240,413,o),
(241,401,o),
(247,393,cs),
(248,392,o),
(245,385,o),
(242,385,cs),
(236,384,o),
(230,384,o),
(224,383,c)
);
},
{
closed = 1;
nodes = (
(169,388,o),
(145,387,o),
(124,379,c),
(123,378,o),
(119,381,o),
(119,382,cs),
(118,390,o),
(118,417,o),
(118,421,cs),
(118,427,o),
(117,434,o),
(112,440,cs),
(109,443,o),
(109,466,o),
(111,469,cs),
(120,482,o),
(122,494,o),
(113,507,c),
(117,517,o),
(120,524,o),
(118,527,cs),
(111,536,o),
(111,617,o),
(111,626,cs),
(111,630,o),
(118,629,o),
(118,627,cs),
(118,616,o),
(134,613,o),
(134,603,cs),
(134,593,o),
(139,587,o),
(145,580,cs),
(152,572,o),
(155,563,o),
(163,556,cs),
(171,550,o),
(163,538,o),
(173,532,c),
(183,512,o),
(201,478,o),
(213,455,c),
(209,441,o),
(204,426,o),
(200,412,cs),
(188,377,l)
);
}
);
width = 482;
}
);
unicode = 570;
},
{
glyphname = AE;
lastChange = "2023-11-03 10:39:56 +0000";
layers = (
{
anchors = (
{
name = bottom;
pos = (236,1);
},
{
name = ogonek;
pos = (35,20);
},
{
name = top;
pos = (401,700);
}
);
layerId = m01;
shapes = (
{
closed = 1;
nodes = (
(370,-2,o),
(463,1,o),
(464,1,cs),
(509,7,o),
(549,2,o),
(556,2,c),
(692,2,l),
(714,5,o),
(712,37,o),
(693,37,c),
(433,37,l),
(423,38,o),
(428,293,o),
(424,348,c),
(434,347,o),
(451,347,o),
(457,347,c),
(459,346,o),
(497,347,o),
(506,347,cs),
(528,347,o),
(551,352,o),
(573,356,cs),
(580,358,o),
(580,369,o),
(573,370,cs),
(566,371,o),
(566,376,o),
(560,377,cs),
(553,378,o),
(545,379,o),
(537,379,cs),
(522,379,o),
(502,378,o),
(487,378,c),
(413,378,o),
(453,378,o),
(423,378,c),
(423,411,l),
(410,416,o),
(430,427,o),
(418,432,c),
(417,439,o),
(416,444,o),
(416,451,cs),
(416,548,ls),
(416,553,o),
(415,558,o),
(415,564,cs),
(415,570,o),
(417,578,o),
(423,584,cs),
(425,586,o),
(424,591,o),
(424,594,cs),
(424,662,l),
(466,663,o),
(555,663,o),
(590,663,cs),
(596,663,o),
(624,671,o),
(633,671,cs),
(640,671,o),
(647,669,o),
(653,666,cs),
(658,664,o),
(663,663,o),
(667,663,cs),
(680,663,o),
(690,678,o),
(703,679,cs),
(704,679,o),
(704,686,o),
(703,689,c),
(699,694,o),
(694,699,o),
(686,699,cs),
(421,699,ls),
(418,699,o),
(416,699,o),
(413,698,c),
(406,702,o),
(399,702,o),
(393,696,cs),
(386,691,o),
(380,684,o),
(375,677,cs),
(368,665,o),
(363,653,o),
(352,644,c),
(352,630,o),
(334,626,o),
(334,611,cs),
(333,601,o),
(324,592,o),
(319,581,cs),
(294,535,o),
(270,489,o),
(245,441,c),
(239,432,o),
(234,422,o),
(226,414,cs),
(218,404,o),
(217,391,o),
(208,381,cs),
(199,372,o),
(197,364,o),
(197,351,c),
(180,329,o),
(173,302,o),
(155,281,cs),
(146,271,o),
(147,256,o),
(135,246,cs),
(125,237,o),
(102,187,o),
(99,173,cs),
(96,161,o),
(87,149,o),
(81,137,cs),
(62,103,o),
(43,69,o),
(25,33,c),
(21,27,o),
(20,21,o),
(20,17,cs),
(20,1,o),
(49,1,o),
(59,1,c),
(93,9,l),
(107,8,o),
(117,1,o),
(131,1,cs),
(143,2,o),
(224,2,o),
(236,1,cs),
(257,0,o),
(258,9,o),
(271,8,cs),
(347,0,ls)
);
},
{
closed = 1;
nodes = (
(64,32,o),
(60,28,o),
(65,42,c),
(79,64,o),
(87,90,o),
(107,110,cs),
(111,115,o),
(115,121,o),
(116,126,c),
(116,141,o),
(150,194,o),
(156,210,cs),
(159,217,o),
(158,226,o),
(167,232,cs),
(176,237,o),
(169,249,o),
(176,255,cs),
(191,267,o),
(195,285,o),
(205,299,cs),
(212,309,o),
(217,321,o),
(221,332,cs),
(226,343,o),
(233,347,o),
(246,347,cs),
(339,347,ls),
(347,347,o),
(355,347,o),
(362,351,c),
(366,355,o),
(389,347,o),
(389,342,c),
(387,339,o),
(383,333,o),
(384,331,cs),
(390,323,o),
(392,313,o),
(392,304,cs),
(391,180,ls),
(391,172,o),
(393,163,o),
(393,156,cs),
(393,147,o),
(391,140,o),
(385,133,c),
(391,127,o),
(392,120,o),
(392,113,cs),
(392,108,o),
(391,92,o),
(394,86,cs),
(395,83,o),
(401,82,o),
(397,77,c),
(391,72,o),
(390,67,o),
(396,61,cs),
(403,53,o),
(395,45,o),
(384,39,c),
(379,38,o),
(374,39,o),
(368,39,cs),
(262,39,o),
(252,38,o),
(243,39,cs),
(233,39,o),
(225,38,o),
(217,32,c),
(208,42,o),
(179,43,o),
(169,32,c),
(161,40,o),
(121,42,o),
(112,32,c),
(110,31,o),
(104,31,o),
(100,32,cs),
(93,33,o),
(80,35,o),
(75,31,c)
);
},
{
closed = 1;
nodes = (
(283,385,o),
(271,383,o),
(260,385,cs),
(257,385,o),
(254,392,o),
(255,393,cs),
(264,405,o),
(261,423,o),
(276,432,cs),
(278,433,o),
(313,501,o),
(329,532,c),
(339,538,o),
(331,550,o),
(339,556,cs),
(347,563,o),
(350,572,o),
(357,580,cs),
(363,587,o),
(368,593,o),
(368,603,cs),
(368,613,o),
(384,616,o),
(384,627,cs),
(384,629,o),
(391,630,o),
(391,626,cs),
(391,617,o),
(391,536,o),
(384,527,cs),
(382,524,o),
(385,517,o),
(389,507,c),
(380,494,o),
(382,482,o),
(391,469,cs),
(393,466,o),
(393,443,o),
(390,440,cs),
(385,434,o),
(384,427,o),
(384,421,cs),
(384,417,o),
(384,390,o),
(383,382,cs),
(383,381,o),
(333,388,o),
(313,377,cs),
(308,375,o),
(298,375,o),
(294,377,c)
);
},
{
closed = 1;
nodes = (
(673,357,ls),
(676,360,o),
(677,365,o),
(677,370,cs),
(677,381,o),
(670,394,o),
(660,398,cs),
(649,400,o),
(622,404,o),
(622,385,c),
(616,368,o),
(603,369,o),
(615,357,cs),
(626,345,o),
(641,325,o),
(653,337,cs)
);
},
{
closed = 1;
nodes = (
(645,357,o),
(640,362,o),
(638,366,cs),
(634,369,o),
(638,369,o),
(639,373,c),
(639,379,o),
(647,377,o),
(650,376,cs),
(652,376,o),
(654,372,o),
(654,369,cs),
(654,368,o),
(654,367,o),
(653,366,cs),
(648,360,ls)
);
}
);
width = 728;
}
);
unicode = 198;
},
{
glyphname = B;
lastChange = "2023-11-07 08:08:43 +0000";
layers = (
{
anchors = (
{
name = bottom;
pos = (213,0);
},
{
name = center;
pos = (81,350);
},
{
name = top;
pos = (234,696);
}
);
layerId = m01;
shapes = (
{
closed = 1;
nodes = (
(68,2,o),
(76,6,o),
(84,5,c),
(226,5,ls),
(232,5,o),
(237,4,o),
(241,1,cs),
(249,-4,o),
(252,5,o),
(259,5,cs),
(285,1,o),
(350,14,o),
(373,1,cs),
(374,0,o),
(395,4,o),
(406,1,cs),
(412,-2,o),
(430,5,o),
(438,12,cs),
(446,18,o),
(433,25,o),
(431,32,cs),
(430,37,o),
(398,60,o),
(394,70,cs),
(390,80,o),
(378,81,o),
(373,90,cs),
(369,98,o),
(244,223,o),
(226,226,c),
(213,251,o),
(187,264,o),
(168,284,cs),
(162,290,o),
(155,296,o),
(149,303,c),
(151,315,o),
(132,310,o),
(132,320,cs),
(132,332,o),
(116,333,o),
(108,338,cs),
(100,343,o),
(99,352,o),
(100,353,cs),
(109,364,o),
(116,376,o),
(128,384,cs),
(171,406,o),
(350,627,o),
(386,662,cs),
(390,665,o),
(391,670,o),
(393,675,cs),
(395,678,o),
(399,680,o),
(394,684,cs),
(391,686,o),
(388,690,o),
(385,690,c),
(346,698,l),
(300,698,o),
(275,695,o),
(269,690,cs),
(263,684,o),
(254,698,o),
(242,698,cs),
(98,698,ls),
(85,698,o),
(75,690,o),
(61,690,cs),
(49,692,o),
(41,682,o),
(41,673,cs),
(41,658,l),
(41,478,ls),
(41,471,o),
(41,463,o),
(47,457,c),
(41,429,l),
(41,420,o),
(42,412,o),
(47,404,cs),
(50,399,o),
(49,391,o),
(47,384,cs),
(41,359,o),
(49,318,o),
(48,317,cs),
(41,310,o),
(40,302,o),
(40,294,cs),
(43,236,o),
(42,87,o),
(41,23,cs),
(41,18,o),
(39,13,o),
(40,8,cs),
(41,3,o),
(57,-6,o),
(61,-2,cs)
);
},
{
closed = 1;
nodes = (
(184,105,o),
(195,112,o),
(206,129,c),
(206,134,ls),
(206,136,o),
(206,138,o),
(205,138,cs),
(196,147,o),
(190,152,o),
(183,160,cs),
(174,164,o),
(158,165,o),
(151,158,cs),
(137,143,ls),
(128,134,o),
(127,131,o),
(139,119,cs),
(150,109,o),
(161,105,o),
(170,105,cs)
);
},
{
closed = 1;
nodes = (
(164,125,o),
(161,127,o),
(158,130,cs),
(155,133,o),
(155,135,o),
(157,137,cs),
(162,141,ls),
(165,143,o),
(169,144,o),
(172,142,cs),
(173,140,o),
(176,137,o),
(178,136,cs),
(178,136,o),
(178,136,o),
(178,134,cs),
(178,132,l),
(176,128,o),
(172,125,o),
(168,125,cs)
);
},
{
closed = 1;
nodes = (
(76,35,o),
(74,37,o),
(74,47,cs),
(74,58,o),
(63,227,o),
(75,256,c),
(69,263,o),
(73,271,o),
(74,306,cs),
(74,310,o),
(75,313,o),
(76,317,cs),
(76,319,o),
(84,319,o),
(87,318,cs),
(92,315,o),
(89,304,o),
(99,304,cs),
(110,304,o),
(105,287,o),
(118,289,c),
(124,285,o),
(130,279,o),
(137,275,cs),
(145,269,o),
(147,261,o),
(152,254,c),
(192,215,o),
(225,195,o),
(245,164,c),
(259,167,o),
(254,147,o),
(268,148,c),
(276,140,o),
(355,66,o),
(364,57,cs),
(367,54,o),
(370,50,o),
(373,45,c),
(373,39,o),
(371,38,o),
(354,38,cs),
(208,35,o),
(121,35,o),
(88,35,cs)
);
},
{
closed = 1;
nodes = (
(74,386,l),
(70,402,ls),
(70,403,o),
(70,417,o),
(73,433,cs),
(78,459,o),
(80,483,o),
(74,514,cs),
(70,531,o),
(68,553,o),
(70,613,c),
(74,653,o),
(69,662,o),
(107,662,cs),
(311,662,ls),
(318,662,o),
(326,666,o),
(333,668,c),
(339,664,l),
(333,656,o),
(328,647,o),
(321,640,cs),
(310,629,o),
(260,549,o),
(242,544,c),
(236,536,o),
(234,522,o),
(221,519,cs),
(211,517,o),
(204,510,o),
(204,500,c),
(186,494,o),
(154,454,o),
(148,442,cs),
(145,436,o),
(96,396,o),
(81,383,c)
);
},
{
closed = 1;
nodes = (
(179,554,o),
(191,562,o),
(200,578,c),
(200,583,ls),
(200,585,o),
(200,587,o),
(199,587,cs),
(192,595,o),
(185,600,o),
(178,608,cs),
(170,613,o),
(155,613,o),
(148,606,cs),
(133,592,ls),
(125,584,o),
(125,580,o),
(136,569,cs),
(147,559,o),
(157,554,o),
(166,554,cs)
);
},
{
closed = 1;
nodes = (
(160,574,o),
(157,576,o),
(154,579,cs),
(151,582,o),
(151,584,o),
(153,586,cs),
(158,590,ls),
(161,592,o),
(165,593,o),
(168,591,cs),
(169,589,o),
(172,586,o),
(174,585,cs),
(174,585,o),
(174,585,o),
(174,583,cs),
(174,581,l),
(172,577,o),
(168,574,o),
(164,574,cs)
);
}
);
width = 441;
}
);
unicode = 66;
},
{
glyphname = "Beta-latin";
lastChange = "2023-11-11 16:29:09 +0000";
layers = (
{
layerId = m01;
shapes = (
{
closed = 1;
nodes = (
(127,-177,o),
(135,-176,o),
(140,-174,cs),
(146,-172,o),
(152,-169,o),
(158,-165,cs),
(165,-158,o),
(152,-142,o),
(139,-142,cs),
(73,-142,o),
(75,-150,o),
(75,-130,c),
(72,65,l),
(41,64,l),
(41,58,o),
(39,-2,o),
(42,-6,cs),
(49,-16,o),
(53,-24,o),
(42,-35,c),
(40,-38,o),
(41,-47,o),
(44,-51,cs),
(53,-63,o),
(49,-106,o),
(47,-128,cs),
(46,-138,o),
(46,-144,o),
(39,-144,cs),
(29,-144,o),
(11,-146,o),
(-2,-139,c),
(-13,-146,o),
(-26,-148,o),
(-33,-159,cs),
(-35,-163,o),
(-32,-172,o),
(-27,-172,cs),
(-16,-173,o),
(-5,-173,o),
(6,-173,cs),
(93,-170,ls),
(101,-170,o),
(114,-166,o),
(124,-175,cs)
);
},
{
ref = B;
}
);
width = 441;
}
);
unicode = 42932;
},
{
glyphname = Bhook;
lastChange = "2023-11-11 14:30:52 +0000";
layers = (
{
layerId = m01;
shapes = (
{
pos = (79,0);
ref = B;
},
{
closed = 1;
nodes = (
(1,555,o),
(27,557,o),
(27,565,c),
(40,580,o),
(16,666,o),
(62,664,cs),
(69,664,o),
(88,665,o),
(95,663,cs),
(108,660,o),
(101,668,o),
(140,663,cs),
(147,662,o),
(153,669,o),
(161,665,c),
(181,677,o),
(206,707,o),
(116,695,cs),
(111,694,o),
(84,694,o),
(77,694,cs),
(46,695,o),
(50,695,o),
(45,695,cs),
(8,693,o),
(4,668,o),
(1,635,cs),
(0,622,o),
(7,606,o),
(1,597,cs),
(-2,592,o),
(2,575,o),
(1,571,c)
);
}
);
width = 520;
}
);
unicode = 385;
},
{
glyphname = C;
lastChange = "2023-11-11 07:16:08 +0000";
layers = (
{
anchors = (
{
name = bottom;
pos = (279,51);
},
{
name = top;
pos = (243,697);
}
);
layerId = m01;
shapes = (
{
closed = 1;
nodes = (
(64,-40,o),
(162,0,o),
(175,10,cs),
(191,22,o),
(210,23,o),
(227,31,cs),
(373,102,o),
(264,51,o),
(415,112,c),
(415,4,o),
(414,-8,o),
(414,-19,cs),
(414,-26,o),
(428,-33,o),
(437,-33,cs),
(447,-33,o),
(448,-27,o),
(449,-20,cs),
(450,-16,o),
(456,8,o),
(457,15,c),
(450,22,o),
(448,29,o),
(448,36,cs),
(448,106,o),
(449,72,o),
(448,142,cs),
(448,145,o),
(444,149,o),
(441,149,cs),
(434,150,o),
(424,152,o),
(420,149,cs),
(411,140,o),
(399,144,o),
(389,139,cs),
(370,129,o),
(291,88,o),
(266,88,cs),
(264,88,o),
(143,28,o),
(98,8,cs),
(90,5,o),
(77,10,o),
(75,17,c),
(72,175,o),
(75,86,o),
(75,169,cs),
(75,173,o),
(78,178,o),
(81,182,c),
(83,187,o),
(72,189,o),
(78,195,c),
(84,199,o),
(84,267,o),
(80,271,cs),
(70,279,o),
(84,283,o),
(83,290,cs),
(82,296,o),
(83,303,o),
(83,309,cs),
(83,328,o),
(74,329,o),
(78,333,cs),
(85,339,o),
(83,347,o),
(83,354,cs),
(83,586,ls),
(83,592,o),
(84,600,o),
(81,604,cs),
(76,611,o),
(75,617,o),
(75,624,cs),
(75,646,o),
(86,654,o),
(96,654,cs),
(116,654,o),
(148,624,o),
(168,622,cs),
(176,621,o),
(185,618,o),
(190,613,cs),
(205,599,o),
(385,526,o),
(405,513,cs),
(418,504,o),
(447,508,o),
(449,526,cs),
(449,534,o),
(447,542,o),
(447,550,cs),
(447,562,o),
(456,572,o),
(456,583,cs),
(456,588,o),
(455,593,o),
(451,597,c),
(464,606,o),
(445,612,o),
(448,621,cs),
(451,629,o),
(449,638,o),
(449,681,cs),
(449,688,o),
(444,692,o),
(438,696,c),
(434,700,o),
(426,699,o),
(424,695,cs),
(420,684,o),
(415,675,o),
(415,663,cs),
(415,648,o),
(416,563,o),
(415,556,cs),
(415,548,o),
(408,545,o),
(401,549,cs),
(370,564,o),
(240,627,o),
(221,630,cs),
(201,635,o),
(84,700,o),
(64,700,cs),
(58,700,o),
(53,698,o),
(48,695,cs),
(33,683,o),
(66,654,o),
(55,638,cs),
(45,623,o),
(44,620,o),
(55,608,c),
(62,598,o),
(47,593,o),
(47,578,cs),
(47,488,o),
(52,482,o),
(52,474,cs),
(52,473,o),
(47,439,o),
(47,363,cs),
(47,354,o),
(48,345,o),
(55,336,cs),
(57,333,o),
(57,327,o),
(55,324,c),
(48,318,o),
(47,310,o),
(47,302,cs),
(44,164,o),
(48,152,o),
(48,105,c),
(41,26,o),
(40,17,o),
(40,8,cs),
(40,-21,ls),
(40,-33,o),
(49,-40,o),
(61,-40,cs)
);
},
{
closed = 1;
nodes = (
(272,308,o),
(285,322,o),
(295,332,cs),
(300,339,o),
(300,348,o),
(295,355,cs),
(287,365,o),
(279,371,o),
(266,369,cs),
(241,369,o),
(226,356,o),
(226,340,cs),
(226,331,o),
(234,308,o),
(258,308,cs)
);
},
{
closed = 1;
nodes = (
(255,331,o),
(254,338,o),
(254,340,cs),
(254,344,o),
(257,347,o),
(264,347,cs),
(267,348,o),
(269,346,o),
(271,344,cs),
(272,341,o),
(272,339,o),
(271,338,cs),
(269,334,o),
(265,331,o),
(261,331,cs)
);
}
);
width = 497;
}
);
unicode = 67;
},
{
glyphname = Chook;
lastChange = "2023-11-11 14:31:24 +0000";
layers = (
{
layerId = m01;
shapes = (
{
ref = C;
},
{
closed = 1;
nodes = (
(419,663,o),
(445,665,o),
(445,673,c),
(458,688,o),
(434,774,o),
(480,772,cs),
(487,772,o),
(506,773,o),
(513,771,cs),
(526,768,o),
(519,776,o),
(558,771,cs),
(565,770,o),
(571,777,o),
(579,773,c),
(596,783,o),
(593,790,o),
(579,797,c),
(563,807,o),
(552,810,o),
(534,803,cs),
(529,801,o),
(502,802,o),
(495,802,cs),
(464,803,o),
(468,803,o),
(463,803,cs),
(426,801,o),
(422,776,o),
(419,743,cs),
(418,730,o),
(425,714,o),
(419,705,cs),
(416,700,o),
(420,683,o),
(419,679,c)
);
}
);
width = 497;
}
);
unicode = 391;
},
{
glyphname = Cstroke;
lastChange = "2023-11-03 10:39:56 +0000";
layers = (
{
anchors = (
{
name = bottom;
pos = (309,51);
},
{
name = top;
pos = (273,697);
}
);
layerId = m01;
shapes = (
{
closed = 1;
nodes = (
(174,-46,o),
(175,-25,o),
(176,-6,cs),
(176,-5,o),
(177,-5,o),
(177,-4,c),
(191,2,o),
(201,7,o),
(205,10,cs),
(221,22,o),
(240,23,o),
(257,31,cs),
(403,102,o),
(294,51,o),
(445,112,c),
(445,4,o),
(444,-8,o),
(444,-19,cs),
(444,-26,o),
(458,-33,o),
(467,-33,cs),
(477,-33,o),
(478,-27,o),
(479,-20,cs),
(480,-16,o),
(486,8,o),
(487,15,c),
(480,22,o),
(478,29,o),
(478,36,cs),
(478,106,o),
(479,72,o),
(478,142,cs),
(478,145,o),
(474,149,o),
(471,149,cs),
(464,150,o),
(454,152,o),
(450,149,cs),
(441,140,o),
(429,144,o),
(419,139,cs),
(400,129,o),
(321,88,o),
(296,88,cs),
(295,88,o),
(241,62,o),
(192,38,c),
(192,50,l),
(213,118,o),
(232,186,o),
(254,253,cs),
(258,266,o),
(270,276,o),
(269,291,cs),
(266,316,o),
(280,322,o),
(285,339,cs),
(348,553,l),
(389,535,o),
(427,519,o),
(435,513,cs),
(448,504,o),
(477,508,o),
(479,526,cs),
(479,534,o),
(477,542,o),
(477,550,cs),
(477,562,o),
(486,572,o),
(486,583,cs),
(486,588,o),
(485,593,o),
(481,597,c),
(494,606,o),
(475,612,o),
(478,621,cs),
(481,629,o),
(479,638,o),
(479,681,cs),
(479,688,o),
(474,692,o),
(468,696,c),
(464,700,o),
(456,699,o),
(454,695,cs),
(450,684,o),
(445,675,o),
(445,663,cs),
(445,648,o),
(446,563,o),
(445,556,cs),
(445,548,o),
(438,545,o),
(431,549,cs),
(357,584,l),
(369,623,o),
(379,660,o),
(389,693,c),
(394,704,o),
(394,718,o),
(392,728,cs),
(390,736,o),
(387,740,o),
(381,743,c),
(378,739,o),
(365,733,o),
(356,697,cs),
(354,688,o),
(346,655,o),
(343,647,cs),
(329,598,l),
(293,614,o),
(260,629,o),
(251,630,c),
(231,635,o),
(114,700,o),
(94,700,cs),
(88,700,o),
(83,698,o),
(78,695,cs),
(63,683,o),
(96,654,o),
(85,638,cs),
(75,623,o),
(74,620,o),
(85,608,c),
(92,598,o),
(77,593,o),
(77,578,cs),
(77,488,o),
(82,482,o),
(82,474,cs),
(82,473,o),
(77,439,o),
(77,363,cs),
(77,354,o),
(78,345,o),
(85,336,cs),
(87,333,o),
(87,327,o),
(85,324,c),
(78,318,o),
(77,310,o),
(77,302,cs),
(74,164,o),
(78,152,o),
(78,105,c),
(71,26,o),
(70,17,o),
(70,8,cs),
(70,-21,ls),
(70,-33,o),
(79,-40,o),
(91,-40,cs),
(93,-40,o),
(118,-30,o),
(145,-18,c),
(140,-36,o),
(134,-51,o),
(133,-55,c),
(121,-83,o),
(162,-100,o),
(160,-61,c)
);
},
{
closed = 1;
nodes = (
(120,5,o),
(107,10,o),
(105,17,c),
(102,175,o),
(105,86,o),
(105,169,cs),
(105,173,o),
(108,178,o),
(111,182,c),
(113,187,o),
(102,189,o),
(108,195,c),
(114,199,o),
(114,267,o),
(110,271,cs),
(100,279,o),
(114,283,o),
(113,290,cs),
(112,296,o),
(113,303,o),
(113,309,cs),
(113,328,o),
(104,329,o),
(108,333,cs),
(115,339,o),
(113,347,o),
(113,354,cs),
(113,586,ls),
(113,592,o),
(114,600,o),
(111,604,cs),
(106,611,o),
(105,617,o),
(105,624,cs),
(105,646,o),
(116,654,o),
(126,654,cs),
(146,654,o),
(178,624,o),
(198,622,cs),
(206,621,o),
(215,618,o),
(220,613,cs),
(227,606,o),
(272,586,o),
(319,565,c),
(264,378,ls),
(257,357,o),
(248,333,o),
(245,313,cs),
(241,286,o),
(221,276,o),
(223,249,c),
(217,231,o),
(207,221,o),
(203,201,cs),
(198,181,o),
(176,122,o),
(179,100,c),
(171,85,o),
(168,72,o),
(167,54,cs),
(167,51,o),
(163,38,o),
(158,22,c),
(147,16,o),
(136,12,o),
(128,8,cs)
);
}
);
width = 497;
}
);
unicode = 571;
},
{
glyphname = D;
kernRight = I;
lastChange = "2023-11-11 06:50:36 +0000";
layers = (
{
anchors = (
{
name = bottom;
pos = (87,-38);
},
{
name = center;
pos = (48,337);
},
{
name = top;
pos = (53,699);
}
);
layerId = m01;
shapes = (
{
closed = 1;
nodes = (
(68,-39,o),
(74,-34,o),
(82,-31,cs),
(88,-28,o),
(90,-26,o),
(93,-20,cs),
(102,-6,o),
(358,237,o),
(370,238,c),
(395,260,o),
(453,319,o),
(453,326,cs),
(453,341,o),
(414,361,o),
(406,375,cs),
(400,386,o),
(388,395,o),
(377,403,cs),
(338,434,o),
(313,478,o),
(260,523,cs),
(250,531,o),
(238,535,o),
(232,545,cs),
(224,556,o),
(153,629,o),
(119,647,c),
(121,659,o),
(104,657,o),
(103,663,cs),
(102,677,o),
(70,693,o),
(64,698,c),
(58,702,o),
(53,699,o),
(49,696,c),
(41,675,o),
(36,662,o),
(48,647,c),
(52,639,o),
(52,628,o),
(46,620,cs),
(40,611,o),
(38,603,o),
(45,594,cs),
(53,586,o),
(49,576,o),
(49,567,c),
(37,555,o),
(38,516,o),
(47,499,c),
(42,495,o),
(38,408,o),
(44,400,cs),
(52,392,o),
(38,387,o),
(41,380,cs),
(43,371,o),
(52,358,o),
(45,351,c),
(48,303,l),
(45,299,o),
(44,297,o),
(44,292,cs),
(44,285,o),
(50,279,o),
(50,270,cs),
(50,262,o),
(41,253,o),
(44,248,cs),
(48,241,o),
(49,233,o),
(49,226,cs),
(49,153,ls),
(49,148,o),
(51,140,o),
(48,137,cs),
(42,131,o),
(41,124,o),
(41,116,c),
(41,-23,l),
(41,-36,o),
(44,-38,o),
(59,-38,cs)
);
},
{
closed = 1;
nodes = (
(215,304,o),
(228,317,o),
(238,328,cs),
(243,335,o),
(243,344,o),
(238,351,cs),
(230,361,o),
(222,366,o),
(209,365,cs),
(184,365,o),
(169,352,o),
(169,336,cs),
(169,327,o),
(177,304,o),
(201,304,cs)
);
},
{
closed = 1;
nodes = (
(198,327,o),
(197,333,o),
(197,335,cs),
(197,339,o),
(200,342,o),
(207,342,cs),
(210,343,o),
(212,342,o),
(214,339,cs),
(215,337,o),
(215,334,o),
(214,333,cs),
(212,330,o),
(208,327,o),
(204,327,cs)
);
},
{
closed = 1;
nodes = (
(66,13,o),
(70,24,o),
(73,30,cs),
(74,32,o),
(76,36,o),
(75,37,cs),
(64,45,o),
(75,53,o),
(75,60,c),
(76,308,l),
(76,315,o),
(73,393,o),
(80,399,c),
(81,401,o),
(82,405,o),
(81,406,cs),
(77,411,o),
(75,415,o),
(75,421,cs),
(75,493,o),
(75,565,o),
(76,636,cs),
(76,644,o),
(79,648,o),
(83,644,c),
(111,618,o),
(184,547,o),
(198,541,c),
(203,540,o),
(205,531,o),
(209,527,cs),
(221,514,o),
(285,460,o),
(295,436,c),
(319,418,o),
(327,391,o),
(357,378,cs),
(361,377,o),
(367,370,o),
(368,367,c),
(368,356,o),
(382,359,o),
(384,352,cs),
(387,345,o),
(401,339,o),
(408,335,cs),
(413,332,o),
(417,327,o),
(406,316,c),
(372,284,o),
(333,246,o),
(300,214,c),
(288,212,o),
(284,200,o),
(276,195,cs),
(265,191,o),
(258,182,o),
(250,175,cs),
(242,167,o),
(226,147,o),
(217,141,cs),
(204,131,o),
(123,58,o),
(116,44,cs),
(109,30,o),
(94,21,o),
(83,11,cs),
(71,0,o),
(69,2,o),
(68,7,cs)
);
}
);
width = 453;
}
);
unicode = 68;
},
{
glyphname = Eth;
kernRight = I;
lastChange = "2023-11-07 18:23:48 +0000";
layers = (
{
layerId = m01;
shapes = (
{
closed = 1;
nodes = (
(117,0,o),
(123,5,o),
(131,8,cs),
(137,10,o),
(139,12,o),
(142,18,cs),
(151,31,o),
(407,261,o),
(419,262,c),
(444,283,o),
(502,339,o),
(502,346,cs),
(502,360,o),
(463,379,o),
(455,392,cs),
(449,403,o),
(437,411,o),
(426,419,cs),
(387,448,o),
(362,490,o),
(309,532,cs),
(299,540,o),
(287,544,o),
(281,553,cs),
(273,564,o),
(202,633,o),
(168,650,c),
(170,661,o),
(153,659,o),
(152,665,cs),
(151,678,o),
(119,693,o),
(113,698,c),
(107,702,o),
(102,699,o),
(98,696,c),
(90,676,o),
(85,664,o),
(97,650,c),
(101,642,o),
(101,632,o),
(95,624,cs),
(89,616,o),
(87,608,o),
(94,600,cs),
(102,592,o),
(98,583,o),
(98,574,c),
(86,563,o),
(87,526,o),
(96,510,c),
(91,506,o),
(87,423,o),
(93,416,cs),
(101,408,o),
(87,404,o),
(90,397,cs),
(92,388,o),
(101,376,o),
(94,369,cs),
(89,365,o),
(84,362,o),
(76,362,cs),
(63,362,o),
(40,362,o),
(27,361,cs),
(16,361,o),
(18,339,o),
(29,339,cs),
(82,339,ls),
(89,339,o),
(101,327,o),
(97,324,cs),
(94,320,o),
(93,318,o),
(93,314,cs),
(93,307,o),
(99,301,o),
(99,293,cs),
(99,285,o),
(90,277,o),
(93,272,cs),
(97,265,o),
(98,258,o),
(98,251,cs),
(98,182,ls),
(98,177,o),
(100,170,o),
(97,167,cs),
(91,161,o),
(90,154,o),
(90,147,c),
(90,15,l),
(90,3,o),
(93,1,o),
(108,1,cs)
);
},
{
closed = 1;
nodes = (
(115,57,o),
(119,60,o),
(122,65,cs),
(123,67,o),
(125,71,o),
(124,72,cs),
(113,80,o),
(124,87,o),
(124,94,c),
(125,329,l),
(125,335,o),
(127,339,o),
(134,339,cs),
(277,339,ls),
(281,339,o),
(286,339,o),
(289,341,cs),
(305,350,o),
(299,357,o),
(287,361,cs),
(282,363,o),
(276,362,o),
(140,362,cs),
(135,362,o),
(125,373,o),
(127,375,cs),
(137,382,o),
(122,409,o),
(129,415,c),
(130,417,o),
(131,421,o),
(130,422,cs),
(126,426,o),
(124,430,o),
(124,436,cs),
(124,504,o),
(124,572,o),
(125,639,cs),
(125,647,o),
(128,646,o),
(132,642,c),
(160,618,o),
(233,550,o),
(247,545,c),
(252,544,o),
(254,535,o),
(258,531,cs),
(270,519,o),
(334,468,o),
(344,445,c),
(368,428,o),
(384,403,o),
(414,390,cs),
(418,389,o),
(424,383,o),
(425,380,c),
(425,369,o),
(439,372,o),
(441,366,cs),
(444,359,o),
(447,354,o),
(455,353,cs),
(458,353,o),
(461,343,o),
(457,341,c),
(423,311,o),
(390,280,o),
(357,250,c),
(345,248,o),
(341,237,o),
(333,232,cs),
(322,228,o),
(315,220,o),
(307,213,cs),
(299,206,o),
(288,202,o),
(279,196,cs),
(266,187,o),
(172,102,o),
(165,89,cs),
(158,76,o),
(143,67,o),
(132,58,cs),
(120,47,o),
(118,46,o),
(117,51,cs)
);
}
);
width = 502;
}
);
unicode = 208;
},
{
glyphname = Dcroat;
kernRight = I;
lastChange = "2023-11-07 18:23:48 +0000";
layers = (
{
layerId = m01;
shapes = (
{
closed = 1;
nodes = (
(97,0,o),
(103,5,o),
(111,8,cs),
(117,10,o),
(119,12,o),
(122,18,cs),
(131,31,o),
(387,261,o),
(399,262,c),
(424,283,o),
(482,339,o),
(482,346,cs),
(482,360,o),
(443,379,o),
(435,392,cs),
(429,403,o),
(417,411,o),
(406,419,cs),
(367,448,o),
(342,490,o),
(289,532,cs),
(279,540,o),
(267,544,o),
(261,553,cs),
(253,564,o),
(182,633,o),
(148,650,c),
(150,661,o),
(133,659,o),
(132,665,cs),
(131,678,o),
(99,693,o),
(93,698,c),
(87,702,o),
(82,699,o),
(78,696,c),
(70,676,o),
(65,664,o),
(77,650,c),
(81,642,o),
(81,632,o),
(75,624,cs),
(69,616,o),
(67,608,o),
(74,600,cs),
(82,592,o),
(78,583,o),
(78,574,c),
(66,563,o),
(67,526,o),
(76,510,c),
(71,506,o),
(67,423,o),
(73,416,cs),
(81,408,o),
(67,404,o),
(70,397,cs),
(72,388,o),
(81,376,o),
(74,369,cs),
(69,365,o),
(64,362,o),
(56,362,cs),
(43,362,o),
(20,362,o),
(7,361,cs),
(-4,361,o),
(-2,333,o),
(9,333,cs),
(62,333,ls),
(69,333,o),
(81,321,o),
(77,318,cs),
(74,314,o),
(73,312,o),
(73,308,cs),
(73,301,o),
(79,295,o),
(79,287,cs),
(79,279,o),
(70,271,o),
(73,266,cs),
(77,259,o),
(78,252,o),
(78,245,cs),
(78,182,ls),
(78,177,o),
(80,170,o),
(77,167,cs),
(71,161,o),
(70,154,o),
(70,147,c),
(70,15,l),
(70,3,o),
(73,1,o),
(88,1,cs)
);
},
{
closed = 1;
nodes = (
(95,57,o),
(99,60,o),
(102,65,cs),
(103,67,o),
(105,71,o),
(104,72,cs),
(93,80,o),
(104,87,o),
(104,94,c),
(105,323,l),
(105,329,o),
(107,333,o),
(114,333,cs),
(237,333,ls),
(241,333,o),
(246,333,o),
(249,335,cs),
(265,344,o),
(259,357,o),
(247,361,cs),
(242,363,o),
(236,362,o),
(120,362,cs),
(115,362,o),
(105,373,o),
(107,375,cs),
(117,382,o),
(102,409,o),
(109,415,c),
(110,417,o),
(111,421,o),
(110,422,cs),
(106,426,o),
(104,430,o),
(104,436,cs),
(104,504,o),
(104,572,o),
(105,639,cs),
(105,647,o),
(108,646,o),
(112,642,c),
(140,618,o),
(213,550,o),
(227,545,c),
(232,544,o),
(234,535,o),
(238,531,cs),
(250,519,o),
(314,468,o),
(324,445,c),
(348,428,o),
(364,403,o),
(394,390,cs),
(398,389,o),
(404,383,o),
(405,380,c),
(405,369,o),
(419,372,o),
(421,366,cs),
(424,359,o),
(427,354,o),
(435,353,cs),
(438,353,o),
(441,343,o),
(437,341,c),
(403,311,o),
(370,280,o),
(337,250,c),
(325,248,o),
(321,237,o),
(313,232,cs),
(302,228,o),
(295,220,o),
(287,213,cs),
(279,206,o),
(268,202,o),
(259,196,cs),
(246,187,o),
(152,102,o),
(145,89,cs),
(138,76,o),
(123,67,o),
(112,58,cs),
(100,47,o),
(98,46,o),
(97,51,cs)
);
}
);
width = 482;
}
);
unicode = 272;
},
{
glyphname = Dhook;
lastChange = "2023-11-11 14:28:45 +0000";
layers = (
{
layerId = m01;
shapes = (
{
pos = (90,0);
ref = D;
},
{
closed = 1;
nodes = (
(2,558,o),
(28,560,o),
(28,568,c),
(40,583,o),
(15,669,o),
(61,667,cs),
(68,667,o),
(87,669,o),
(94,667,cs),
(107,664,o),
(100,672,o),
(139,667,cs),
(146,666,o),
(152,673,o),
(160,669,c),
(177,680,o),
(174,686,o),
(160,693,c),
(144,703,o),
(133,706,o),
(115,699,cs),
(110,697,o),
(83,698,o),
(76,698,cs),
(45,698,o),
(49,698,o),
(44,698,cs),
(7,696,o),
(3,671,o),
(1,638,cs),
(0,625,o),
(7,609,o),
(1,600,cs),
(-2,595,o),
(2,578,o),
(2,574,c)
);
}
);
width = 543;
}
);
unicode = 394;
},
{
glyphname = Dtail;
lastChange = "2023-11-11 16:20:12 +0000";
layers = (
{
layerId = m01;
shapes = (
{
pos = (4,0);
ref = D;
},
{
closed = 1;
nodes = (
(-40,348,o),
(-91,324,o),
(-29,320,c),
(-2,319,o),
(55,322,o),
(80,315,cs),
(86,311,o),
(109,311,o),
(119,314,cs),
(135,321,o),
(150,342,o),
(135,350,cs),
(132,352,o),
(115,355,o),
(113,353,c),
(102,347,o),
(88,346,o),
(73,346,cs),
(46,344,o),
(26,343,o),
(11,354,c),
(-38,348,ls)
);
}
);
width = 457;
}
);
unicode = 393;
},
{
glyphname = E;
lastChange = "2023-11-11 06:54:52 +0000";
layers = (
{
anchors = (
{
name = bottom;
pos = (209,0);
},
{
name = ogonek;
pos = (457,44);
},
{
name = top;
pos = (241,700);
},
{
name = topleft;
pos = (45,700);
}
);
layerId = m01;
shapes = (
{
closed = 1;
nodes = (
(357,-4,o),
(371,0,o),
(374,2,c),
(384,12,o),
(380,36,o),
(367,36,c),
(341,36,l),
(332,35,o),
(181,30,o),
(173,34,cs),
(163,39,o),
(156,36,o),
(148,34,cs),
(144,33,o),
(139,35,o),
(136,35,cs),
(119,37,o),
(102,46,o),
(86,34,cs),
(81,31,o),
(74,35,o),
(74,41,cs),
(74,298,ls),
(74,303,o),
(72,310,o),
(75,314,cs),
(81,322,o),
(83,330,o),
(83,339,cs),
(83,345,o),
(83,517,o),
(83,523,cs),
(83,533,o),
(81,543,o),
(74,551,c),
(74,569,o),
(81,572,o),
(81,582,c),
(75,590,o),
(73,603,o),
(74,645,c),
(74,659,o),
(83,666,o),
(97,666,cs),
(336,660,ls),
(372,659,o),
(381,665,o),
(381,681,c),
(381,687,o),
(378,691,o),
(371,691,cs),
(334,692,o),
(323,690,o),
(318,694,cs),
(311,698,o),
(252,698,o),
(101,697,c),
(96,693,o),
(93,693,o),
(87,697,cs),
(85,699,o),
(79,700,o),
(76,699,cs),
(58,692,o),
(32,683,o),
(43,667,c),
(45,666,o),
(47,662,o),
(47,661,c),
(40,573,o),
(41,556,o),
(48,544,c),
(48,521,o),
(49,475,o),
(48,452,cs),
(48,447,o),
(42,441,o),
(43,438,c),
(47,433,o),
(46,430,o),
(43,424,cs),
(39,418,o),
(39,412,o),
(43,405,cs),
(45,400,o),
(48,395,o),
(48,390,cs),
(49,375,o),
(47,268,o),
(45,264,cs),
(42,257,o),
(40,251,o),
(40,244,cs),
(40,194,o),
(41,87,o),
(40,37,cs),
(39,27,o),
(47,1,o),
(59,1,cs),
(72,0,o),
(115,1,o),
(120,-2,cs),
(127,-7,o),
(134,0,o),
(141,0,cs),
(145,0,o),
(148,0,o),
(152,0,cs),
(308,3,ls),
(317,3,o),
(338,-1,o),
(353,-3,cs)
);
},
{
closed = 1;
nodes = (
(128,239,o),
(202,304,o),
(239,336,cs),
(243,340,o),
(242,346,o),
(236,350,cs),
(225,359,o),
(221,367,o),
(214,374,cs),
(203,386,ls),
(197,393,o),
(191,398,o),
(184,407,cs),
(181,410,o),
(162,432,o),
(156,440,c),
(148,447,o),
(130,466,o),
(120,469,cs),
(112,462,o),
(116,453,o),
(116,447,c),
(119,442,o),
(119,437,o),
(118,431,cs),
(117,421,ls),
(113,382,o),
(120,343,o),
(116,305,cs),
(115,297,o),
(119,290,o),
(118,282,cs),
(117,276,o),
(114,269,o),
(113,264,cs),
(113,259,o),
(112,255,o),
(114,250,cs),
(114,247,o),
(118,240,o),
(124,240,cs)
);
},
{
closed = 1;
nodes = (
(145,325,o),
(135,420,o),
(152,401,cs),
(195,353,ls),
(201,347,o),
(201,347,o),
(196,339,cs),
(195,336,o),
(192,334,o),
(192,331,cs),
(189,322,o),
(182,317,o),
(171,314,cs),
(168,314,o),
(165,311,o),
(149,293,cs),
(148,292,o),
(147,291,o),
(143,292,c)
);
}
);
width = 381;
}
);
unicode = 69;
},
{
glyphname = Eopen;
lastChange = "2023-11-11 16:26:20 +0000";
layers = (
{
anchors = (
{
name = bottom;
pos = (208,0);
},
{
name = top;
pos = (208,700);
}
);
layerId = m01;
shapes = (
{
closed = 1;
nodes = (
(403,0,o),
(406,2,c),
(416,12,o),
(412,36,o),
(399,36,cs),
(373,36,ls),
(364,36,o),
(183,30,o),
(175,34,cs),
(165,39,o),
(158,36,o),
(150,34,cs),
(146,33,o),
(141,33,o),
(138,35,cs),
(121,45,o),
(106,24,o),
(88,26,cs),
(86,26,o),
(84,26,o),
(82,27,c),
(159,204,o),
(167,225,o),
(163,233,c),
(162,246,o),
(172,248,o),
(176,260,cs),
(200,338,o),
(209,330,o),
(222,354,c),
(226,353,o),
(229,352,o),
(230,354,c),
(236,360,o),
(242,356,o),
(249,357,cs),
(273,361,o),
(287,351,o),
(301,353,cs),
(324,357,o),
(344,363,o),
(344,372,cs),
(344,389,o),
(318,380,o),
(271,385,cs),
(254,385,o),
(232,385,o),
(221,389,c),
(208,408,o),
(199,404,o),
(176,472,cs),
(172,483,o),
(161,485,o),
(162,497,c),
(166,504,o),
(119,575,o),
(77,664,c),
(99,663,o),
(119,665,o),
(136,665,cs),
(368,666,ls),
(404,666,o),
(413,671,o),
(413,687,cs),
(413,693,o),
(410,697,o),
(403,697,cs),
(366,698,o),
(355,696,o),
(350,700,cs),
(343,704,o),
(254,698,o),
(103,697,c),
(98,693,o),
(95,693,o),
(89,697,cs),
(87,699,o),
(81,700,o),
(78,699,cs),
(63,693,o),
(39,689,o),
(40,677,c),
(37,657,o),
(83,603,o),
(88,575,cs),
(93,557,o),
(121,500,o),
(126,487,c),
(140,478,o),
(179,403,o),
(185,387,c),
(186,378,o),
(191,373,o),
(191,367,cs),
(190,359,o),
(142,255,o),
(127,244,c),
(122,230,o),
(95,167,o),
(90,147,cs),
(86,127,o),
(74,97,o),
(41,21,c),
(42,21,l),
(41,19,o),
(41,18,o),
(41,16,cs),
(41,6,o),
(49,-1,o),
(61,-1,cs),
(74,-2,o),
(110,4,o),
(115,1,cs),
(122,-4,o),
(136,0,o),
(143,0,cs),
(154,0,l),
(340,3,ls),
(349,3,o)
);
}
);
width = 423;
}
);
unicode = 400;
},
{
glyphname = Esh;
lastChange = "2023-11-11 16:26:09 +0000";
layers = (
{
layerId = m01;
shapes = (
{
closed = 1;
nodes = (
(349,3,o),
(403,0,o),
(406,2,c),
(416,12,o),
(412,36,o),
(399,36,cs),
(373,36,ls),
(364,36,o),
(183,30,o),
(175,34,cs),
(165,39,o),
(158,36,o),
(150,34,cs),
(146,33,o),
(141,33,o),
(138,35,cs),
(121,45,o),
(106,24,o),
(88,26,cs),
(86,26,o),
(84,26,o),
(82,27,c),
(159,204,o),
(167,225,o),
(163,233,c),
(162,246,o),
(172,248,o),
(176,260,cs),
(200,338,o),
(209,330,o),
(222,354,c),
(233,367,o),
(232,385,o),
(221,389,c),
(208,408,o),
(199,404,o),
(176,472,cs),
(172,483,o),
(161,485,o),
(162,497,c),
(166,504,o),
(119,575,o),
(77,664,c),
(99,663,o),
(119,665,o),
(136,665,cs),
(368,666,ls),
(404,666,o),
(413,671,o),
(413,687,cs),
(413,693,o),
(410,697,o),
(403,697,cs),
(366,698,o),
(355,696,o),
(350,700,cs),
(343,704,o),
(254,698,o),
(103,697,c),
(98,693,o),
(95,693,o),
(89,697,cs),
(87,699,o),
(81,700,o),
(78,699,cs),
(63,693,o),
(39,689,o),
(40,677,c),
(37,657,o),
(83,603,o),
(88,575,cs),
(93,557,o),
(121,500,o),
(126,487,c),
(140,478,o),
(179,403,o),
(185,387,c),
(186,378,o),
(191,373,o),
(191,367,cs),
(190,359,o),
(142,255,o),
(127,244,c),
(122,230,o),
(95,167,o),
(90,147,cs),
(86,127,o),
(74,97,o),
(41,21,c),
(42,21,l),
(41,19,o),
(41,18,o),
(41,16,cs),
(41,6,o),
(49,-1,o),
(61,-1,cs),
(74,-2,o),
(110,4,o),
(115,1,cs),
(122,-4,o),
(136,0,o),
(143,0,cs),
(154,0,l),
(340,3,ls)
);
}
);
width = 413;
}
);
unicode = 425;
},
{
glyphname = Estroke;
lastChange = "2023-11-11 06:55:01 +0000";
layers = (
{
anchors = (
{
name = bottom;
pos = (272,0);
},
{
name = ogonek;
pos = (487,44);
},
{
name = top;
pos = (271,700);
},
{
name = topleft;
pos = (75,700);
}
);
layerId = m01;
shapes = (
{
closed = 1;
nodes = (
(124,-30,l),
(119,-21,o),
(124,-13,o),
(126,-4,cs),
(145,55,o),
(173,147,o),
(175,153,cs),
(178,161,o),
(181,167,o),
(189,170,c),
(190,171,o),
(191,179,o),
(190,182,cs),
(186,193,o),
(222,300,o),
(229,307,cs),
(237,316,o),
(243,323,o),
(239,336,c),
(247,341,o),
(250,347,o),
(253,356,cs),
(263,388,o),
(369,716,o),
(371,720,cs),
(373,727,o),
(373,731,o),
(370,738,cs),
(369,752,o),
(367,757,o),
(346,755,c),
(330,711,o),
(332,707,o),
(329,698,cs),
(243,439,ls),
(241,433,o),
(237,409,o),
(229,409,c),
(227,401,o),
(217,353,o),
(214,345,cs),
(133,144,o),
(135,121,o),
(126,116,cs),
(122,113,o),
(117,101,o),
(119,96,cs),
(122,83,o),
(108,22,o),
(94,26,c),
(94,12,o),
(89,-23,o),
(86,-36,c),
(80,-67,o),
(110,-50,o),
(111,-49,cs)
);
},
{
ref = E;
}
);
width = 381;
}
);
unicode = 582;
},
{
glyphname = Schwa;
lastChange = "2023-11-04 17:06:34 +0000";
layers = (
{
anchors = (
{
name = bottom;
pos = (247,0);
},
{
name = bottomright;
pos = (443,0);
},
{
name = ogonek;
pos = (31,656);
},
{
name = top;
pos = (246,700);
}
);
layerId = m01;
shapes = (
{
closed = 1;
nodes = (
(490,8,o),
(516,17,o),
(505,33,c),
(503,34,o),
(501,38,o),
(501,39,cs),
(508,127,o),
(507,144,o),
(500,156,c),
(500,179,o),
(499,225,o),
(500,248,cs),
(500,253,o),
(506,259,o),
(505,262,c),
(501,267,o),
(502,270,o),
(505,276,cs),
(509,282,o),
(509,288,o),
(505,295,cs),
(503,300,o),
(500,305,o),
(500,310,cs),
(499,325,o),
(501,432,o),
(503,436,cs),
(506,443,o),
(508,449,o),
(508,456,cs),
(508,506,o),
(507,605,o),
(508,655,cs),
(509,665,o),
(501,691,o),
(489,691,cs),
(476,692,o),
(433,691,o),
(428,694,cs),
(421,699,o),
(414,700,o),
(407,700,cs),
(396,700,l),
(200,697,ls),
(191,697,o),
(170,701,o),
(155,703,cs),
(151,704,o),
(137,700,o),
(134,698,c),
(124,688,o),
(128,664,o),
(141,664,cs),
(167,664,ls),
(176,664,o),
(367,670,o),
(375,666,cs),
(385,661,o),
(392,664,o),
(400,666,cs),
(404,667,o),
(409,667,o),
(412,665,cs),
(429,655,o),
(446,654,o),
(462,666,cs),
(467,669,o),
(474,665,o),
(474,659,cs),
(474,402,ls),
(474,397,o),
(476,390,o),
(473,386,cs),
(467,378,o),
(465,371,o),
(465,362,c),
(444,362,o),
(437,362,o),
(433,364,c),
(427,369,o),
(279,369,o),
(130,368,c),
(125,364,o),
(122,364,o),
(116,368,cs),
(114,370,o),
(108,371,o),
(105,369,c),
(88,363,o),
(62,354,o),
(73,338,c),
(75,337,o),
(77,333,o),
(77,332,cs),
(70,244,o),
(71,227,o),
(78,215,c),
(78,192,o),
(79,146,o),
(78,122,cs),
(78,118,o),
(72,112,o),
(73,109,c),
(77,104,o),
(76,101,o),
(73,95,cs),
(69,89,o),
(69,83,o),
(73,75,cs),
(75,71,o),
(77,20,o),
(77,14,c),
(78,14,l),
(79,11,o),
(82,9,o),
(87,9,cs),
(124,8,o),
(135,10,o),
(140,6,cs),
(147,2,o),
(296,2,o),
(447,3,c),
(452,7,o),
(455,7,o),
(461,3,cs),
(463,1,o),
(469,0,o),
(472,1,cs)
);
},
{
closed = 1;
nodes = (
(122,40,ls),
(118,40,o),
(115,40,o),
(112,40,c),
(112,194,ls),
(112,204,o),
(110,214,o),
(104,222,c),
(104,240,o),
(110,243,o),
(110,253,c),
(104,261,o),
(103,274,o),
(104,316,cs),
(104,330,o),
(112,336,o),
(126,336,cs),
(451,330,ls),
(456,330,o),
(461,330,o),
(465,330,c),
(465,177,ls),
(465,167,o),
(467,157,o),
(474,149,c),
(474,131,o),
(467,128,o),
(467,118,c),
(473,110,o),
(475,97,o),
(474,55,cs),
(474,41,o),
(465,34,o),
(451,34,cs)
);
},
{
closed = 1;
nodes = (
(298,158,o),
(311,172,o),
(321,182,cs),
(326,189,o),
(326,198,o),
(321,205,cs),
(313,215,o),
(305,221,o),
(292,219,cs),
(267,219,o),
(252,206,o),
(252,190,cs),
(252,181,o),
(260,158,o),
(284,158,cs)
);
},
{
closed = 1;
nodes = (
(281,181,o),
(280,188,o),
(280,190,cs),
(280,194,o),
(283,197,o),
(290,197,cs),
(293,198,o),
(295,196,o),
(297,194,cs),
(298,191,o),
(298,189,o),
(297,188,cs),
(295,184,o),
(291,181,o),
(287,181,cs)
);
}
);
width = 578;
}
);
unicode = 399;
},
{
glyphname = Ezh;
lastChange = "2023-11-11 16:26:47 +0000";
layers = (
{
anchors = (
{
name = bottom;
pos = (212,0);
},
{
name = top;
pos = (212,700);
}
);
layerId = m01;
shapes = (
{
closed = 1;
nodes = (
(348,0,o),
(366,1,o),
(371,1,cs),
(384,0,o),
(403,45,o),
(390,70,c),
(399,82,o),
(398,191,o),
(393,201,cs),
(383,215,o),
(395,221,o),
(395,233,cs),
(393,315,ls),
(393,329,o),
(391,338,o),
(373,344,c),
(362,346,o),
(325,348,o),
(254,350,cs),
(237,350,o),
(194,342,o),
(174,348,c),
(143,354,o),
(87,347,o),
(68,346,c),
(302,560,o),
(320,574,o),
(326,587,cs),
(331,598,o),
(380,641,o),
(395,652,cs),
(405,659,o),
(408,672,o),
(415,680,cs),
(419,685,o),
(412,696,o),
(405,698,cs),
(400,699,o),
(372,689,o),
(254,699,cs),
(233,701,o),
(210,699,o),
(184,699,cs),
(172,699,o),
(151,692,o),
(146,699,cs),
(141,706,o),
(132,698,o),
(124,699,cs),
(95,704,o),
(64,699,o),
(29,699,cs),
(11,700,o),
(0,655,o),
(32,666,cs),
(45,671,o),
(109,667,o),
(183,668,cs),
(194,668,o),
(205,663,o),
(216,668,cs),
(225,672,o),
(234,670,o),
(244,668,cs),
(290,659,o),
(334,669,o),
(356,669,c),
(369,667,o),
(343,641,o),
(331,637,cs),
(321,635,o),
(316,626,o),
(313,618,c),
(298,592,o),
(52,379,o),
(31,358,cs),
(-10,321,o),
(27,314,o),
(53,314,cs),
(116,315,l),
(130,310,l),
(161,317,l),
(355,311,ls),
(359,311,o),
(366,52,o),
(361,32,c),
(335,34,o),
(301,35,o),
(197,32,c),
(150,35,o),
(134,38,o),
(102,38,cs),
(-40,38,o),
(14,0,o),
(53,0,cs)
);
},
{
closed = 1;
nodes = (
(243,172,o),
(246,179,o),
(247,185,cs),
(250,192,o),
(247,198,o),
(242,204,cs),
(233,215,o),
(200,231,o),
(189,220,c),
(184,212,o),
(178,203,o),
(176,192,cs),
(176,186,o),
(184,178,o),
(186,170,cs),
(190,150,o),
(215,150,o),
(239,168,cs)
);
},
{
closed = 1;
nodes = (
(214,180,o),
(207,180,o),
(206,185,cs),
(205,187,o),
(203,189,o),
(203,191,cs),
(203,194,o),
(205,196,o),
(206,198,c),
(209,202,o),
(219,197,o),
(221,194,cs),
(222,193,o),
(223,191,o),
(222,189,cs),
(222,187,o),
(221,185,o),
(220,184,cs)
);
}
);
width = 456;
}
);
unicode = 439;
},
{
glyphname = F;
lastChange = "2023-11-11 06:42:59 +0000";
layers = (
{
anchors = (
{
name = bottom;
pos = (166,7);
},
{
name = top;
pos = (266,700);
}
);
layerId = m01;
shapes = (
{
closed = 1;
nodes = (
(207,5,ls),
(214,5,o),
(220,8,o),
(226,10,cs),
(232,12,o),
(241,5,o),
(248,5,cs),
(258,5,o),
(343,4,o),
(344,6,c),
(349,10,o),
(355,15,o),
(357,21,cs),
(359,28,o),
(351,28,o),
(347,31,cs),
(338,36,o),
(330,39,o),
(320,39,cs),
(298,39,o),
(212,39,o),
(190,39,cs),
(187,39,o),
(182,40,o),
(182,72,cs),
(183,360,l),
(179,386,l),
(188,397,o),
(182,639,o),
(182,658,cs),
(182,663,o),
(184,666,o),
(188,667,c),
(195,667,o),
(221,668,o),
(248,670,cs),
(276,671,o),
(283,678,o),
(317,670,c),
(321,663,o),
(335,667,o),
(364,668,cs),
(368,668,o),
(377,667,o),
(381,671,cs),
(388,678,o),
(394,669,o),
(397,669,cs),
(414,669,o),
(428,674,o),
(434,673,cs),
(457,668,o),
(473,675,o),
(475,681,cs),
(481,698,o),
(467,700,o),
(452,700,cs),
(232,704,o),
(196,698,o),
(194,696,cs),
(186,688,o),
(176,690,o),
(166,689,cs),
(157,688,o),
(148,680,o),
(148,670,c),
(149,555,o),
(147,545,o),
(141,535,c),
(152,522,o),
(148,512,o),
(148,495,cs),
(148,50,ls),
(148,41,o),
(146,38,o),
(135,38,cs),
(79,38,ls),
(74,38,o),
(68,38,o),
(63,37,cs),
(58,36,o),
(49,25,o),
(51,22,cs),
(54,16,o),
(58,10,o),
(63,6,cs),
(66,4,o),
(71,5,o),
(76,5,cs)
);
},
{
closed = 1;
nodes = (
(86,311,o),
(99,325,o),
(109,335,cs),
(114,342,o),
(114,351,o),
(109,358,cs),
(101,368,o),
(93,374,o),
(80,372,cs),
(55,372,o),
(40,359,o),
(40,343,cs),
(40,334,o),
(48,311,o),
(72,311,cs)
);
},
{
closed = 1;
nodes = (
(70,335,o),
(69,341,o),
(69,343,cs),
(69,347,o),
(71,349,o),
(78,349,cs),
(81,350,o),
(83,349,o),
(84,347,cs),
(85,344,o),
(85,342,o),
(84,341,cs),
(83,337,o),
(79,335,o),
(75,335,cs)
);
},
{
closed = 1;
nodes = (
(340,241,o),
(344,248,o),
(344,251,cs),
(346,256,o),
(345,260,o),
(345,265,cs),
(344,270,o),
(341,277,o),
(340,283,cs),
(339,291,o),
(343,298,o),
(342,306,cs),
(338,344,o),
(345,383,o),
(341,422,cs),
(340,432,ls),
(339,438,o),
(339,443,o),
(342,448,c),
(342,454,o),
(346,463,o),
(338,470,cs),
(328,467,o),
(310,448,o),
(302,441,c),
(296,433,o),
(277,411,o),
(274,408,cs),
(267,399,o),
(261,394,o),
(255,387,cs),
(244,375,ls),
(237,368,o),
(233,360,o),
(222,351,cs),
(216,347,o),
(215,341,o),
(219,337,cs),
(256,305,o),
(330,240,o),
(334,241,cs)
);
},
{
closed = 1;
nodes = (
(311,292,o),
(310,293,o),
(309,294,cs),
(293,312,o),
(290,315,o),
(287,315,cs),
(276,318,o),
(269,323,o),
(266,332,cs),
(266,335,o),
(263,337,o),
(262,340,cs),
(257,348,o),
(257,348,o),
(263,354,cs),
(306,402,ls),
(323,421,o),
(313,326,o),
(315,293,c)
);
}
);
width = 476;
}
);
unicode = 70;
},
{
glyphname = Fhook;
lastChange = "2023-11-11 16:22:44 +0000";
layers = (
{
anchors = (
{
name = bottom;
pos = (126,7);
},
{
name = top;
pos = (226,700);
}
);
layerId = m01;
shapes = (
{
closed = 1;
nodes = (
(142,36,o),
(142,72,cs),
(143,360,l),
(139,386,l),
(148,397,o),
(142,639,o),
(142,658,cs),
(142,663,o),
(144,666,o),
(148,667,c),
(155,667,o),
(181,668,o),
(208,670,cs),
(236,671,o),
(243,678,o),
(277,670,c),
(281,663,o),
(295,667,o),
(324,668,cs),
(328,668,o),
(337,667,o),
(341,671,cs),
(348,678,o),
(354,669,o),
(357,669,cs),
(374,669,o),
(388,674,o),
(394,673,cs),
(417,668,o),
(433,675,o),
(435,681,cs),
(441,698,o),
(427,700,o),
(412,700,cs),
(192,704,o),
(156,698,o),
(154,696,cs),
(146,688,o),
(136,690,o),
(126,689,cs),
(117,688,o),
(108,680,o),
(108,670,c),
(109,555,o),
(107,545,o),
(101,535,c),
(112,522,o),
(108,512,o),
(108,495,cs),
(108,50,ls),
(108,0,o)
);
},
{
closed = 1;
nodes = (
(46,311,o),
(59,325,o),
(69,335,cs),
(74,342,o),
(74,351,o),
(69,358,cs),
(61,368,o),
(53,374,o),
(40,372,cs),
(15,372,o),
(0,359,o),
(0,343,cs),
(0,334,o),
(8,311,o),
(32,311,cs)
);
},
{
closed = 1;
nodes = (
(30,335,o),
(29,341,o),
(29,343,cs),
(29,347,o),
(31,349,o),
(38,349,cs),
(41,350,o),
(43,349,o),
(44,347,cs),
(45,344,o),
(45,342,o),
(44,341,cs),
(43,337,o),
(39,335,o),
(35,335,cs)
);
},
{
closed = 1;
nodes = (
(300,241,o),
(304,248,o),
(304,251,cs),
(306,256,o),
(305,260,o),
(305,265,cs),
(304,270,o),
(301,277,o),
(300,283,cs),
(299,291,o),
(303,298,o),
(302,306,cs),
(298,344,o),
(305,383,o),
(301,422,cs),
(300,432,ls),
(299,438,o),
(299,443,o),
(302,448,c),
(302,454,o),
(306,463,o),
(298,470,cs),
(288,467,o),
(270,448,o),
(262,441,c),
(256,433,o),
(237,411,o),
(234,408,cs),
(227,399,o),
(221,394,o),
(215,387,cs),
(204,375,ls),
(197,368,o),
(193,360,o),
(182,351,cs),
(176,347,o),
(175,341,o),
(179,337,cs),
(216,305,o),
(290,240,o),
(294,241,cs)
);
},
{
closed = 1;
nodes = (
(271,292,o),
(270,293,o),
(269,294,cs),
(253,312,o),
(250,315,o),
(247,315,cs),
(236,318,o),
(229,323,o),
(226,332,cs),
(226,335,o),
(223,337,o),
(222,340,cs),
(217,348,o),
(217,348,o),
(223,354,cs),
(266,402,ls),
(283,421,o),
(273,326,o),
(275,293,c)
);
},
{
closed = 1;
nodes = (
(142,116,o),
(112,112,o),
(112,104,c),
(99,89,o),
(127,-105,o),
(81,-103,cs),
(74,-103,o),
(55,-104,o),
(48,-102,cs),
(35,-99,o),
(42,-107,o),
(3,-102,cs),
(-4,-101,o),
(-10,-108,o),
(-18,-104,c),
(-35,-114,o),
(-32,-121,o),
(-18,-128,c),
(-2,-138,o),
(9,-141,o),
(27,-134,cs),
(32,-132,o),
(59,-133,o),
(66,-133,cs),
(97,-134,o),
(93,-134,o),
(98,-134,cs),
(135,-132,o),
(139,-107,o),
(142,36,cs),
(142,49,o),
(136,65,o),
(142,74,cs),
(145,79,o),
(141,96,o),
(142,100,c)
);
}
);
width = 436;
}
);
unicode = 401;
},
{
glyphname = G;
lastChange = "2023-11-11 06:33:42 +0000";
layers = (
{
anchors = (
{
name = bottom;
pos = (274,0);
},
{
name = top;
pos = (252,697);
}
);
layerId = m01;
shapes = (
{
closed = 1;
nodes = (
(145,-1,o),
(148,-1,o),
(152,-1,cs),
(368,0,ls),
(377,0,o),
(389,7,o),
(397,-1,cs),
(400,-4,o),
(441,-1,o),
(444,1,c),
(454,11,o),
(443,104,o),
(449,307,cs),
(449,313,o),
(449,328,o),
(431,328,c),
(348,333,o),
(387,327,o),
(304,336,c),
(297,330,o),
(289,328,o),
(281,328,cs),
(259,328,o),
(254,331,o),
(232,328,c),
(229,327,o),
(225,323,o),
(224,320,c),
(224,304,o),
(225,296,o),
(233,290,cs),
(267,260,o),
(294,222,o),
(333,197,cs),
(348,188,o),
(401,135,o),
(414,122,c),
(414,35,l),
(405,34,o),
(181,29,o),
(173,33,cs),
(163,38,o),
(156,35,o),
(148,33,cs),
(144,32,o),
(139,33,o),
(136,34,cs),
(119,37,o),
(102,42,o),
(86,30,cs),
(81,27,o),
(74,31,o),
(74,37,cs),
(74,302,ls),
(74,307,o),
(72,314,o),
(75,318,cs),
(81,326,o),
(83,334,o),
(83,343,cs),
(83,349,o),
(83,521,o),
(83,527,cs),
(83,537,o),
(81,547,o),
(74,555,c),
(74,573,o),
(81,576,o),
(81,586,c),
(75,594,o),
(73,608,o),
(74,650,c),
(74,664,o),
(83,671,o),
(97,671,cs),
(397,671,ls),
(403,671,o),
(407,668,o),
(407,661,c),
(407,532,o),
(407,520,o),
(408,514,cs),
(409,506,o),
(416,500,o),
(416,491,cs),
(416,483,o),
(421,481,o),
(431,482,cs),
(438,482,o),
(441,486,o),
(441,492,cs),
(441,686,ls),
(441,692,o),
(438,696,o),
(431,696,cs),
(394,697,o),
(383,695,o),
(378,699,cs),
(371,703,o),
(252,703,o),
(101,702,c),
(96,698,o),
(93,698,o),
(87,702,cs),
(85,704,o),
(79,705,o),
(76,704,cs),
(58,697,o),
(32,688,o),
(43,672,c),
(45,671,o),
(47,667,o),
(47,666,c),
(40,578,o),
(41,560,o),
(48,548,c),
(48,525,o),
(49,479,o),
(48,456,cs),
(48,451,o),
(42,445,o),
(43,442,c),
(47,437,o),
(46,434,o),
(43,428,cs),
(39,422,o),
(39,416,o),
(43,409,cs),
(45,404,o),
(48,399,o),
(48,394,cs),
(49,379,o),
(47,272,o),
(45,268,cs),
(42,261,o),
(40,255,o),
(40,248,cs),
(40,198,o),
(41,87,o),
(40,37,cs),
(39,27,o),
(47,1,o),
(59,1,cs),
(72,0,o),
(115,1,o),
(120,-2,cs),
(127,-7,o),
(134,-1,o),
(141,-1,cs)
);
},
{
closed = 1;
nodes = (
(397,182,o),
(275,282,o),
(267,299,c),
(286,301,l),
(297,304,o),
(312,306,o),
(322,300,c),
(396,295,o),
(408,299,o),
(415,292,c),
(420,290,o),
(416,226,o),
(416,192,cs),
(416,173,o),
(414,167,o),
(411,170,cs)
);
},
{
closed = 1;
nodes = (
(252,460,o),
(265,474,o),
(275,484,cs),
(280,491,o),
(280,500,o),
(275,507,cs),
(267,517,o),
(259,523,o),
(246,521,cs),
(221,521,o),
(206,508,o),
(206,492,cs),
(206,483,o),
(214,460,o),
(238,460,cs)
);
},
{
closed = 1;
nodes = (
(235,483,o),
(234,490,o),
(234,492,cs),
(234,496,o),
(237,499,o),
(244,499,cs),
(247,500,o),
(249,498,o),
(251,496,cs),
(252,493,o),
(252,491,o),
(251,490,cs),
(249,486,o),
(245,483,o),
(241,483,cs)
);
}
);
width = 489;
}
);
unicode = 71;
},
{
glyphname = Ghook;
lastChange = "2023-11-11 16:21:36 +0000";
layers = (
{
anchors = (
{
name = bottom;
pos = (274,0);
},
{
name = top;
pos = (252,697);
}
);
layerId = m01;
shapes = (
{
closed = 1;
nodes = (
(145,-1,o),
(148,-1,o),
(152,-1,cs),
(368,0,ls),
(377,0,o),
(389,7,o),
(397,-1,cs),
(400,-4,o),
(441,-1,o),
(444,1,c),
(454,11,o),
(443,104,o),
(449,307,cs),
(449,313,o),
(449,328,o),
(431,328,c),
(348,333,o),
(387,327,o),
(304,336,c),
(297,330,o),
(289,328,o),
(281,328,cs),
(259,328,o),
(254,331,o),
(232,328,c),
(229,327,o),
(225,323,o),
(224,320,c),
(224,304,o),
(225,296,o),
(233,290,cs),
(267,260,o),
(294,222,o),
(333,197,cs),
(348,188,o),
(401,135,o),
(414,122,c),
(414,35,l),
(405,34,o),
(181,29,o),
(173,33,cs),
(163,38,o),
(156,35,o),
(148,33,cs),
(144,32,o),
(139,33,o),
(136,34,cs),
(119,37,o),
(102,42,o),
(86,30,cs),
(81,27,o),
(74,31,o),
(74,37,cs),
(74,302,ls),
(74,307,o),
(72,314,o),
(75,318,cs),
(81,326,o),
(83,334,o),
(83,343,cs),
(83,349,o),
(83,521,o),
(83,527,cs),
(83,537,o),
(81,547,o),
(74,555,c),
(74,573,o),
(81,576,o),
(81,586,c),
(75,594,o),
(73,608,o),
(74,650,c),
(74,664,o),
(83,671,o),
(97,671,cs),
(397,671,ls),
(424,671,o),
(441,658,o),
(441,686,c),
(441,692,o),
(438,696,o),
(431,696,cs),
(394,697,o),
(383,695,o),
(378,699,cs),
(371,703,o),
(252,703,o),
(101,702,c),
(96,698,o),
(93,698,o),
(87,702,cs),
(85,704,o),
(79,705,o),
(76,704,cs),
(58,697,o),
(32,688,o),
(43,672,c),
(45,671,o),
(47,667,o),
(47,666,c),
(40,578,o),
(41,560,o),
(48,548,c),
(48,525,o),
(49,479,o),
(48,456,cs),
(48,451,o),
(42,445,o),
(43,442,c),
(47,437,o),
(46,434,o),
(43,428,cs),
(39,422,o),
(39,416,o),
(43,409,cs),
(45,404,o),
(48,399,o),
(48,394,cs),
(49,379,o),
(47,272,o),
(45,268,cs),
(42,261,o),
(40,255,o),
(40,248,cs),
(40,198,o),
(41,87,o),
(40,37,cs),
(39,27,o),
(47,1,o),
(59,1,cs),
(72,0,o),
(115,1,o),
(120,-2,cs),
(127,-7,o),
(134,-1,o),
(141,-1,cs)
);
},
{
closed = 1;
nodes = (
(397,182,o),
(275,282,o),
(267,299,c),
(286,301,l),
(297,304,o),
(312,306,o),
(322,300,c),
(396,295,o),
(408,299,o),
(415,292,c),
(420,290,o),
(416,226,o),
(416,192,cs),
(416,173,o),
(414,167,o),
(411,170,cs)
);
},
{
closed = 1;
nodes = (
(252,460,o),
(265,474,o),
(275,484,cs),
(280,491,o),
(280,500,o),
(275,507,cs),
(267,517,o),
(259,523,o),
(246,521,cs),
(221,521,o),
(206,508,o),
(206,492,cs),
(206,483,o),
(214,460,o),
(238,460,cs)
);
},
{
closed = 1;
nodes = (
(235,483,o),
(234,490,o),
(234,492,cs),
(234,496,o),
(237,499,o),
(244,499,cs),
(247,500,o),
(249,498,o),
(251,496,cs),
(252,493,o),
(252,491,o),
(251,490,cs),
(249,486,o),
(245,483,o),
(241,483,cs)
);
},
{
closed = 1;
nodes = (
(408,666,o),
(438,670,o),
(438,678,c),
(451,693,o),
(423,837,o),
(469,835,cs),
(476,835,o),
(495,836,o),
(502,834,cs),
(515,831,o),
(508,839,o),
(547,834,cs),
(554,833,o),
(560,840,o),
(568,836,c),
(585,846,o),
(582,853,o),
(568,860,c),
(552,870,o),
(541,873,o),
(523,866,cs),
(518,864,o),
(491,865,o),
(484,865,cs),
(453,866,o),
(457,866,o),
(452,866,cs),
(415,864,o),
(408,829,o),
(408,746,cs),
(408,733,o),
(414,717,o),
(408,708,cs),
(405,703,o),
(409,686,o),
(408,682,c)
);
}
);
width = 480;
}
);
unicode = 403;
},
{
glyphname = Glottalstop;
lastChange = "2023-11-05 14:51:37 +0000";
layers = (
{
layerId = m01;
shapes = (
{
closed = 1;
nodes = (
(134,75,o),
(135,279,o),
(143,298,cs),
(146,304,o),
(158,308,o),
(166,310,cs),
(172,311,o),
(179,310,o),
(184,310,c),
(213,317,o),
(224,324,o),
(236,324,cs),
(245,324,o),
(295,357,o),
(350,363,cs),
(364,365,o),
(375,391,o),
(375,411,cs),
(375,418,o),
(374,424,o),
(371,428,c),
(381,436,o),
(376,445,o),
(370,453,c),
(371,513,l),
(371,519,o),
(382,525,o),
(375,532,cs),
(364,541,o),
(378,546,o),
(378,553,cs),
(377,600,o),
(377,646,o),
(377,693,cs),
(377,702,o),
(367,712,o),
(358,712,cs),
(38,712,ls),
(22,712,o),
(22,711,o),
(15,694,cs),
(10,684,o),
(8,673,o),
(14,663,cs),
(22,651,o),
(22,640,o),
(15,627,cs),
(11,621,o),
(18,618,o),
(17,614,cs),
(16,607,o),
(6,592,o),
(11,587,c),
(18,575,o),
(20,562,o),
(20,549,cs),
(20,541,o),
(19,533,o),
(19,525,cs),
(19,514,o),
(24,507,o),
(32,501,cs),
(35,498,o),
(38,489,o),
(45,496,c),
(50,505,o),
(92,522,o),
(99,535,cs),
(107,552,o),
(120,562,o),
(136,567,cs),
(146,570,o),
(144,578,o),
(149,581,cs),
(162,590,o),
(175,587,o),
(183,601,cs),
(196,626,o),
(221,643,o),
(244,660,cs),
(251,666,o),
(258,672,o),
(261,678,cs),
(261,679,o),
(295,678,o),
(300,678,cs),
(334,678,ls),
(341,678,o),
(343,673,o),
(343,667,cs),
(344,633,o),
(341,545,o),
(344,536,cs),
(349,525,o),
(330,487,o),
(341,476,c),
(340,468,o),
(335,434,o),
(335,406,cs),
(335,401,o),
(332,398,o),
(328,398,cs),
(318,397,o),
(300,391,o),
(220,357,cs),
(213,354,o),
(203,361,o),
(200,356,cs),
(192,340,o),
(183,345,o),
(174,345,cs),
(145,347,o),
(150,339,o),
(121,338,c),
(112,338,o),
(102,323,o),
(106,313,cs),
(111,299,o),
(108,271,o),
(108,259,c),
(102,253,o),
(101,97,o),
(101,90,cs),
(101,85,o),
(101,101,o),
(101,6,c),
(102,-5,o),
(128,-1,o),
(134,3,c)
);
},
{
closed = 1;
nodes = (
(47,545,o),
(42,653,o),
(56,678,c),
(76,678,o),
(95,679,o),
(116,679,cs),
(222,679,l),
(189,652,o),
(157,625,o),
(123,599,cs),
(101,582,o),
(78,551,o),
(50,542,c)
);
}
);
width = 418;
}
);
unicode = 577;
},
{
glyphname = H;
lastChange = "2023-11-07 08:12:29 +0000";
layers = (
{
anchors = (
{
name = bottom;
pos = (257,0);
},
{
name = center;
pos = (238,350);
},
{
name = top;
pos = (238,700);
},
{
name = topleft;
pos = (-22,700);
}
);
layerId = m01;
shapes = (
{
closed = 1;
nodes = (
(62,4,o),
(73,11,o),
(74,18,c),
(71,55,o),
(74,250,o),
(74,323,cs),
(74,337,o),
(76,337,o),
(99,337,cs),
(389,337,ls),
(426,337,o),
(428,335,o),
(428,303,c),
(428,137,o),
(428,128,o),
(429,119,cs),
(430,110,o),
(416,101,o),
(428,92,cs),
(429,91,o),
(427,87,o),
(426,85,cs),
(414,63,o),
(421,43,o),
(422,18,cs),
(422,-1,o),
(455,-7,o),
(455,19,cs),
(455,29,o),
(455,38,o),
(454,139,c),
(462,162,l),
(462,224,o),
(464,417,o),
(464,478,cs),
(464,488,o),
(465,564,o),
(471,571,c),
(465,579,o),
(464,665,o),
(464,677,cs),
(464,681,ls),
(464,691,o),
(452,698,o),
(440,697,cs),
(436,697,o),
(430,695,o),
(430,692,c),
(428,684,o),
(429,674,o),
(429,665,cs),
(429,393,ls),
(429,379,o),
(424,373,o),
(408,370,cs),
(403,368,o),
(397,368,o),
(391,368,cs),
(89,368,ls),
(85,368,o),
(80,369,o),
(77,370,cs),
(72,375,o),
(77,379,o),
(79,384,cs),
(82,390,o),
(83,396,o),
(83,402,cs),
(83,496,o),
(83,578,o),
(84,671,cs),
(84,684,o),
(65,705,o),
(57,698,c),
(41,682,o),
(40,677,o),
(42,675,cs),
(50,667,o),
(48,658,o),
(48,649,c),
(48,511,o),
(47,499,o),
(41,493,c),
(40,469,o),
(40,460,o),
(40,433,cs),
(40,388,o),
(40,122,o),
(40,11,cs),
(40,6,o),
(45,3,o),
(52,3,cs)
);
},
{
closed = 1;
nodes = (
(269,146,o),
(277,152,o),
(285,162,cs),
(290,169,o),
(290,178,o),
(285,185,cs),
(275,195,o),
(262,209,o),
(248,209,cs),
(224,209,o),
(216,186,o),
(216,177,cs),
(216,161,o),
(231,148,o),
(256,148,cs)
);
},
{
closed = 1;
nodes = (
(247,171,o),
(244,174,o),
(244,178,cs),
(244,180,o),
(245,187,o),
(251,187,cs),
(255,187,o),
(259,184,o),
(261,180,cs),
(262,179,o),
(262,177,o),
(261,174,cs),
(259,172,o),
(257,170,o),
(254,171,cs)
);
},
{
closed = 1;
nodes = (
(279,500,o),
(285,509,o),
(287,519,cs),
(287,525,o),
(279,533,o),
(277,541,cs),
(273,560,o),
(248,560,o),
(224,543,cs),
(220,539,o),
(217,532,o),
(216,526,cs),
(213,519,o),
(216,513,o),
(221,508,cs),
(230,497,o),
(263,481,o),
(274,492,c)
);
},
{
closed = 1;
nodes = (
(254,510,o),
(244,514,o),
(242,517,cs),
(241,518,o),
(240,520,o),
(241,522,cs),
(241,524,o),
(242,526,o),
(243,527,cs),
(249,531,o),
(256,531,o),
(257,526,cs),
(258,524,o),
(260,522,o),
(260,520,cs),
(260,517,o),
(258,515,o),
(257,513,c)
);
}
);
width = 511;
}
);
unicode = 72;
},
{
glyphname = Hbar;
lastChange = "2023-11-04 17:08:32 +0000";
layers = (
{
layerId = m01;
shapes = (
{
closed = 1;
nodes = (
(156,3,o),
(167,10,o),
(168,17,c),
(165,54,o),
(168,250,o),
(168,323,cs),
(168,337,o),
(170,337,o),
(193,337,cs),
(483,337,ls),
(520,337,o),
(522,335,o),
(522,303,cs),
(522,137,o),
(522,127,o),
(523,118,cs),
(524,109,o),
(510,100,o),
(522,91,cs),
(523,90,o),
(521,86,o),
(520,84,cs),
(508,62,o),
(523,42,o),
(524,17,cs),
(524,-2,o),
(557,-8,o),
(557,18,cs),
(556,224,o),
(558,502,o),
(559,522,c),
(599,523,o),
(639,527,o),
(659,537,c),
(657,544,l),
(630,568,o),
(572,571,o),
(563,567,c),
(564,569,o),
(558,665,o),
(558,677,cs),
(558,681,ls),
(558,691,o),
(546,698,o),
(534,697,cs),
(530,697,o),
(524,695,o),
(524,692,c),
(522,684,o),
(523,674,o),
(523,665,cs),
(523,562,l),
(501,562,ls),
(465,562,o),
(254,562,o),
(216,563,cs),
(203,563,o),
(190,564,o),
(177,564,c),
(177,599,o),
(178,634,o),
(178,671,cs),
(178,684,o),
(159,705,o),
(151,698,cs),
(135,682,o),
(134,677,o),
(136,675,cs),
(144,667,o),
(142,658,o),
(142,649,cs),
(142,566,l),
(134,566,o),
(127,566,o),
(119,566,cs),
(97,566,ls),
(71,566,o),
(57,557,o),
(37,556,cs),
(29,555,o),
(28,540,o),
(35,538,cs),
(56,531,o),
(77,524,o),
(100,524,cs),
(109,524,o),
(118,526,o),
(127,528,cs),
(141,531,l),
(140,487,o),
(134,477,o),
(134,433,cs),
(134,10,ls),
(134,5,o),
(139,2,o),
(146,2,cs)
);
},
{
closed = 1;
nodes = (
(188,368,o),
(183,369,o),
(180,370,c),
(175,375,o),
(171,379,o),
(173,384,cs),
(176,390,o),
(177,396,o),
(177,402,cs),
(177,533,l),
(203,533,o),
(229,531,o),
(246,531,cs),
(268,530,o),
(298,532,o),
(320,532,cs),
(328,532,o),
(336,532,o),
(341,530,cs),
(361,524,o),
(383,522,o),
(403,522,cs),
(425,522,o),
(447,524,o),
(468,523,cs),
(482,523,o),
(501,522,o),
(523,522,c),
(523,393,ls),
(523,371,o),
(503,368,o),
(485,368,cs),
(192,368,ls)
);
}
);
width = 689;
}
);
unicode = 294;
},
{
glyphname = Hbrevebelow;
lastChange = "2023-11-07 18:30:38 +0000";
layers = (
{
layerId = m01;
shapes = (
{
closed = 1;
nodes = (
(336,-158,o),
(361,-144,o),
(360,-129,cs),
(354,-50,l),
(327,-42,o),
(324,-56,o),
(324,-64,cs),
(324,-68,o),
(324,-87,o),
(325,-98,cs),
(327,-106,o),
(324,-115,o),
(320,-122,c),
(304,-123,o),
(266,-125,o),
(250,-121,cs),
(246,-120,o),
(244,-116,o),
(239,-120,cs),
(236,-123,o),
(232,-123,o),
(228,-123,cs),
(217,-124,o),
(206,-128,o),
(195,-125,cs),
(187,-125,o),
(174,-113,o),
(181,-102,c),
(185,-73,l),
(185,-64,o),
(179,-44,o),
(164,-53,cs),
(151,-61,o),
(152,-121,o),
(154,-136,cs),
(154,-143,o),
(165,-153,o),
(172,-153,cs),
(188,-155,o),
(287,-150,o),
(302,-150,cs),
(313,-150,o),
(324,-151,o),
(335,-157,cs)
);
},
{
ref = H;
}
);
width = 511;
}
);
unicode = 7722;
},
{
glyphname = Heng;
lastChange = "2023-11-11 11:03:21 +0000";
layers = (
{
layerId = m01;
shapes = (
{
ref = H;
},
{
closed = 1;
nodes = (
(333,-139,o),
(350,-143,o),
(355,-140,cs),
(364,-134,o),
(380,-141,o),
(393,-140,cs),
(426,-138,o),
(451,-134,o),
(453,-97,cs),
(453,-92,o),
(453,-96,o),
(453,-65,cs),
(453,-58,o),
(452,-31,o),
(454,-26,cs),
(461,-8,o),
(458,3,o),
(448,19,c),
(441,33,o),
(434,36,o),
(424,19,c),
(428,11,o),
(421,5,o),
(422,-2,cs),
(427,-41,o),
(419,-34,o),
(422,-47,cs),
(424,-54,o),
(422,-73,o),
(422,-80,cs),
(424,-126,o),
(338,-101,o),
(323,-114,c),
(315,-114,o),
(313,-140,o),
(329,-140,c)
);
}
);
width = 511;
}
);
unicode = 42790;
},
{
glyphname = Hhook;
lastChange = "2023-11-11 14:29:36 +0000";
layers = (
{
layerId = m01;
shapes = (
{
pos = (95,0);
ref = H;
},
{
closed = 1;
nodes = (
(0,564,o),
(26,566,o),
(26,574,c),
(39,589,o),
(15,675,o),
(61,673,cs),
(68,673,o),
(87,674,o),
(94,672,cs),
(107,669,o),
(100,677,o),
(139,672,cs),
(146,671,o),
(152,678,o),
(160,674,c),
(177,684,o),
(174,691,o),
(160,698,c),
(144,708,o),
(133,711,o),
(115,704,cs),
(110,702,o),
(83,703,o),
(76,703,cs),
(45,704,o),
(49,704,o),
(44,704,cs),
(7,702,o),
(3,677,o),
(0,644,cs),
(-1,631,o),
(6,615,o),
(0,606,cs),
(-3,601,o),
(1,584,o),
(0,580,c)
);
}
);
width = 606;
}
);
unicode = 42922;
},
{
glyphname = Hturned;
lastChange = "2023-11-11 16:31:11 +0000";
layers = (
{
layerId = m01;
shapes = (
{
closed = 1;
nodes = (
(42,358,l),
(41,327,o),
(76,337,o),
(99,337,cs),
(389,337,ls),
(426,337,o),
(428,335,o),
(428,303,c),
(428,137,o),
(428,128,o),
(429,119,cs),
(430,110,o),
(416,101,o),
(428,92,cs),
(429,91,o),
(427,87,o),
(426,85,cs),
(414,63,o),
(421,43,o),
(422,18,cs),
(422,-1,o),
(455,-7,o),
(455,19,cs),
(455,29,o),
(455,38,o),
(454,139,c),
(462,162,l),
(462,224,o),
(464,417,o),
(464,478,cs),
(464,488,o),
(465,564,o),
(471,571,c),
(465,579,o),
(464,685,o),
(464,697,cs),
(464,701,ls),
(464,711,o),
(452,718,o),
(440,717,cs),
(436,717,o),
(430,715,o),
(430,712,c),
(428,704,o),
(429,694,o),
(429,685,cs),
(429,393,ls),
(429,379,o),
(424,373,o),
(408,370,cs),
(403,368,o),
(397,368,o),
(391,368,cs),
(89,368,ls),
(85,368,o),
(80,369,o),
(77,370,cs),
(72,375,o),
(77,379,o),
(79,384,cs),
(82,390,o),
(83,396,o),
(83,402,cs),
(83,496,o),
(83,598,o),
(84,691,cs),
(84,704,o),
(65,725,o),
(57,718,c),
(41,702,o),
(40,697,o),
(42,695,cs),
(50,687,o),
(48,678,o),
(48,669,c),
(48,531,o),
(47,499,o),
(41,493,c),
(40,469,o),
(40,460,o),
(40,433,c)
);
},
{
closed = 1;
nodes = (
(279,500,o),
(285,509,o),
(287,519,cs),
(287,525,o),
(279,533,o),
(277,541,cs),
(273,560,o),
(248,560,o),
(224,543,cs),
(220,539,o),
(217,532,o),
(216,526,cs),
(213,519,o),
(216,513,o),
(221,508,cs),
(230,497,o),
(263,481,o),
(274,492,c)
);
},
{
closed = 1;
nodes = (
(254,510,o),
(244,514,o),
(242,517,cs),
(241,518,o),
(240,520,o),
(241,522,cs),
(241,524,o),
(242,526,o),
(243,527,cs),
(249,531,o),
(256,531,o),
(257,526,cs),
(258,524,o),
(260,522,o),
(260,520,cs),
(260,517,o),
(258,515,o),
(257,513,c)
);
}
);
width = 511;
}
);
unicode = 42893;
},
{
glyphname = I;
kernLeft = I;
lastChange = "2023-11-07 15:05:29 +0000";
layers = (
{
anchors = (
{
name = bottom;
pos = (242,0);
},
{
name = ogonek;
pos = (319,15);
},
{
name = top;
pos = (242,700);
},
{
name = topleft;
pos = (-28,700);
}
);
layerId = m01;
shapes = (
{
closed = 1;
nodes = (
(388,-1,o),
(403,7,o),
(420,9,cs),
(435,10,o),
(442,17,o),
(442,32,cs),
(442,86,o),
(442,141,o),
(443,195,c),
(429,212,l),
(421,215,o),
(414,213,o),
(413,206,cs),
(412,201,o),
(412,89,o),
(412,60,cs),
(412,36,o),
(409,37,o),
(394,37,cs),
(379,37,o),
(364,39,o),
(350,29,c),
(322,29,o),
(292,29,o),
(264,30,cs),
(261,30,o),
(257,35,o),
(257,38,cs),
(256,47,o),
(257,545,o),
(257,660,c),
(265,664,o),
(290,657,o),
(364,667,c),
(372,667,o),
(380,664,o),
(387,659,c),
(393,656,o),
(401,659,o),
(405,663,cs),
(408,665,o),
(410,665,o),
(411,661,cs),
(412,654,o),
(412,647,o),
(412,502,cs),
(412,478,o),
(442,491,o),
(442,511,cs),
(442,678,ls),
(442,680,o),
(443,681,o),
(442,682,cs),
(434,694,o),
(422,700,o),
(407,700,c),
(348,699,o),
(341,701,o),
(338,698,cs),
(328,690,o),
(263,685,o),
(242,699,c),
(219,696,o),
(179,707,o),
(152,692,cs),
(130,681,o),
(121,700,o),
(96,700,cs),
(76,700,o),
(41,698,o),
(41,670,cs),
(40,627,o),
(41,542,o),
(41,499,cs),
(41,485,o),
(71,483,o),
(71,505,cs),
(71,649,o),
(71,655,o),
(72,660,cs),
(72,662,o),
(75,665,o),
(77,665,cs),
(84,666,o),
(97,670,o),
(101,667,cs),
(109,661,o),
(117,660,o),
(126,660,cs),
(140,660,o),
(217,659,o),
(226,662,c),
(228,647,o),
(224,630,o),
(232,616,c),
(225,581,l),
(225,492,o),
(226,126,o),
(226,37,cs),
(226,31,o),
(221,28,o),
(214,29,cs),
(211,29,o),
(209,29,o),
(206,30,cs),
(165,43,o),
(132,17,o),
(72,36,c),
(72,50,o),
(68,72,o),
(75,84,cs),
(80,90,o),
(79,95,o),
(75,102,cs),
(72,108,o),
(71,115,o),
(71,122,cs),
(71,184,ls),
(71,189,o),
(72,194,o),
(70,196,cs),
(66,202,o),
(60,206,o),
(54,209,cs),
(51,211,o),
(43,201,o),
(42,197,cs),
(41,194,o),
(40,192,o),
(40,189,cs),
(40,30,ls),
(40,18,o),
(49,9,o),
(61,9,cs),
(72,8,o),
(92,10,o),
(102,7,cs),
(118,2,o),
(149,6,o),
(153,6,cs),
(156,6,o),
(160,4,o),
(163,1,c),
(207,1,o),
(303,1,o),
(344,1,cs),
(350,1,o),
(357,0,o),
(371,-1,c)
);
}
);
width = 483;
}
);
unicode = 73;
},
{
glyphname = "Iota-latin";
lastChange = "2023-11-11 16:34:38 +0000";
layers = (
{
layerId = m01;
shapes = (
{
pos = (4,0);
ref = l;
},
{
closed = 1;
nodes = (
(-54,576,o),
(-34,567,o),
(-10,585,cs),
(12,603,o),
(25,618,o),
(35,630,cs),
(41,636,o),
(48,642,o),
(56,645,cs),
(77,651,o),
(81,669,o),
(87,685,cs),
(89,689,o),
(78,699,o),
(74,697,cs),
(71,696,o),
(67,701,o),
(64,699,cs),
(55,697,o),
(49,690,o),
(44,683,cs),
(35,672,o),
(26,664,o),
(15,655,cs),
(5,642,o),
(-2,635,o),
(-18,621,cs),
(-33,608,o),
(-46,594,o),
(-60,581,c)
);
}
);
width = 312;
}
);
unicode = 406;
},
{
glyphname = J;
lastChange = "2023-11-07 14:55:45 +0000";
layers = (
{
anchors = (
{
name = bottom;
pos = (230,0);
},
{
name = top;
pos = (230,700);
}
);
layerId = m01;
shapes = (
{
closed = 1;
nodes = (
(53,-2,o),
(452,-14,o),
(453,11,cs),
(453,83,o),
(453,38,o),
(453,110,c),
(445,152,o),
(455,270,o),
(461,315,c),
(454,324,o),
(452,334,o),
(452,344,cs),
(452,397,o),
(452,424,o),
(452,462,cs),
(452,473,o),
(454,483,o),
(461,493,cs),
(462,495,o),
(461,500,o),
(460,501,cs),
(437,524,o),
(453,643,o),
(453,674,c),
(454,707,o),
(427,698,o),
(400,697,cs),
(389,697,o),
(379,698,o),
(373,702,cs),
(365,707,o),
(358,710,o),
(351,702,c),
(307,699,o),
(296,700,o),
(285,704,cs),
(281,705,o),
(276,708,o),
(274,707,cs),
(256,693,o),
(170,700,o),
(154,701,c),
(146,712,o),
(84,708,o),
(74,708,cs),
(56,708,o),
(48,696,o),
(41,684,cs),
(40,682,o),
(44,670,o),
(46,669,c),
(54,668,o),
(390,669,o),
(402,668,cs),
(408,668,o),
(412,666,o),
(413,659,cs),
(413,651,o),
(410,642,o),
(417,635,c),
(418,633,o),
(413,558,o),
(413,555,c),
(425,539,o),
(423,521,o),
(413,504,cs),
(409,498,o),
(421,484,o),
(420,478,c),
(418,426,l),
(423,421,o),
(423,412,o),
(419,407,cs),
(413,399,o),
(413,392,o),
(413,383,cs),
(413,348,ls),
(413,344,o),
(411,339,o),
(413,336,cs),
(420,328,o),
(422,319,o),
(422,310,c),
(417,187,l),
(417,180,o),
(421,165,o),
(418,160,cs),
(413,154,o),
(412,146,o),
(412,139,cs),
(412,123,o),
(414,61,o),
(414,44,c),
(407,47,o),
(402,56,o),
(389,72,cs),
(374,88,o),
(354,100,o),
(344,121,cs),
(340,129,o),
(332,139,o),
(324,142,cs),
(310,147,o),
(301,158,o),
(292,168,cs),
(224,235,o),
(156,303,o),
(64,395,c),
(60,398,o),
(47,400,o),
(45,397,cs),
(42,394,o),
(40,390,o),
(40,386,c),
(40,30,o),
(47,14,o),
(50,5,cs)
);
},
{
closed = 1;
nodes = (
(280,27,o),
(159,32,o),
(87,32,cs),
(77,32,o),
(75,35,o),
(75,45,cs),
(75,140,o),
(70,237,o),
(71,331,cs),
(71,338,o),
(73,341,o),
(80,334,cs),
(111,303,o),
(114,294,o),
(139,269,cs),
(248,164,ls),
(266,146,o),
(289,131,o),
(305,112,cs),
(322,93,o),
(385,35,o),
(373,34,c),
(346,34,o),
(337,33,o),
(331,27,c)
);
},
{
closed = 1;
nodes = (
(263,404,o),
(274,410,o),
(285,417,c),
(296,428,o),
(296,447,o),
(279,463,cs),
(263,475,o),
(263,478,o),
(243,464,cs),
(223,451,o),
(216,435,o),
(226,417,cs),
(232,407,o),
(243,397,o),
(252,400,cs)
);
},
{
closed = 1;
nodes = (
(255,426,o),
(252,429,o),
(251,431,cs),
(248,436,o),
(250,440,o),
(254,444,cs),
(260,447,o),
(260,447,o),
(264,443,cs),
(268,439,o),
(268,434,o),
(265,431,c),
(263,429,o),
(260,428,o),
(257,427,cs)
);
}
);
width = 501;
}
);
unicode = 74;
},
{
glyphname = Jcrossedtail;
lastChange = "2023-11-11 16:33:22 +0000";
layers = (
{
layerId = m01;
shapes = (
{
ref = J;
},
{
closed = 1;
nodes = (
(531,-67,o),
(518,-53,o),
(503,-40,cs),
(487,-26,o),
(480,-19,o),
(470,-6,cs),
(459,3,o),
(450,11,o),
(441,22,cs),
(436,29,o),
(430,36,o),
(421,38,cs),
(418,40,o),
(414,35,o),
(411,36,cs),
(407,38,o),
(396,28,o),
(398,24,cs),
(404,8,o),
(408,-10,o),
(429,-16,cs),
(437,-19,o),
(444,-25,o),
(450,-31,cs),
(460,-43,o),
(473,-58,o),
(495,-76,cs),
(519,-94,o),
(539,-85,o),
(545,-80,c)
);
}
);
width = 495;
}
);
unicode = 42930;
},
{
glyphname = Jstroke;
lastChange = "2023-11-11 14:45:06 +0000";
layers = (
{
layerId = m01;
shapes = (
{
ref = J;
},
{
closed = 1;
nodes = (
(489,414,o),
(524,422,o),
(556,426,cs),
(567,428,o),
(567,439,o),
(556,440,cs),
(546,441,o),
(546,446,o),
(538,447,cs),
(527,448,o),
(516,449,o),
(504,449,cs),
(481,449,o),
(469,447,o),
(407,448,cs),
(388,448,o),
(349,448,o),
(314,448,c),
(314,439,o),
(327,424,o),
(353,418,c),
(357,418,o),
(405,417,o),
(416,417,cs)
);
}
);
width = 524;
}
);
unicode = 584;
},
{
glyphname = K;
lastChange = "2023-11-07 14:31:55 +0000";
layers = (
{
anchors = (
{
name = bottom;
pos = (244,0);
},
{
name = top;
pos = (244,700);
}
);
layerId = m01;
shapes = (
{
closed = 1;
nodes = (
(76,14,o),
(86,22,o),
(86,32,cs),
(86,37,o),
(83,42,o),
(78,47,c),
(68,87,o),
(85,138,o),
(85,146,cs),
(84,162,o),
(84,151,o),
(82,167,c),
(86,189,o),
(90,209,o),
(79,229,cs),
(75,236,o),
(76,244,o),
(82,250,cs),
(87,255,o),
(86,259,o),
(82,263,cs),
(78,267,o),
(75,271,o),
(79,276,cs),
(83,280,o),
(84,284,o),
(80,288,cs),
(77,293,o),
(88,298,o),
(80,304,cs),
(77,306,o),
(77,311,o),
(77,314,cs),
(77,324,o),
(81,323,o),
(86,319,c),
(143,269,o),
(161,257,o),
(172,242,cs),
(183,227,o),
(231,186,o),
(241,175,c),
(258,171,o),
(293,137,o),
(296,131,cs),
(305,111,o),
(326,102,o),
(340,86,c),
(362,79,o),
(375,56,o),
(427,10,cs),
(439,0,o),
(458,-4,o),
(458,11,cs),
(458,37,o),
(450,58,o),
(450,84,cs),
(450,90,o),
(452,96,o),
(456,108,cs),
(457,110,o),
(458,116,o),
(456,118,cs),
(449,124,o),
(450,131,o),
(450,139,cs),
(450,225,ls),
(450,229,o),
(449,234,o),
(451,237,cs),
(457,243,o),
(459,250,o),
(459,257,c),
(461,316,o),
(458,352,o),
(458,362,cs),
(458,380,o),
(459,463,o),
(459,469,cs),
(459,478,o),
(457,487,o),
(451,495,c),
(447,499,o),
(460,507,o),
(457,512,c),
(456,518,o),
(451,523,o),
(451,528,cs),
(451,543,o),
(466,549,o),
(457,560,cs),
(448,571,o),
(447,581,o),
(456,591,cs),
(457,592,o),
(454,594,o),
(453,596,cs),
(448,602,o),
(448,608,o),
(451,614,cs),
(462,629,o),
(463,647,o),
(452,662,c),
(450,668,o),
(464,681,o),
(454,689,cs),
(450,692,o),
(446,696,o),
(443,699,cs),
(439,703,o),
(415,691,o),
(408,685,cs),
(385,662,o),
(357,640,o),
(337,613,cs),
(331,603,o),
(235,518,o),
(223,513,cs),
(208,509,o),
(212,493,o),
(199,489,cs),
(193,487,o),
(186,484,o),
(182,479,c),
(176,475,o),
(174,467,o),
(168,462,cs),
(93,395,ls),
(89,391,o),
(87,395,o),
(85,399,c),
(85,516,o),
(86,527,o),
(82,533,cs),
(74,543,o),
(89,547,o),
(86,557,cs),
(79,575,o),
(91,586,o),
(78,600,c),
(77,611,o),
(74,619,o),
(83,628,cs),
(85,630,o),
(85,636,o),
(83,638,cs),
(77,645,o),
(86,663,o),
(86,669,cs),
(86,679,o),
(79,689,o),
(73,698,cs),
(69,705,o),
(51,692,o),
(49,686,cs),
(47,678,o),
(48,669,o),
(48,344,cs),
(48,339,o),
(47,317,o),
(41,311,cs),
(40,311,o),
(42,304,o),
(44,303,cs),
(49,296,o),
(49,291,o),
(44,286,cs),
(40,281,o),
(38,277,o),
(43,272,cs),
(47,269,o),
(48,264,o),
(48,259,cs),
(48,156,o),
(47,147,o),
(47,139,c),
(36,134,o),
(50,126,o),
(44,120,cs),
(37,113,o),
(52,110,o),
(48,104,cs),
(41,97,o),
(40,88,o),
(40,79,cs),
(40,65,o),
(49,21,o),
(52,7,cs),
(54,0,o),
(67,-2,o),
(71,5,cs)
);
},
{
closed = 1;
nodes = (
(406,77,o),
(365,117,o),
(339,139,cs),
(309,165,o),
(309,145,o),
(293,181,cs),
(290,191,o),
(274,187,o),
(271,199,cs),
(271,207,o),
(250,216,o),
(112,338,cs),
(107,343,o),
(101,348,o),
(96,353,cs),
(94,355,o),
(94,361,o),
(96,363,cs),
(107,370,o),
(114,383,o),
(130,387,cs),
(138,390,o),
(147,398,o),
(150,408,cs),
(152,412,o),
(330,568,o),
(411,639,c),
(415,642,o),
(418,642,o),
(418,635,c),
(418,505,o),
(422,411,o),
(422,342,cs),
(422,170,o),
(419,160,o),
(419,156,cs),
(419,148,o),
(418,141,o),
(411,136,c),
(420,127,o),
(418,90,o),
(416,77,c)
);
},
{
closed = 1;
nodes = (
(325,317,o),
(333,340,o),
(333,349,cs),
(333,365,o),
(318,378,o),
(293,378,cs),
(280,380,o),
(272,374,o),
(264,364,cs),
(259,357,o),
(259,348,o),
(264,341,cs),
(274,331,o),
(287,317,o),
(301,317,cs)
);
},
{
closed = 1;
nodes = (
(294,339,o),
(290,342,o),
(288,346,cs),
(287,347,o),
(287,349,o),
(288,352,cs),
(290,354,o),
(292,356,o),
(295,355,cs),
(302,355,o),
(305,352,o),
(305,348,cs),
(305,346,o),
(304,339,o),
(298,339,cs)
);
}
);
width = 500;
}
);
unicode = 75;
},
{
glyphname = Khook;
lastChange = "2023-11-11 16:24:06 +0000";
layers = (
{
anchors = (
{
name = bottom;
pos = (244,0);
},
{
name = top;
pos = (244,700);
}
);
layerId = m01;
shapes = (
{
closed = 1;
nodes = (
(434,656,o),
(461,674,o),
(454,689,cs),
(452,693,o),
(446,696,o),
(443,699,cs),
(439,703,o),
(415,691,o),
(408,685,cs),
(385,662,o),
(357,640,o),
(337,613,cs),
(331,603,o),
(235,518,o),
(223,513,cs),
(208,509,o),
(212,493,o),
(199,489,cs),
(193,487,o),
(186,484,o),
(182,479,c),
(176,475,o),
(174,467,o),
(168,462,cs),
(93,395,ls),
(89,391,o),
(87,395,o),
(85,399,c),
(85,516,o),
(86,527,o),
(82,533,cs),
(74,543,o),
(89,547,o),
(86,557,cs),
(79,575,o),
(91,586,o),
(78,600,c),
(77,611,o),
(74,619,o),
(83,628,cs),
(85,630,o),
(85,636,o),
(83,638,cs),
(77,645,o),
(86,663,o),
(86,669,cs),
(86,679,o),
(79,689,o),
(73,698,cs),
(69,705,o),
(51,692,o),
(49,686,cs),
(47,678,o),
(48,669,o),
(48,344,cs),
(48,339,o),
(47,317,o),
(41,311,cs),
(40,311,o),
(42,304,o),
(44,303,cs),
(49,296,o),
(49,291,o),
(44,286,cs),
(40,281,o),
(38,277,o),
(43,272,cs),
(47,269,o),
(48,264,o),
(48,259,cs),
(48,156,o),
(47,147,o),
(47,139,c),
(36,134,o),
(50,126,o),
(44,120,cs),
(37,113,o),
(52,110,o),
(48,104,cs),
(41,97,o),
(40,88,o),
(40,79,cs),
(40,65,o),
(49,21,o),
(52,7,cs),
(54,0,o),
(67,-2,o),
(71,5,cs),
(76,14,o),
(86,22,o),
(86,32,cs),
(86,37,o),
(83,42,o),
(78,47,c),
(68,87,o),
(85,138,o),
(85,146,cs),
(84,162,o),
(84,151,o),
(82,167,c),
(86,189,o),
(90,209,o),
(79,229,cs),
(75,236,o),
(76,244,o),
(82,250,cs),
(87,255,o),
(86,259,o),
(82,263,cs),
(78,267,o),
(75,271,o),
(79,276,cs),
(83,280,o),
(84,284,o),
(80,288,cs),
(77,293,o),
(88,298,o),
(80,304,cs),
(77,306,o),
(77,311,o),
(77,314,cs),
(77,324,o),
(81,323,o),
(86,319,c),
(143,269,o),
(161,257,o),
(172,242,cs),
(183,227,o),
(231,186,o),
(241,175,c),
(258,171,o),
(293,137,o),
(296,131,cs),
(305,111,o),
(326,102,o),
(340,86,c),
(362,79,o),
(375,56,o),
(427,10,cs),
(439,0,o),
(458,-4,o),
(458,11,c),
(437,42,o),
(385,89,o),
(339,139,cs),
(312,169,o),
(309,145,o),
(293,181,cs),
(290,191,o),
(274,187,o),
(271,199,cs),
(271,207,o),
(250,216,o),
(112,338,cs),
(107,343,o),
(101,348,o),
(96,353,cs),
(94,355,o),
(94,361,o),
(96,363,cs),
(107,370,o),
(114,383,o),
(130,387,cs),
(138,390,o),
(147,398,o),
(150,408,cs),
(152,412,o),
(330,568,o),
(411,639,c)
);
},
{
closed = 1;
nodes = (
(325,317,o),
(333,340,o),
(333,349,cs),
(333,365,o),
(318,378,o),
(293,378,cs),
(280,380,o),
(272,374,o),
(264,364,cs),
(259,357,o),
(259,348,o),
(264,341,cs),
(274,331,o),
(287,317,o),
(301,317,cs)
);
},
{
closed = 1;
nodes = (
(294,339,o),
(290,342,o),
(288,346,cs),
(287,347,o),
(287,349,o),
(288,352,cs),
(290,354,o),
(292,356,o),
(295,355,cs),
(302,355,o),
(305,352,o),
(305,348,cs),
(305,346,o),
(304,339,o),
(298,339,cs)
);
},
{
closed = 1;
nodes = (
(410,698,o),
(418,671,o),
(464,669,cs),
(471,669,o),
(460,670,o),
(512,668,c),
(519,667,o),
(525,674,o),
(533,670,c),
(550,680,o),
(547,687,o),
(533,694,c),
(517,704,o),
(486,699,o),
(479,699,cs),
(448,700,o),
(452,700,o),
(447,700,cs)
);
}
);
width = 485;
}
);
unicode = 408;
},
{
glyphname = L;
lastChange = "2023-11-07 14:29:43 +0000";
layers = (
{
anchors = (
{
name = bottom;
pos = (221,0);
},
{
name = center;
pos = (67,350);
},
{
name = top;
pos = (67,691);
},
{
name = topright;
pos = (139,800);
}
);
layerId = m01;
shapes = (
{
closed = 1;
nodes = (
(448,1,ls),
(465,1,o),
(464,1,o),
(472,19,cs),
(477,30,o),
(480,42,o),
(473,52,cs),
(466,63,o),
(466,76,o),
(472,88,cs),
(477,95,o),
(475,112,o),
(476,118,c),
(478,122,o),
(478,127,o),
(476,131,cs),
(465,151,o),
(468,175,o),
(468,190,cs),
(469,201,o),
(458,227,o),
(451,220,cs),
(439,208,o),
(444,212,o),
(431,208,cs),
(416,202,o),
(402,197,o),
(395,183,cs),
(387,167,o),
(373,155,o),
(356,151,cs),
(346,148,o),
(348,139,o),
(343,136,cs),
(329,128,o),
(316,130,o),
(308,116,cs),
(294,89,o),
(269,73,o),
(245,54,cs),
(238,49,o),
(233,43,o),
(231,36,c),
(170,36,ls),
(158,36,o),
(139,33,o),
(127,37,cs),
(115,41,o),
(103,45,o),
(90,45,c),
(86,46,o),
(83,49,o),
(83,55,cs),
(83,680,l),
(65,708,o),
(48,703,o),
(48,682,c),
(48,213,l),
(48,207,o),
(49,202,o),
(49,196,cs),
(49,187,o),
(47,179,o),
(40,172,c),
(47,161,o),
(49,150,o),
(49,139,cs),
(49,127,o),
(48,42,o),
(48,30,cs),
(48,20,o),
(57,11,o),
(67,10,cs),
(77,9,o),
(87,11,o),
(96,3,cs),
(98,1,o),
(104,3,o),
(107,5,cs),
(130,21,o),
(151,1,o),
(177,1,cs)
);
},
{
closed = 1;
nodes = (
(304,59,o),
(411,161,o),
(437,170,c),
(440,167,o),
(447,54,o),
(437,34,c),
(418,34,o),
(393,33,o),
(273,33,c)
);
}
);
width = 487;
}
);
unicode = 76;
},
{
glyphname = Lbelt;
lastChange = "2023-11-19 05:06:00 +0000";
layers = (
{
layerId = m01;
shapes = (
{
pos = (57,0);
ref = L;
},
{
closed = 1;
nodes = (
(51,348,o),
(48,348,o),
(45,349,cs),
(36,352,o),
(36,352,o),
(36,361,cs),
(36,428,ls),
(36,453,o),
(90,375,o),
(114,352,c),
(112,349,o),
(110,349,o),
(109,349,cs),
(87,348,o),
(82,348,o),
(80,346,c),
(70,341,o),
(61,341,o),
(53,346,c)
);
},
{
closed = 1;
nodes = (
(-2,329,o),
(2,323,o),
(8,323,cs),
(45,322,o),
(113,321,o),
(145,322,cs),
(163,321,o),
(175,316,o),
(187,318,cs),
(195,320,o),
(204,322,o),
(213,325,cs),
(218,326,o),
(234,327,o),
(239,327,cs),
(247,327,o),
(255,326,o),
(263,326,cs),
(305,330,o),
(293,354,o),
(255,350,c),
(245,350,o),
(234,352,o),
(214,356,c),
(208,356,o),
(202,355,o),
(195,350,c),
(194,348,o),
(190,350,o),
(188,350,c),
(177,354,o),
(166,350,o),
(157,348,c),
(155,350,ls),
(151,354,o),
(144,356,o),
(139,360,c),
(134,366,o),
(132,374,o),
(126,379,cs),
(98,405,o),
(77,438,o),
(49,466,cs),
(42,473,ls),
(38,477,o),
(34,480,o),
(33,486,c),
(29,490,o),
(26,500,o),
(16,500,c),
(10,491,o),
(9,465,o),
(7,454,c),
(8,445,o),
(8,415,o),
(8,410,cs),
(8,400,o),
(7,392,o),
(7,383,cs),
(7,367,ls),
(7,356,o),
(7,345,o),
(1,335,cs)
);
}
);
width = 544;
}
);
unicode = 42925;
},
{
glyphname = Ldoublebar;
lastChange = "2023-11-11 14:55:26 +0000";
layers = (
{
layerId = m01;
shapes = (
{
pos = (25,0);
ref = L;
},
{
closed = 1;
nodes = (
(4,442,l),
(10,451,o),
(18,448,o),
(27,449,cs),
(85,451,o),
(42,451,o),
(49,450,cs),
(56,450,o),
(63,449,o),
(68,443,c),
(69,441,o),
(77,444,o),
(79,446,cs),
(86,454,o),
(115,456,o),
(123,452,cs),
(134,447,o),
(142,445,o),
(152,452,c),
(159,447,o),
(166,445,o),
(175,446,c),
(213,455,o),
(268,478,o),
(212,486,c),
(204,485,o),
(158,479,o),
(150,479,cs),
(120,480,o),
(79,475,o),
(71,482,cs),
(66,485,o),
(55,485,o),
(52,481,cs),
(40,474,o),
(-2,477,o),
(-15,476,c),
(-45,472,o),
(-20,448,o),
(-19,448,cs)
);
},
{
closed = 1;
nodes = (
(76,342,o),
(75,344,o),
(115,349,cs),
(129,351,o),
(171,348,o),
(178,348,cs),
(197,348,o),
(215,354,o),
(234,358,cs),
(240,359,o),
(240,371,o),
(234,372,cs),
(228,372,o),
(228,378,o),
(223,379,cs),
(217,380,o),
(211,381,o),
(204,381,cs),
(191,381,o),
(175,380,o),
(162,380,cs),
(149,380,o),
(135,379,o),
(121,379,cs),
(86,377,o),
(70,374,o),
(35,376,cs),
(24,377,o),
(-4,376,o),
(-24,376,c),
(-24,367,o),
(-17,352,o),
(-2,346,c),
(1,345,o),
(28,344,o),
(34,344,cs)
);
}
);
width = 513;
}
);
unicode = 11360;
},
{
glyphname = Lslash;
lastChange = "2023-11-03 10:39:56 +0000";
layers = (
{
layerId = m01;
shapes = (
{
closed = 1;
nodes = (
(46,358,o),
(65,365,o),
(71,368,cs),
(114,384,o),
(131,392,o),
(170,412,cs),
(184,419,o),
(197,424,o),
(213,426,cs),
(221,427,o),
(230,430,o),
(237,433,cs),
(256,442,o),
(272,456,o),
(288,469,cs),
(293,474,o),
(287,488,o),
(280,486,cs),
(274,484,o),
(271,491,o),
(266,490,cs),
(259,488,o),
(253,486,o),
(245,483,cs),
(232,477,o),
(217,469,o),
(204,463,cs),
(191,457,o),
(177,451,o),
(163,444,cs),
(129,426,o),
(124,425,o),
(88,411,cs),
(77,406,o),
(17,378,o),
(-3,369,c),
(2,358,o),
(9,350,o),
(43,357,c)
);
},
{
ref = L;
}
);
width = 542;
}
);
unicode = 321;
},
{
glyphname = M;
lastChange = "2023-11-07 15:06:03 +0000";
layers = (
{
anchors = (
{
name = bottom;
pos = (325,0);
},
{
name = top;
pos = (325,700);
}
);
layerId = m01;
shapes = (
{
closed = 1;
nodes = (
(598,2,o),
(612,3,o),
(626,3,c),
(630,10,o),
(631,17,o),
(631,24,cs),
(631,30,o),
(630,37,o),
(629,300,c),
(629,313,o),
(641,324,o),
(636,329,cs),
(626,339,o),
(626,489,o),
(635,500,cs),
(637,503,o),
(638,508,o),
(638,512,cs),
(638,568,o),
(638,627,o),
(639,683,cs),
(639,696,o),
(627,693,o),
(622,698,cs),
(616,704,o),
(612,699,o),
(609,695,cs),
(591,670,o),
(528,564,o),
(505,545,c),
(502,528,o),
(485,522,o),
(479,509,cs),
(458,468,o),
(424,437,o),
(405,398,c),
(389,382,o),
(387,357,o),
(369,343,c),
(367,325,o),
(344,321,o),
(342,302,cs),
(342,296,o),
(328,304,o),
(328,310,cs),
(327,325,o),
(313,329,o),
(309,342,cs),
(305,353,o),
(297,363,o),
(290,373,cs),
(263,411,o),
(242,451,o),
(210,485,c),
(209,500,o),
(191,505,o),
(190,520,c),
(179,529,o),
(172,542,o),
(168,555,cs),
(162,569,o),
(149,575,o),
(142,587,c),
(125,630,o),
(93,657,o),
(70,691,cs),
(68,695,o),
(64,697,o),
(61,699,cs),
(59,701,o),
(55,700,o),
(53,699,cs),
(49,696,o),
(42,691,o),
(42,687,cs),
(40,670,o),
(38,650,o),
(44,634,cs),
(46,629,o),
(49,624,o),
(49,618,cs),
(48,610,o),
(50,599,o),
(46,594,cs),
(37,584,o),
(52,579,o),
(48,572,cs),
(44,565,o),
(41,559,o),
(48,551,cs),
(51,548,o),
(49,540,o),
(49,535,cs),
(49,476,o),
(49,301,o),
(49,271,cs),
(49,261,o),
(40,244,o),
(40,234,cs),
(40,225,o),
(49,217,o),
(49,207,cs),
(49,207,o),
(49,206,o),
(49,205,cs),
(48,198,o),
(47,192,o),
(43,185,cs),
(38,178,o),
(39,169,o),
(45,162,cs),
(48,159,o),
(48,158,o),
(45,155,cs),
(42,152,o),
(42,149,o),
(45,145,cs),
(51,139,o),
(40,137,o),
(40,132,cs),
(40,101,ls),
(40,96,o),
(50,94,o),
(45,87,cs),
(41,82,o),
(40,24,o),
(41,17,cs),
(41,12,o),
(47,8,o),
(51,4,cs),
(59,-3,o),
(64,7,o),
(74,7,c),
(92,-4,o),
(112,2,o),
(130,2,cs),
(133,2,o),
(136,2,o),
(138,2,cs),
(144,2,o),
(151,9,o),
(156,7,cs),
(164,4,o),
(217,2,o),
(226,2,cs),
(230,2,o),
(235,8,o),
(239,12,cs),
(248,21,o),
(234,33,o),
(225,35,cs),
(217,36,o),
(180,36,o),
(171,37,c),
(165,50,o),
(153,30,o),
(147,42,c),
(130,44,o),
(104,48,o),
(86,37,cs),
(81,33,o),
(74,38,o),
(74,43,cs),
(74,234,ls),
(74,242,o),
(73,250,o),
(79,258,cs),
(85,266,o),
(76,294,o),
(77,296,c),
(85,304,o),
(82,314,o),
(82,324,cs),
(82,507,ls),
(82,517,o),
(82,525,o),
(77,535,cs),
(70,547,o),
(74,576,o),
(79,591,cs),
(80,594,o),
(82,596,o),
(79,598,c),
(73,604,o),
(74,611,o),
(74,626,cs),
(74,633,o),
(81,630,o),
(82,628,cs),
(113,588,o),
(89,610,o),
(118,569,cs),
(124,560,o),
(136,553,o),
(140,544,cs),
(146,529,o),
(157,519,o),
(164,506,cs),
(170,493,o),
(183,482,o),
(190,469,cs),
(197,454,o),
(268,358,o),
(279,339,cs),
(291,321,o),
(303,303,o),
(313,283,cs),
(316,277,o),
(320,271,o),
(317,268,cs),
(300,255,o),
(295,234,o),
(284,216,cs),
(271,194,o),
(247,179,o),
(241,152,c),
(241,149,o),
(219,137,o),
(218,131,cs),
(215,119,o),
(229,121,o),
(235,117,cs),
(244,110,o),
(256,110,o),
(266,116,cs),
(277,123,o),
(291,122,o),
(301,117,cs),
(305,115,o),
(309,113,o),
(313,113,cs),
(426,113,ls),
(437,113,o),
(448,126,o),
(442,136,cs),
(427,162,o),
(411,188,o),
(392,210,cs),
(379,225,o),
(370,246,o),
(359,262,c),
(355,270,o),
(356,278,o),
(363,285,cs),
(370,292,o),
(430,384,o),
(487,466,cs),
(531,531,o),
(575,589,o),
(578,595,cs),
(582,604,o),
(588,611,o),
(595,619,c),
(600,626,o),
(604,628,o),
(604,616,cs),
(604,315,l),
(603,303,l),
(596,294,o),
(598,285,o),
(598,275,cs),
(598,160,ls),
(598,150,o),
(595,141,o),
(603,132,cs),
(605,130,o),
(604,52,o),
(604,44,cs),
(604,41,o),
(600,36,o),
(597,36,cs),
(590,35,o),
(583,35,o),
(576,35,cs),
(471,35,ls),
(455,35,o),
(443,26,o),
(428,23,cs),
(425,22,o),
(421,16,o),
(421,14,cs),
(421,7,o),
(434,2,o),
(441,2,cs),
(489,1,o),
(536,1,o),
(584,1,cs)
);
},
{
closed = 1;
nodes = (
(352,146,o),
(313,146,o),
(282,147,cs),
(281,147,o),
(279,151,o),
(279,152,c),
(294,182,o),
(308,215,o),
(333,237,cs),
(339,243,o),
(341,240,o),
(343,233,cs),
(346,220,o),
(371,202,o),
(394,156,c),
(402,148,o),
(396,146,o),
(383,146,cs)
);
},
{
closed = 1;
nodes = (
(364,480,o),
(372,503,o),
(372,512,cs),
(372,528,o),
(357,541,o),
(332,541,cs),
(319,543,o),
(311,537,o),
(303,527,cs),
(298,520,o),
(298,511,o),
(303,504,cs),
(313,494,o),
(326,480,o),
(340,480,cs)
);
},
{
closed = 1;
nodes = (
(333,502,o),
(329,505,o),
(327,509,cs),
(326,510,o),
(326,512,o),
(327,515,cs),
(329,517,o),
(331,519,o),
(334,518,cs),
(341,518,o),
(344,515,o),
(344,511,cs),
(344,509,o),
(343,502,o),
(337,502,cs)
);
}
);
width = 679;
}
);
unicode = 77;
},
{
glyphname = N;
lastChange = "2023-11-18 17:58:13 +0000";
layers = (
{
anchors = (
{
name = bottom;
pos = (232,0);
},
{
name = top;
pos = (232,700);
}
);
layerId = m01;
shapes = (
{
closed = 1;
nodes = (
(339,-9,o),
(344,5,o),
(351,4,cs),
(355,4,o),
(360,5,o),
(363,3,cs),
(371,-3,o),
(379,0,o),
(416,1,c),
(424,1,o),
(440,14,o),
(442,22,c),
(442,24,o),
(441,28,o),
(440,29,cs),
(435,34,o),
(434,40,o),
(434,46,cs),
(434,90,o),
(433,189,o),
(436,192,cs),
(442,198,o),
(443,205,o),
(443,211,c),
(443,375,ls),
(443,385,o),
(443,393,o),
(449,403,cs),
(454,411,o),
(454,422,o),
(446,431,cs),
(444,433,o),
(445,437,o),
(445,441,cs),
(445,442,o),
(446,468,o),
(445,468,c),
(441,474,o),
(441,480,o),
(445,486,cs),
(448,490,o),
(449,493,o),
(446,498,cs),
(443,505,o),
(443,513,o),
(443,520,cs),
(443,668,ls),
(443,677,o),
(443,686,o),
(442,694,cs),
(441,700,o),
(435,701,o),
(429,701,cs),
(424,701,o),
(418,699,o),
(418,693,cs),
(417,685,o),
(417,676,o),
(417,667,cs),
(417,661,o),
(417,651,o),
(418,644,c),
(418,633,o),
(410,621,o),
(408,610,c),
(408,601,o),
(419,589,o),
(417,580,cs),
(415,564,o),
(418,562,o),
(418,546,cs),
(418,538,o),
(416,529,o),
(410,522,cs),
(408,520,o),
(409,516,o),
(411,515,cs),
(415,510,o),
(418,505,o),
(417,498,c),
(417,411,l),
(407,404,o),
(420,388,o),
(415,378,c),
(405,373,o),
(420,367,o),
(413,360,cs),
(406,354,o),
(409,346,o),
(409,339,c),
(409,197,o),
(408,171,o),
(403,164,cs),
(402,163,o),
(412,139,o),
(406,130,cs),
(400,121,o),
(408,88,o),
(408,66,cs),
(408,52,o),
(414,46,o),
(400,34,cs),
(396,29,o),
(393,34,o),
(390,36,cs),
(384,39,o),
(380,37,o),
(375,34,cs),
(368,29,o),
(359,25,o),
(352,30,cs),
(346,33,o),
(340,31,o),
(332,31,cs),
(270,31,ls),
(260,31,o),
(258,34,o),
(258,43,cs),
(258,347,ls),
(258,353,o),
(261,359,o),
(264,364,cs),
(266,367,o),
(257,373,o),
(264,379,cs),
(267,382,o),
(268,390,o),
(266,393,cs),
(259,404,o),
(258,415,o),
(259,463,c),
(265,468,o),
(266,475,o),
(266,483,cs),
(266,544,o),
(266,606,o),
(267,667,cs),
(267,676,o),
(262,683,o),
(258,691,cs),
(256,697,o),
(253,699,o),
(247,699,cs),
(235,701,o),
(215,699,o),
(207,699,cs),
(196,699,o),
(185,700,o),
(174,706,cs),
(170,708,o),
(163,706,o),
(158,704,cs),
(141,698,o),
(123,697,o),
(106,704,cs),
(99,706,o),
(93,706,o),
(86,706,cs),
(73,706,o),
(61,702,o),
(49,696,cs),
(45,693,o),
(41,688,o),
(41,683,c),
(40,678,o),
(40,513,o),
(40,349,cs),
(40,216,o),
(41,83,o),
(41,38,cs),
(41,30,o),
(41,15,o),
(42,7,cs),
(42,5,o),
(47,3,o),
(50,1,c),
(73,1,o),
(74,3,o),
(75,15,cs),
(75,23,o),
(66,31,o),
(69,36,cs),
(73,44,o),
(75,53,o),
(75,61,cs),
(73,101,o),
(73,54,o),
(74,113,c),
(76,121,o),
(69,127,o),
(67,133,cs),
(66,140,o),
(72,147,o),
(74,154,c),
(77,157,o),
(68,165,o),
(68,170,cs),
(68,175,o),
(73,179,o),
(74,184,c),
(74,191,o),
(76,198,o),
(69,205,cs),
(64,211,o),
(65,219,o),
(70,226,cs),
(77,235,o),
(77,247,o),
(70,256,cs),
(65,263,o),
(64,271,o),
(69,278,cs),
(74,283,o),
(76,289,o),
(70,294,cs),
(63,299,o),
(65,317,o),
(67,319,cs),
(76,328,o),
(74,343,o),
(74,350,cs),
(74,670,l),
(75,673,o),
(76,677,o),
(82,673,c),
(87,671,o),
(156,670,o),
(166,677,c),
(221,677,ls),
(231,677,o),
(233,675,o),
(233,666,c),
(233,541,o),
(234,506,o),
(231,501,cs),
(230,499,o),
(230,496,o),
(230,494,cs),
(230,492,o),
(236,459,o),
(228,450,cs),
(227,448,o),
(228,445,o),
(229,444,cs),
(235,433,o),
(236,424,o),
(228,412,cs),
(224,407,o),
(232,405,o),
(233,400,cs),
(234,393,o),
(222,390,o),
(230,381,cs),
(235,376,o),
(232,367,o),
(233,359,cs),
(233,357,o),
(234,353,o),
(233,351,c),
(226,344,o),
(224,335,o),
(224,326,cs),
(224,319,o),
(225,312,o),
(225,305,cs),
(225,40,o),
(224,33,o),
(225,28,cs),
(228,20,o),
(231,12,o),
(236,4,cs),
(240,-2,o),
(249,-1,o),
(306,1,cs),
(314,1,o),
(325,3,o),
(330,-1,cs)
);
}
);
width = 492;
}
);
unicode = 78;
},
{
glyphname = Nhookleft;
lastChange = "2023-11-11 14:45:44 +0000";
layers = (
{
layerId = m01;
shapes = (
{
pos = (69,0);
ref = N;
},
{
closed = 1;
nodes = (
(142,24,o),
(116,22,o),
(116,14,c),
(103,-1,o),
(127,-87,o),
(81,-85,cs),
(74,-85,o),
(55,-86,o),
(48,-84,cs),
(35,-81,o),
(42,-89,o),
(3,-84,cs),
(-4,-83,o),
(-10,-90,o),
(-18,-86,c),
(-35,-96,o),
(-32,-103,o),
(-18,-110,c),
(-2,-120,o),
(9,-123,o),
(27,-116,cs),
(32,-114,o),
(59,-115,o),
(66,-115,cs),
(97,-116,o),
(93,-116,o),
(98,-116,cs),
(135,-114,o),
(139,-89,o),
(142,-56,cs),
(143,-43,o),
(136,-27,o),
(142,-18,cs),
(145,-13,o),
(141,4,o),
(142,8,c)
);
}
);
width = 561;
}
);
unicode = 413;
},
{
glyphname = Nlongrightleg;
lastChange = "2023-11-11 16:37:43 +0000";
layers = (
{
layerId = m01;
shapes = (
{
closed = 1;
nodes = (
(62,4,o),
(73,11,o),
(74,18,c),
(71,55,o),
(74,505,o),
(74,578,cs),
(74,592,o),
(76,592,o),
(99,592,cs),
(389,592,ls),
(426,592,o),
(428,590,o),
(428,558,c),
(428,479,o),
(428,336,o),
(428,206,cs),
(428,193,o),
(423,180,o),
(428,168,cs),
(437,145,o),
(416,124,o),
(428,101,cs),
(428,101,o),
(422,55,o),
(428,26,cs),
(440,-30,o),
(428,-69,o),
(429,-72,cs),
(430,-81,o),
(416,-90,o),
(428,-99,cs),
(429,-100,o),
(427,-104,o),
(426,-106,cs),
(414,-128,o),
(421,-148,o),
(422,-173,cs),
(422,-192,o),
(455,-198,o),
(455,-172,cs),
(455,-162,o),
(463,-129,o),
(462,-69,c),
(462,-29,l),
(462,33,o),
(464,549,o),
(464,610,c),
(462,619,o),
(452,630,o),
(408,625,cs),
(403,624,o),
(397,623,o),
(391,623,cs),
(93,623,ls),
(89,623,o),
(84,624,o),
(81,625,cs),
(76,630,o),
(77,634,o),
(79,639,cs),
(82,645,o),
(84,658,o),
(84,671,cs),
(84,684,o),
(65,705,o),
(57,698,c),
(41,682,o),
(40,677,o),
(42,675,cs),
(50,667,o),
(48,658,o),
(48,649,c),
(45,641,o),
(43,595,o),
(42,484,cs),
(42,481,o),
(38,432,o),
(42,429,cs),
(47,426,o),
(41,414,o),
(41,409,cs),
(41,393,o),
(48,383,o),
(41,365,cs),
(35,350,o),
(41,335,o),
(41,320,cs),
(41,308,o),
(46,295,o),
(41,283,cs),
(35,269,o),
(41,255,o),
(41,241,cs),
(40,140,o),
(40,51,o),
(40,11,cs),
(40,6,o),
(45,3,o),
(52,3,cs)
);
},
{
closed = 1;
nodes = (
(269,292,o),
(277,298,o),
(285,308,cs),
(290,315,o),
(290,324,o),
(285,331,cs),
(275,341,o),
(262,355,o),
(248,355,cs),
(224,355,o),
(216,332,o),
(216,323,cs),
(216,307,o),
(231,294,o),
(256,294,cs)
);
},
{
closed = 1;
nodes = (
(247,317,o),
(244,320,o),
(244,324,cs),
(244,326,o),
(245,333,o),
(251,333,cs),
(255,333,o),
(259,330,o),
(261,326,cs),
(262,325,o),
(262,323,o),
(261,320,cs),
(259,318,o),
(257,316,o),
(254,317,cs)
);
}
);
width = 504;
}
);
unicode = 544;
},
{
glyphname = Eng;
lastChange = "2023-11-03 10:39:56 +0000";
layers = (
{
layerId = m01;
shapes = (
{
closed = 1;
nodes = (
(417,-122,o),
(442,-119,o),
(443,-118,cs),
(457,-115,o),
(470,-101,o),
(470,-94,c),
(468,-62,o),
(476,-36,o),
(475,-29,cs),
(472,-10,o),
(462,22,o),
(457,25,cs),
(446,31,o),
(439,32,o),
(438,31,cs),
(438,18,o),
(436,16,o),
(438,6,cs),
(445,-19,o),
(437,-24,o),
(438,-47,cs),
(439,-56,o),
(437,-70,o),
(433,-80,cs),
(431,-88,o),
(402,-96,o),
(390,-92,cs),
(361,-83,o),
(344,-83,o),
(336,-85,cs),
(315,-89,o),
(330,-117,o),
(337,-120,cs),
(344,-123,o),
(387,-126,o),
(406,-124,cs)
);
},
{
ref = N;
}
);
width = 552;
}
);
unicode = 330;
},
{
glyphname = O;
lastChange = "2023-11-07 18:31:17 +0000";
layers = (
{
anchors = (
{
name = bottom;
pos = (238,9);
},
{
name = center;
pos = (238,350);
},
{
name = ogonek;
pos = (487,58);
},
{
name = top;
pos = (248,700);
},
{
name = topleft;
pos = (38,701);
},
{
name = topright;
pos = (362,994);
}
);
layerId = m01;
shapes = (
{
closed = 1;
nodes = (
(414,-6,ls),
(422,-6,o),
(432,1,o),
(439,7,cs),
(442,9,o),
(442,17,o),
(442,22,cs),
(442,163,o),
(443,220,o),
(443,379,cs),
(443,389,o),
(444,400,o),
(450,409,c),
(452,411,o),
(443,420,o),
(445,423,c),
(447,429,o),
(451,434,o),
(451,442,cs),
(451,581,ls),
(451,587,o),
(450,592,o),
(446,597,cs),
(440,604,o),
(451,606,o),
(451,611,cs),
(451,646,ls),
(451,658,o),
(450,670,o),
(450,682,cs),
(450,688,o),
(442,695,o),
(436,698,cs),
(432,700,o),
(425,698,o),
(420,698,cs),
(78,698,ls),
(72,698,o),
(66,699,o),
(61,698,cs),
(55,698,o),
(45,686,o),
(45,679,cs),
(45,629,ls),
(45,619,o),
(46,609,o),
(45,600,c),
(34,592,o),
(45,586,o),
(45,578,cs),
(45,477,ls),
(45,472,o),
(38,465,o),
(40,463,cs),
(45,457,o),
(45,450,o),
(45,444,c),
(45,25,ls),
(45,12,o),
(54,3,o),
(66,3,c),
(160,3,o),
(171,4,o),
(179,0,cs),
(190,-7,o),
(195,3,o),
(205,3,cs),
(310,3,o),
(320,0,o),
(327,3,cs),
(337,6,o),
(343,-11,o),
(353,3,c),
(362,-3,o),
(372,-6,o),
(382,-6,cs)
);
},
{
closed = 1;
nodes = (
(266,317,o),
(274,340,o),
(274,349,cs),
(274,365,o),
(259,378,o),
(234,378,cs),
(221,380,o),
(213,374,o),
(205,364,cs),
(200,357,o),
(200,348,o),
(205,341,cs),
(215,331,o),
(228,317,o),
(242,317,cs)
);
},
{
closed = 1;
nodes = (
(235,339,o),
(231,342,o),
(229,346,cs),
(228,347,o),
(228,349,o),
(229,352,cs),
(231,354,o),
(233,356,o),
(236,355,cs),
(243,355,o),
(246,352,o),
(246,348,cs),
(246,346,o),
(245,339,o),
(239,339,cs)
);
},
{
closed = 1;
nodes = (
(179,36,o),
(170,37,o),
(161,37,cs),
(78,37,ls),
(73,37,o),
(68,45,o),
(72,49,cs),
(78,57,o),
(79,64,o),
(79,73,cs),
(79,120,ls),
(79,128,o),
(78,136,o),
(72,143,c),
(71,145,o),
(72,151,o),
(74,154,cs),
(83,167,o),
(83,180,o),
(76,194,cs),
(72,205,o),
(71,212,o),
(78,220,c),
(80,221,o),
(79,226,o),
(78,228,c),
(72,234,o),
(71,240,o),
(71,247,cs),
(71,269,o),
(70,279,o),
(78,287,c),
(79,289,o),
(78,296,o),
(76,298,cs),
(70,304,o),
(72,311,o),
(70,318,cs),
(68,328,o),
(84,337,o),
(71,347,c),
(71,647,l),
(72,654,o),
(82,663,o),
(89,663,cs),
(401,663,ls),
(417,663,o),
(417,663,o),
(417,646,cs),
(417,490,ls),
(417,481,o),
(417,474,o),
(412,466,cs),
(406,458,o),
(407,447,o),
(412,438,cs),
(415,432,o),
(416,429,o),
(412,424,cs),
(410,422,o),
(407,415,o),
(409,413,cs),
(415,405,o),
(419,399,o),
(412,390,cs),
(409,387,o),
(406,378,o),
(409,375,c),
(415,366,o),
(417,355,o),
(417,241,cs),
(417,233,o),
(415,225,o),
(409,219,cs),
(407,217,o),
(410,213,o),
(409,211,cs),
(406,202,o),
(421,194,o),
(409,186,c),
(409,51,l),
(409,44,o),
(408,37,o),
(404,30,c),
(389,30,o),
(374,29,o),
(358,29,cs),
(257,29,ls),
(248,29,o),
(238,27,o),
(229,34,cs),
(226,36,o),
(216,28,o),
(211,30,cs),
(205,32,o),
(200,38,o),
(194,30,c),
(192,29,o),
(187,28,o),
(186,29,cs)
);
}
);
width = 491;
}
);
unicode = 79;
},
{
glyphname = OU;
lastChange = "2023-11-11 16:52:58 +0000";
layers = (
{
layerId = m01;
shapes = (
{
closed = 1;
nodes = (
(122,414,o),
(138,416,o),
(154,416,cs),
(185,416,o),
(476,412,o),
(511,415,cs),
(521,415,o),
(537,426,o),
(537,433,cs),
(539,441,o),
(537,519,o),
(537,542,cs),
(536,589,o),
(547,575,o),
(547,604,cs),
(547,617,o),
(532,632,o),
(550,649,c),
(530,685,o),
(550,675,o),
(550,714,cs),
(550,737,o),
(539,726,o),
(526,715,cs),
(518,707,o),
(521,701,o),
(521,694,cs),
(519,615,o),
(496,480,o),
(512,466,cs),
(517,460,o),
(512,454,o),
(505,450,cs),
(470,436,o),
(127,443,o),
(109,444,c),
(103,452,o),
(100,460,o),
(100,468,cs),
(100,508,o),
(102,528,o),
(102,536,c),
(102,558,l),
(103,569,o),
(100,580,o),
(99,589,cs),
(94,620,o),
(102,616,o),
(102,641,cs),
(102,706,ls),
(102,733,o),
(71,732,o),
(71,705,cs),
(71,436,ls),
(71,421,o),
(91,416,o),
(102,407,c)
);
},
{
closed = 1;
nodes = (
(280,-3,o),
(317,-10,o),
(334,4,cs),
(347,15,o),
(375,35,o),
(390,44,cs),
(396,46,o),
(393,51,o),
(398,54,cs),
(404,59,o),
(420,61,o),
(418,68,c),
(450,91,o),
(469,97,o),
(469,107,c),
(493,117,o),
(501,131,o),
(523,142,cs),
(556,158,o),
(565,177,o),
(593,194,cs),
(598,197,o),
(598,201,o),
(592,204,cs),
(567,219,o),
(559,235,o),
(527,253,cs),
(520,257,o),
(513,261,o),
(513,265,cs),
(511,273,o),
(500,278,o),
(493,283,cs),
(483,292,o),
(437,323,o),
(428,331,cs),
(420,339,o),
(406,347,o),
(400,356,cs),
(393,366,o),
(377,374,o),
(364,383,cs),
(345,401,o),
(335,407,o),
(311,415,cs),
(305,417,o),
(297,417,o),
(290,414,cs),
(275,410,o),
(271,403,o),
(265,397,cs),
(262,394,o),
(264,391,o),
(257,389,cs),
(240,383,o),
(235,375,o),
(225,368,cs),
(212,360,o),
(202,352,o),
(188,345,cs),
(175,339,o),
(184,331,o),
(167,327,c),
(164,318,o),
(58,254,o),
(26,227,cs),
(19,221,o),
(13,215,o),
(10,208,cs),
(10,201,o),
(59,159,o),
(78,146,cs),
(91,137,o),
(109,129,o),
(109,119,c),
(155,86,l),
(187,72,o),
(211,57,o),
(232,41,cs),
(241,34,o),
(252,28,o),
(255,21,c),
(264,12,l)
);
},
{
closed = 1;
nodes = (
(323,175,o),
(341,199,o),
(338,205,c),
(332,217,o),
(326,228,o),
(312,235,c),
(300,239,o),
(297,231,o),
(289,230,c),
(279,229,o),
(263,213,o),
(266,206,c),
(270,197,o),
(273,186,o),
(280,178,c),
(283,175,o),
(294,175,o),
(316,175,cs)
);
},
{
closed = 1;
nodes = (
(300,197,o),
(297,197,o),
(296,199,c),
(294,201,o),
(292,204,o),
(291,207,c),
(290,209,o),
(295,213,o),
(298,214,c),
(301,214,o),
(301,217,o),
(305,215,c),
(309,213,o),
(310,210,o),
(313,206,c),
(314,205,o),
(308,197,o),
(306,197,cs)
);
},
{
closed = 1;
nodes = (
(266,50,o),
(244,76,o),
(208,91,cs),
(196,96,o),
(191,105,o),
(175,109,cs),
(161,114,o),
(170,120,o),
(162,125,cs),
(142,138,o),
(129,151,o),
(111,168,cs),
(103,176,o),
(88,178,o),
(88,183,cs),
(88,188,o),
(61,202,o),
(60,206,cs),
(57,213,o),
(74,221,o),
(77,225,cs),
(102,249,o),
(144,264,o),
(169,288,c),
(189,294,o),
(193,301,o),
(201,308,cs),
(209,319,o),
(262,357,o),
(284,363,c),
(295,372,o),
(298,377,o),
(310,380,c),
(325,369,o),
(359,339,o),
(378,330,cs),
(401,318,o),
(472,263,o),
(477,255,cs),
(482,248,o),
(494,244,o),
(496,238,cs),
(496,235,o),
(503,233,o),
(507,230,c),
(547,200,l),
(540,193,o),
(532,190,o),
(515,174,cs),
(504,159,o),
(489,152,o),
(469,143,cs),
(458,137,o),
(459,129,o),
(443,124,c),
(440,116,o),
(418,111,o),
(413,105,cs),
(408,99,o),
(374,74,o),
(364,68,cs),
(351,62,o),
(358,53,o),
(338,48,cs),
(324,44,o),
(331,36,o),
(318,30,cs),
(305,25,o),
(302,23,o),
(293,29,cs)
);
}
);
width = 607;
}
);
unicode = 546;
},
{
glyphname = Ocenteredtilde;
lastChange = "2023-11-11 16:38:49 +0000";
layers = (
{
layerId = m01;
shapes = (
{
ref = O;
},
{
closed = 1;
nodes = (
(327,330,o),
(332,331,o),
(335,332,cs),
(342,337,o),
(348,337,o),
(355,337,cs),
(376,334,o),
(384,334,o),
(404,337,cs),
(407,336,o),
(417,337,o),
(418,337,c),
(436,337,o),
(436,362,o),
(428,363,c),
(419,363,o),
(395,363,o),
(390,363,cs),
(372,362,o),
(370,361,o),
(352,364,cs),
(345,364,o),
(338,364,o),
(332,364,cs),
(325,364,o),
(318,366,o),
(311,366,cs),
(308,366,o),
(304,365,o),
(301,364,cs),
(299,362,o),
(299,357,o),
(296,356,cs),
(293,355,o),
(293,333,o),
(296,332,cs),
(305,328,o),
(315,331,o),
(323,330,cs)
);
},
{
closed = 1;
nodes = (
(83,327,o),
(88,328,o),
(91,330,cs),
(98,334,o),
(104,334,o),
(111,333,cs),
(132,331,o),
(140,331,o),
(160,333,cs),
(163,333,o),
(173,334,o),
(174,334,c),
(192,334,o),
(192,359,o),
(184,360,c),
(175,360,o),
(151,360,o),
(146,360,cs),
(128,359,o),
(74,360,o),
(67,360,cs),
(64,360,o),
(60,359,o),
(57,357,cs),
(55,356,o),
(55,351,o),
(52,350,cs),
(49,349,o),
(49,330,o),
(52,329,cs),
(61,325,o),
(71,328,o),
(79,327,cs)
);
}
);
width = 491;
}
);
unicode = 415;
},
{
glyphname = "Omega-latin";
lastChange = "2023-11-12 17:08:45 +0000";
layers = (
{
layerId = m01;
shapes = (
{
closed = 1;
nodes = (
(693,706,o),
(684,704,o),
(605,697,c),
(558,697,o),
(546,701,o),
(408,699,cs),
(400,699,o),
(392,698,o),
(386,691,c),
(383,689,o),
(377,689,o),
(374,691,cs),
(365,698,o),
(356,699,o),
(347,699,cs),
(271,699,o),
(237,694,o),
(236,694,cs),
(228,694,o),
(222,699,o),
(132,700,cs),
(117,700,o),
(112,684,o),
(102,692,cs),
(90,703,o),
(27,715,o),
(15,699,cs),
(12,694,o),
(10,689,o),
(10,682,cs),
(10,661,o),
(74,538,o),
(79,517,cs),
(82,497,o),
(258,85,o),
(273,52,cs),
(277,45,o),
(274,38,o),
(266,38,cs),
(259,37,o),
(141,38,o),
(126,38,cs),
(124,45,o),
(126,51,o),
(122,58,c),
(138,75,o),
(114,95,o),
(121,116,c),
(116,120,o),
(112,124,o),
(104,118,cs),
(98,112,o),
(94,105,o),
(93,83,c),
(90,69,o),
(93,44,o),
(94,26,c),
(92,22,o),
(92,17,o),
(95,13,cs),
(99,7,o),
(103,2,o),
(110,2,cs),
(153,2,o),
(192,0,o),
(200,3,cs),
(209,6,o),
(233,-6,o),
(238,-6,cs),
(249,-6,o),
(259,4,o),
(271,4,cs),
(279,4,o),
(287,2,o),
(295,2,cs),
(313,4,o),
(318,34,o),
(309,48,cs),
(296,69,o),
(110,534,o),
(96,550,cs),
(91,555,o),
(88,564,o),
(87,573,cs),
(85,594,o),
(56,628,o),
(56,649,cs),
(56,659,o),
(64,671,o),
(86,671,cs),
(93,671,o),
(99,670,o),
(106,664,cs),
(110,661,o),
(118,662,o),
(124,662,cs),
(356,661,ls),
(363,661,o),
(371,659,o),
(377,667,cs),
(381,671,o),
(382,661,o),
(401,661,cs),
(407,661,o),
(414,662,o),
(420,661,cs),
(427,660,o),
(431,675,o),
(439,664,c),
(443,660,o),
(511,660,o),
(515,667,c),
(521,672,o),
(523,660,o),
(528,662,c),
(532,665,o),
(537,669,o),
(541,669,cs),
(624,669,o),
(535,672,o),
(693,669,c),
(700,667,o),
(705,653,o),
(702,644,c),
(681,597,o),
(621,470,o),
(621,467,cs),
(621,441,o),
(465,85,o),
(455,65,cs),
(450,54,o),
(454,42,o),
(445,32,cs),
(441,28,o),
(443,17,o),
(444,10,cs),
(444,7,o),
(448,3,o),
(451,3,cs),
(521,2,o),
(517,3,o),
(587,3,cs),
(594,3,o),
(601,6,o),
(608,-2,c),
(615,-1,o),
(639,2,o),
(643,2,cs),
(648,2,o),
(656,0,o),
(656,14,cs),
(656,37,o),
(660,35,o),
(659,64,c),
(660,69,o),
(660,84,o),
(660,86,cs),
(662,114,o),
(637,116,o),
(635,103,cs),
(634,88,o),
(632,69,o),
(632,61,cs),
(632,51,o),
(632,44,o),
(631,39,c),
(616,38,o),
(583,37,o),
(482,37,c),
(543,196,o),
(492,72,o),
(678,509,cs),
(685,526,o),
(687,546,o),
(699,563,cs),
(709,577,o),
(750,680,o),
(750,683,cs),
(750,696,o),
(743,706,o),
(731,706,cs),
(702,706,ls)
);
},
{
closed = 1;
nodes = (
(344,393,o),
(351,384,o),
(363,375,cs),
(371,369,o),
(381,369,o),
(389,375,c),
(401,387,o),
(417,402,o),
(417,418,cs),
(417,446,o),
(390,455,o),
(380,455,cs),
(361,455,o),
(346,437,o),
(346,409,c)
);
},
{
closed = 1;
nodes = (
(370,420,o),
(374,424,o),
(380,424,cs),
(382,424,o),
(392,423,o),
(392,414,cs),
(392,410,o),
(388,404,o),
(382,401,c),
(381,400,o),
(379,400,o),
(374,401,c),
(371,404,o),
(369,406,o),
(370,411,c)
);
}
);
width = 760;
}
);
unicode = 42934;
},
{
glyphname = Oslash;
lastChange = "2023-11-03 10:39:56 +0000";
layers = (
{
anchors = (
{
name = bottom;
pos = (276,0);
},
{
name = top;
pos = (276,700);
}
);
layerId = m01;
shapes = (
{
closed = 1;
nodes = (
(444,3,ls),
(452,3,o),
(462,10,o),
(469,16,cs),
(472,18,o),
(472,26,o),
(472,31,cs),
(472,172,o),
(473,220,o),
(473,379,cs),
(473,389,o),
(474,400,o),
(480,409,c),
(482,411,o),
(473,420,o),
(475,423,c),
(477,429,o),
(481,434,o),
(481,442,cs),
(481,581,ls),
(481,587,o),
(480,592,o),
(476,597,cs),
(470,604,o),
(481,606,o),
(481,611,cs),
(481,646,ls),
(481,658,o),
(480,670,o),
(480,682,cs),
(480,688,o),
(472,695,o),
(466,698,cs),
(462,700,o),
(455,698,o),
(450,698,cs),
(108,698,ls),
(102,698,o),
(96,699,o),
(91,698,cs),
(85,698,o),
(75,686,o),
(75,679,cs),
(75,629,ls),
(75,619,o),
(76,609,o),
(75,600,c),
(64,592,o),
(75,586,o),
(75,578,cs),
(75,477,ls),
(75,472,o),
(68,465,o),
(70,463,cs),
(75,457,o),
(75,450,o),
(75,444,c),
(75,34,ls),
(75,21,o),
(84,12,o),
(96,12,c),
(190,12,o),
(201,13,o),
(209,9,cs),
(220,2,o),
(225,12,o),
(235,12,cs),
(340,12,o),
(350,9,o),
(357,12,cs),
(367,15,o),
(373,-2,o),
(383,12,c),
(392,6,o),
(402,3,o),
(412,3,cs)
);
},
{
closed = 1;
nodes = (
(209,45,o),
(200,46,o),
(191,46,cs),
(108,46,ls),
(103,46,o),
(98,54,o),
(102,58,cs),
(108,66,o),
(109,73,o),
(109,82,cs),
(109,120,ls),
(109,128,o),
(108,136,o),
(102,143,c),
(101,145,o),
(102,151,o),
(104,154,cs),
(113,167,o),
(113,180,o),
(106,194,cs),
(102,205,o),
(101,212,o),
(108,220,c),
(110,221,o),
(109,226,o),
(108,228,c),
(102,234,o),
(101,240,o),
(101,247,cs),
(101,269,o),
(100,279,o),
(108,287,c),
(109,289,o),
(108,296,o),
(106,298,cs),
(100,304,o),
(102,311,o),
(100,318,cs),
(98,328,o),
(114,337,o),
(101,347,c),
(101,647,l),
(102,654,o),
(112,663,o),
(119,663,cs),
(431,663,ls),
(447,663,o),
(447,663,o),
(447,646,cs),
(447,490,ls),
(447,481,o),
(447,474,o),
(442,466,cs),
(436,458,o),
(437,447,o),
(442,438,cs),
(445,432,o),
(446,429,o),
(442,424,cs),
(440,422,o),
(437,415,o),
(439,413,cs),
(445,405,o),
(449,399,o),
(442,390,cs),
(439,387,o),
(436,378,o),
(439,375,c),
(445,366,o),
(447,355,o),
(447,241,cs),
(447,233,o),
(445,225,o),
(439,219,cs),
(437,217,o),
(440,213,o),
(439,211,cs),
(436,202,o),
(451,194,o),
(439,186,c),
(439,60,l),
(439,53,o),
(438,46,o),
(434,39,c),
(419,39,o),
(404,38,o),
(388,38,cs),
(287,38,ls),
(278,38,o),
(268,36,o),
(259,43,cs),
(256,45,o),
(246,37,o),
(241,39,cs),
(235,41,o),
(230,47,o),
(224,39,c),
(222,38,o),
(217,37,o),
(216,38,cs)
);
},
{
angle = -12.21966;
pos = (88,111);
ref = slash;
}
);
width = 551;
}
);
unicode = 216;
},
{
glyphname = OE;
lastChange = "2023-11-11 16:38:17 +0000";
layers = (
{
layerId = m01;
shapes = (
{
closed = 1;
nodes = (
(753,649,o),
(782,668,o),
(816,664,c),
(822,670,o),
(828,674,o),
(817,681,cs),
(808,686,o),
(796,689,o),
(762,696,c),
(735,697,o),
(681,692,o),
(653,689,cs),
(642,689,o),
(626,688,o),
(618,691,cs),
(602,695,o),
(590,696,o),
(574,693,c),
(556,702,o),
(499,699,o),
(481,700,cs),
(463,702,o),
(451,696,o),
(433,695,c),
(422,667,l),
(486,668,o),
(550,666,o),
(615,666,c),
(632,659,o),
(649,656,o),
(668,664,c),
(685,659,o),
(703,654,o),
(720,663,c)
);
},
{
ref = O;
},
{
closed = 1;
nodes = (
(523,7,o),
(673,7,o),
(777,7,cs),
(789,7,o),
(803,11,o),
(810,16,cs),
(819,20,o),
(820,24,o),
(822,31,c),
(818,32,o),
(808,43,o),
(772,41,cs),
(763,40,o),
(730,39,o),
(722,39,cs),
(647,39,o),
(523,38,o),
(448,38,cs),
(427,38,o),
(402,39,o),
(418,6,c)
);
},
{
closed = 1;
nodes = (
(487,330,o),
(494,331,o),
(499,332,cs),
(510,337,o),
(520,337,o),
(531,337,cs),
(563,334,o),
(576,334,o),
(608,337,cs),
(613,336,o),
(628,337,o),
(630,337,c),
(658,337,o),
(659,362,o),
(646,363,c),
(631,363,o),
(593,363,o),
(585,363,cs),
(557,362,o),
(554,361,o),
(526,364,cs),
(515,364,o),
(504,364,o),
(494,364,cs),
(484,364,o),
(472,366,o),
(462,366,cs),
(456,366,o),
(451,365,o),
(446,364,cs),
(442,362,o),
(442,357,o),
(438,356,cs),
(433,355,o),
(433,333,o),
(438,332,cs),
(452,328,o),
(467,331,o),
(481,330,cs)
);
},
{
closed = 1;
nodes = (
(721,305,o),
(744,322,o),
(753,334,cs),
(757,339,o),
(759,344,o),
(759,350,cs),
(759,361,o),
(750,376,o),
(741,378,cs),
(727,380,o),
(699,382,o),
(699,362,cs),
(699,347,o),
(682,344,o),
(693,333,cs),
(707,319,ls)
);
},
{
closed = 1;
nodes = (
(716,343,ls),
(713,346,o),
(718,346,o),
(718,351,cs),
(718,356,o),
(725,356,o),
(729,355,cs),
(732,354,o),
(734,350,o),
(734,347,cs),
(734,346,o),
(734,344,o),
(732,343,cs),
(730,340,o),
(724,335,o),
(720,339,cs)
);
}
);
width = 823;
}
);
unicode = 338;
},
{
glyphname = P;
lastChange = "2023-11-12 17:55:21 +0000";
layers = (
{
anchors = (
{
name = bottom;
pos = (204,0);
},
{
name = top;
pos = (204,700);
}
);
layerId = m01;
shapes = (
{
closed = 1;
nodes = (
(68,3,o),
(78,11,o),
(78,21,cs),
(78,26,o),
(74,36,o),
(76,50,c),
(74,92,o),
(82,138,o),
(82,146,cs),
(81,162,o),
(87,191,o),
(76,211,cs),
(72,218,o),
(73,226,o),
(79,232,cs),
(84,237,o),
(83,241,o),
(79,245,cs),
(75,249,o),
(72,253,o),
(76,258,cs),
(80,262,o),
(81,266,o),
(77,270,c),
(74,275,o),
(85,280,o),
(77,286,cs),
(72,289,o),
(74,301,o),
(75,306,c),
(89,308,o),
(106,313,o),
(116,308,c),
(144,306,o),
(350,306,o),
(424,313,c),
(434,313,o),
(445,321,o),
(443,329,cs),
(439,348,o),
(459,357,o),
(446,370,c),
(455,378,o),
(450,385,o),
(445,393,c),
(455,400,o),
(452,426,o),
(444,433,c),
(444,461,o),
(444,489,o),
(445,515,c),
(446,521,o),
(453,545,o),
(453,552,cs),
(452,592,o),
(452,639,o),
(452,680,cs),
(452,689,o),
(443,697,o),
(434,697,cs),
(425,698,o),
(417,698,o),
(173,698,cs),
(164,698,o),
(153,694,o),
(148,698,c),
(128,710,o),
(55,709,o),
(50,686,cs),
(50,685,o),
(49,685,o),
(49,684,cs),
(47,676,o),
(48,644,o),
(48,326,cs),
(48,321,o),
(47,299,o),
(41,293,c),
(40,293,o),
(49,273,o),
(44,268,cs),
(40,263,o),
(38,259,o),
(43,254,cs),
(47,251,o),
(48,246,o),
(48,241,cs),
(50,162,o),
(47,147,o),
(47,139,c),
(36,134,o),
(50,126,o),
(44,120,cs),
(37,113,o),
(52,110,o),
(48,104,c),
(41,97,o),
(40,88,o),
(40,79,cs),
(40,65,o),
(44,10,o),
(47,-4,cs),
(49,-11,o),
(59,-13,o),
(63,-6,cs)
);
},
{
closed = 1;
nodes = (
(247,464,o),
(270,481,o),
(279,493,cs),
(283,498,o),
(285,503,o),
(285,509,cs),
(285,520,o),
(276,535,o),
(267,537,cs),
(253,539,o),
(225,541,o),
(225,521,cs),
(225,506,o),
(208,503,o),
(219,492,cs),
(233,478,ls)
);
},
{
closed = 1;
nodes = (
(80,347,o),
(81,361,o),
(82,381,cs),
(82,498,o),
(83,527,o),
(79,533,cs),
(71,543,o),
(86,547,o),
(83,557,cs),
(76,575,o),
(88,586,o),
(75,600,c),
(74,611,o),
(71,619,o),
(80,628,cs),
(82,630,o),
(82,636,o),
(80,638,cs),
(74,645,o),
(83,676,o),
(90,671,cs),
(98,664,o),
(102,678,o),
(108,674,cs),
(117,668,o),
(126,667,o),
(135,667,cs),
(142,667,o),
(149,668,o),
(156,668,cs),
(232,667,o),
(298,667,o),
(409,667,cs),
(416,667,o),
(418,663,o),
(418,657,cs),
(418,558,o),
(416,544,o),
(419,537,cs),
(424,526,o),
(405,519,o),
(416,509,c),
(414,503,o),
(408,497,o),
(410,489,cs),
(412,479,o),
(405,457,o),
(416,449,c),
(406,431,o),
(423,443,o),
(418,416,c),
(407,359,o),
(410,391,o),
(410,351,cs),
(410,347,o),
(407,344,o),
(402,343,c),
(373,343,o),
(108,336,o),
(79,336,c)
);
},
{
closed = 1;
nodes = (
(242,502,ls),
(239,505,o),
(244,505,o),
(244,510,cs),
(244,515,o),
(251,515,o),
(255,514,cs),
(258,513,o),
(260,509,o),
(260,506,cs),
(260,505,o),
(260,503,o),
(258,502,c),
(256,499,o),
(250,494,o),
(246,498,cs)
);
}
);
width = 493;
}
);
unicode = 80;
},
{
glyphname = Phook;
lastChange = "2023-11-11 15:15:22 +0000";
layers = (
{
layerId = m01;
shapes = (
{
ref = P;
},
{
closed = 1;
nodes = (
(-69,562,o),
(-43,564,o),
(-43,572,c),
(-30,587,o),
(-54,673,o),
(-8,671,cs),
(-1,671,o),
(18,672,o),
(25,670,cs),
(38,667,o),
(31,675,o),
(70,670,cs),
(77,669,o),
(83,676,o),
(91,672,c),
(108,682,o),
(105,689,o),
(91,696,c),
(75,706,o),
(64,709,o),
(46,702,cs),
(41,700,o),
(14,701,o),
(7,701,cs),
(-24,702,o),
(-20,702,o),
(-25,702,cs),
(-62,700,o),
(-66,675,o),
(-69,642,cs),
(-70,629,o),
(-63,613,o),
(-69,604,cs),
(-72,599,o),
(-68,582,o),
(-69,578,c)
);
}
);
width = 493;
}
);
unicode = 420;
},
{
glyphname = Thorn;
lastChange = "2023-11-03 10:39:56 +0000";
layers = (
{
layerId = m01;
shapes = (
{
closed = 1;
nodes = (
(99,16,o),
(94,42,o),
(100,77,c),
(100,119,o),
(99,153,o),
(97,190,c),
(116,189,o),
(167,190,o),
(174,189,cs),
(184,189,o),
(195,190,o),
(202,187,cs),
(213,180,o),
(218,191,o),
(228,190,cs),
(243,189,o),
(320,189,o),
(328,192,cs),
(337,195,o),
(345,181,o),
(354,193,c),
(373,181,o),
(390,187,o),
(413,187,cs),
(422,187,o),
(431,192,o),
(440,197,cs),
(443,199,o),
(443,207,o),
(443,211,cs),
(443,557,ls),
(443,563,o),
(435,565,o),
(429,565,cs),
(346,566,o),
(199,569,o),
(95,566,c),
(94,602,o),
(96,580,o),
(96,653,cs),
(96,686,o),
(87,694,o),
(85,699,c),
(78,697,o),
(74,694,o),
(70,688,cs),
(66,680,o),
(63,668,o),
(63,657,cs),
(64,600,o),
(65,595,o),
(65,458,cs),
(65,424,o),
(70,387,o),
(70,375,cs),
(70,358,o),
(70,377,o),
(70,359,cs),
(70,236,ls),
(70,227,o),
(70,217,o),
(70,209,cs),
(70,208,ls),
(70,194,o),
(66,179,o),
(73,165,c),
(69,148,o),
(64,111,o),
(73,95,c),
(60,70,o),
(79,42,o),
(76,8,c),
(82,2,o),
(87,-5,o),
(94,7,cs)
);
},
{
closed = 1;
nodes = (
(270,213,o),
(260,211,o),
(251,217,cs),
(248,219,o),
(239,213,o),
(234,214,cs),
(228,216,o),
(223,221,o),
(217,215,cs),
(215,213,o),
(210,213,o),
(209,214,cs),
(202,219,o),
(129,217,o),
(106,217,cs),
(104,217,o),
(102,218,o),
(100,220,c),
(101,224,o),
(106,243,o),
(106,249,cs),
(106,256,o),
(106,271,o),
(105,288,cs),
(106,312,o),
(104,340,o),
(105,353,cs),
(106,358,o),
(105,366,o),
(105,390,cs),
(105,397,o),
(103,402,o),
(101,408,cs),
(96,417,o),
(95,423,o),
(103,430,c),
(109,442,o),
(104,503,o),
(96,514,c),
(96,522,ls),
(96,526,o),
(98,530,o),
(100,535,c),
(114,536,o),
(147,538,o),
(162,538,cs),
(172,538,o),
(182,541,o),
(191,532,c),
(205,529,o),
(212,543,o),
(220,532,c),
(230,532,o),
(359,538,o),
(368,537,cs),
(382,535,o),
(407,534,o),
(411,534,c),
(411,471,o),
(413,434,o),
(409,369,c),
(409,379,l),
(409,289,ls),
(409,281,o),
(409,225,o),
(405,218,c),
(354,217,o),
(295,213,o),
(279,213,cs)
);
}
);
width = 600;
}
);
unicode = 222;
},
{
glyphname = Pstroke;
lastChange = "2023-11-11 16:55:35 +0000";
layers = (
{
layerId = m01;
shapes = (
{
pos = (-3,0);
ref = P;
},
{
closed = 1;
nodes = (
(-43,524,o),
(-50,493,o),
(-17,493,cs),
(-3,493,o),
(30,494,o),
(42,492,cs),
(66,489,o),
(52,497,o),
(122,492,cs),
(135,491,o),
(147,498,o),
(159,494,c),
(190,504,o),
(185,511,o),
(159,518,c),
(131,528,o),
(111,531,o),
(79,524,cs),
(71,522,o),
(49,517,o),
(27,523,cs),
(15,526,o),
(-14,524,o),
(-22,524,cs)
);
}
);
width = 490;
}
);
unicode = 11363;
},
{
glyphname = Q;
lastChange = "2023-11-11 07:32:02 +0000";
layers = (
{
anchors = (
{
name = bottom;
pos = (287,0);
},
{
name = top;
pos = (287,700);
}
);
layerId = m01;
shapes = (
{
closed = 1;
nodes = (
(466,-128,o),
(482,-136,o),
(477,-114,cs),
(476,-109,o),
(474,-104,o),
(472,-100,cs),
(466,-89,o),
(445,-61,o),
(445,-58,cs),
(442,-35,o),
(430,-27,o),
(416,-6,c),
(431,-2,o),
(442,5,o),
(442,22,cs),
(442,420,ls),
(442,430,o),
(443,441,o),
(449,450,c),
(451,452,o),
(442,461,o),
(444,464,c),
(446,470,o),
(450,475,o),
(450,483,cs),
(450,582,ls),
(450,587,o),
(449,593,o),
(445,597,cs),
(440,604,o),
(450,606,o),
(450,611,cs),
(450,659,o),
(449,671,o),
(449,682,cs),
(449,687,o),
(441,694,o),
(436,697,cs),
(431,699,o),
(425,697,o),
(419,697,cs),
(78,697,ls),
(73,697,o),
(67,698,o),
(61,697,cs),
(56,697,o),
(46,686,o),
(46,679,cs),
(44,608,o),
(46,586,o),
(46,518,cs),
(46,513,o),
(39,506,o),
(40,504,cs),
(45,497,o),
(46,491,o),
(46,484,cs),
(46,25,ls),
(46,12,o),
(55,3,o),
(67,3,cs),
(134,3,o),
(171,4,o),
(179,0,cs),
(190,-7,o),
(196,3,o),
(205,3,cs),
(302,3,ls),
(310,3,o),
(320,0,o),
(327,3,cs),
(337,6,o),
(343,-11,o),
(352,3,c),
(361,-3,o),
(370,-6,o),
(380,-6,c),
(394,-26,o),
(416,-63,o),
(428,-82,cs),
(439,-99,o),
(450,-113,o),
(464,-126,c)
);
},
{
closed = 1;
nodes = (
(357,83,o),
(256,232,o),
(253,236,c),
(294,236,ls),
(301,236,o),
(308,233,o),
(313,236,cs),
(321,241,o),
(326,222,o),
(333,233,c),
(338,232,o),
(342,226,o),
(347,227,cs),
(357,229,o),
(370,223,o),
(376,233,c),
(386,223,o),
(380,241,o),
(400,236,cs),
(403,235,o),
(405,232,o),
(408,230,c),
(411,44,l),
(411,38,o),
(413,28,o),
(404,29,c),
(392,31,l)
);
},
{
closed = 1;
nodes = (
(179,36,o),
(170,37,o),
(161,37,cs),
(79,37,ls),
(73,37,o),
(69,45,o),
(73,49,c),
(78,57,o),
(80,64,o),
(80,73,cs),
(80,94,o),
(80,182,o),
(80,203,cs),
(80,212,o),
(79,220,o),
(73,227,cs),
(71,229,o),
(72,233,o),
(74,236,cs),
(83,249,o),
(82,263,o),
(77,278,cs),
(72,288,o),
(71,295,o),
(79,303,c),
(78,311,l),
(71,352,o),
(70,362,o),
(78,370,cs),
(80,372,o),
(78,378,o),
(76,381,cs),
(71,387,o),
(72,394,o),
(71,401,cs),
(69,411,o),
(84,420,o),
(72,430,c),
(72,405,o),
(70,632,o),
(72,648,cs),
(72,654,o),
(82,664,o),
(89,664,cs),
(96,665,o),
(103,664,o),
(110,664,cs),
(400,664,ls),
(416,664,o),
(416,663,o),
(416,646,cs),
(416,531,ls),
(416,522,o),
(416,515,o),
(411,507,cs),
(405,499,o),
(406,488,o),
(411,479,cs),
(414,474,o),
(415,471,o),
(411,465,cs),
(399,453,o),
(423,446,o),
(411,432,cs),
(408,428,o),
(405,420,o),
(408,417,c),
(416,391,o),
(413,293,o),
(408,268,cs),
(408,267,o),
(405,264,o),
(404,263,c),
(398,272,o),
(393,269,o),
(387,262,c),
(368,262,o),
(348,263,o),
(328,263,cs),
(324,263,o),
(321,274,o),
(316,267,cs),
(310,256,o),
(307,270,o),
(303,270,cs),
(282,270,o),
(262,269,o),
(242,269,c),
(238,264,o),
(234,260,o),
(229,261,cs),
(215,263,o),
(212,254,o),
(218,236,c),
(220,233,o),
(319,86,o),
(356,29,c),
(257,29,ls),
(247,29,o),
(238,27,o),
(229,34,cs),
(226,36,o),
(216,28,o),
(211,30,cs),
(205,32,o),
(200,38,o),
(194,30,c),
(192,29,o),
(187,28,o),
(186,29,cs)
);
},
{
closed = 1;
nodes = (
(283,395,o),
(275,432,o),
(244,442,c),
(240,442,o),
(235,433,o),
(231,433,cs),
(213,433,o),
(216,413,o),
(208,403,cs),
(206,402,o),
(211,394,o),
(213,390,cs),
(219,375,o),
(246,379,o),
(249,380,cs)
);
},
{
closed = 1;
nodes = (
(245,401,o),
(238,400,o),
(237,404,cs),
(236,405,o),
(235,407,o),
(235,407,cs),
(237,410,o),
(237,415,o),
(241,415,cs),
(242,415,o),
(243,417,o),
(244,417,c),
(252,414,o),
(254,405,o),
(246,401,cs)
);
}
);
width = 498;
}
);
unicode = 81;
},
{
glyphname = Qhooktail;
lastChange = "2023-11-11 16:56:03 +0000";
layers = (
{
anchors = (
{
name = bottom;
pos = (274,0);
},
{
name = top;
pos = (274,700);
}
);
layerId = m01;
shapes = (
{
closed = 1;
nodes = (
(478,-199,o),
(500,-182,o),
(526,-162,cs),
(528,-160,o),
(530,-156,o),
(532,-154,cs),
(534,-152,o),
(537,-153,o),
(539,-151,cs),
(540,-149,o),
(542,-148,o),
(544,-146,cs),
(545,-146,o),
(548,-145,o),
(549,-144,cs),
(552,-141,o),
(554,-137,o),
(557,-135,cs),
(577,-120,o),
(622,-70,o),
(623,-65,cs),
(623,-63,o),
(636,-39,o),
(613,-44,cs),
(610,-45,o),
(607,-49,o),
(604,-49,cs),
(603,-49,o),
(595,-55,o),
(584,-65,cs),
(581,-67,o),
(542,-104,o),
(539,-106,cs),
(537,-108,o),
(539,-112,o),
(535,-113,cs),
(535,-113,o),
(531,-115,o),
(529,-116,cs),
(512,-130,o),
(493,-146,o),
(490,-145,cs),
(484,-142,o),
(487,-130,o),
(487,-127,cs),
(491,177,o),
(498,656,o),
(496,697,cs),
(496,701,o),
(494,712,o),
(473,712,c),
(433,708,l),
(425,708,o),
(416,707,o),
(408,701,cs),
(403,697,o),
(393,700,o),
(386,700,cs),
(79,700,ls),
(72,700,o),
(64,700,o),
(57,699,cs),
(49,699,o),
(40,690,o),
(40,681,cs),
(40,249,ls),
(40,242,o),
(52,237,o),
(42,228,cs),
(36,222,o),
(46,216,o),
(46,210,cs),
(47,180,o),
(47,149,o),
(47,118,c),
(40,110,o),
(38,102,o),
(46,93,c),
(41,85,o),
(37,77,o),
(46,68,c),
(35,57,o),
(48,42,o),
(48,23,c),
(46,14,o),
(55,6,o),
(63,5,c),
(66,2,o),
(68,4,o),
(72,7,cs),
(94,21,o),
(340,230,o),
(406,300,cs),
(421,315,o),
(451,329,o),
(460,354,c),
(457,91,ls),
(457,81,o),
(460,70,o),
(454,60,c),
(456,37,o),
(458,-95,o),
(458,-138,cs),
(458,-140,o),
(460,-160,o),
(461,-166,cs),
(463,-182,o),
(459,-199,o),
(474,-199,cs)
);
},
{
closed = 1;
nodes = (
(78,57,o),
(72,91,o),
(70,99,cs),
(69,104,o),
(68,112,o),
(70,115,cs),
(75,123,o),
(76,129,o),
(72,136,c),
(81,145,o),
(76,171,o),
(77,180,cs),
(79,189,o),
(73,195,o),
(72,203,c),
(82,214,o),
(65,221,o),
(69,233,cs),
(72,241,o),
(70,267,o),
(70,655,cs),
(70,661,o),
(72,666,o),
(78,666,cs),
(400,666,ls),
(406,666,o),
(411,666,o),
(417,666,cs),
(426,666,o),
(453,667,o),
(461,673,cs),
(467,678,o),
(465,422,o),
(459,398,cs),
(456,387,o),
(394,341,o),
(389,325,cs),
(387,317,o),
(375,309,o),
(368,302,cs),
(296,227,o),
(142,104,o),
(78,51,c)
);
},
{
closed = 1;
nodes = (
(251,403,o),
(274,420,o),
(283,432,cs),
(287,437,o),
(289,442,o),
(289,448,cs),
(289,459,o),
(280,474,o),
(271,476,cs),
(257,478,o),
(229,480,o),
(229,460,cs),
(229,445,o),
(212,442,o),
(223,431,cs),
(237,417,ls)
);
},
{
closed = 1;
nodes = (
(246,441,ls),
(243,444,o),
(248,444,o),
(248,449,cs),
(248,454,o),
(255,454,o),
(259,453,cs),
(262,452,o),
(264,448,o),
(264,445,cs),
(264,444,o),
(264,442,o),
(262,441,cs),
(260,438,o),
(254,433,o),
(250,437,cs)
);
}
);
width = 547;
}
);
unicode = 586;
},
{
glyphname = R;
lastChange = "2023-11-05 14:43:22 +0000";
layers = (
{
anchors = (
{
name = bottom;
pos = (235,0);
},
{
name = top;
pos = (239,700);
}
);
layerId = m01;
shapes = (
{
closed = 1;
nodes = (
(64,-3,o),
(74,16,o),
(74,30,cs),
(74,86,ls),
(74,108,o),
(93,137,o),
(77,162,cs),
(75,165,o),
(75,170,o),
(77,173,cs),
(80,179,o),
(86,185,o),
(79,191,cs),
(71,198,o),
(87,206,o),
(77,212,cs),
(75,213,o),
(74,218,o),
(75,219,cs),
(79,224,o),
(81,228,o),
(81,233,cs),
(81,239,o),
(78,246,o),
(75,252,cs),
(72,258,o),
(73,269,o),
(76,272,cs),
(83,278,o),
(92,282,o),
(101,285,cs),
(106,287,o),
(112,285,o),
(118,285,cs),
(202,285,ls),
(209,285,o),
(217,284,o),
(222,288,cs),
(237,298,o),
(264,295,o),
(282,285,cs),
(287,280,o),
(299,295,o),
(308,295,cs),
(311,295,o),
(330,292,o),
(332,291,cs),
(340,285,o),
(348,285,o),
(356,285,cs),
(411,285,ls),
(414,285,o),
(418,280,o),
(419,277,c),
(419,82,o),
(416,71,o),
(419,65,cs),
(428,48,o),
(422,40,o),
(428,9,cs),
(430,-1,o),
(453,-7,o),
(453,14,cs),
(453,279,o),
(454,296,o),
(442,316,cs),
(438,323,o),
(429,319,o),
(423,319,cs),
(170,319,l),
(132,319,ls),
(128,319,o),
(126,324,o),
(129,327,cs),
(156,349,o),
(173,380,o),
(198,405,cs),
(216,423,ls),
(221,428,o),
(225,432,o),
(227,440,cs),
(229,448,o),
(243,444,o),
(243,456,c),
(261,468,o),
(366,589,o),
(404,628,cs),
(420,643,o),
(431,662,o),
(442,681,c),
(448,696,o),
(423,708,o),
(409,708,cs),
(399,708,o),
(389,707,o),
(350,707,cs),
(344,707,o),
(337,709,o),
(333,706,cs),
(325,700,o),
(317,699,o),
(308,699,cs),
(91,699,ls),
(84,699,o),
(77,698,o),
(72,692,cs),
(69,688,o),
(65,684,o),
(60,680,cs),
(52,673,o),
(50,665,o),
(50,654,cs),
(49,337,ls),
(49,329,o),
(47,321,o),
(41,315,cs),
(39,313,o),
(40,308,o),
(41,307,cs),
(49,299,o),
(49,290,o),
(49,280,cs),
(49,130,ls),
(49,124,o),
(52,117,o),
(49,113,cs),
(43,104,o),
(41,92,o),
(41,20,cs),
(41,11,o),
(50,7,o),
(56,2,cs)
);
},
{
closed = 1;
nodes = (
(279,113,o),
(287,136,o),
(287,145,cs),
(287,161,o),
(272,174,o),
(247,174,cs),
(234,176,o),
(226,170,o),
(218,160,cs),
(213,153,o),
(213,144,o),
(218,137,cs),
(228,127,o),
(241,113,o),
(255,113,cs)
);
},
{
closed = 1;
nodes = (
(248,135,o),
(244,138,o),
(242,142,cs),
(241,143,o),
(241,145,o),
(242,148,cs),
(244,150,o),
(246,152,o),
(249,151,cs),
(256,151,o),
(259,148,o),
(259,144,cs),
(259,142,o),
(258,135,o),
(252,135,cs)
);
},
{
closed = 1;
nodes = (
(75,316,o),
(71,337,o),
(76,340,cs),
(85,347,o),
(73,355,o),
(78,360,cs),
(85,368,o),
(82,376,o),
(82,384,cs),
(84,650,ls),
(84,665,o),
(84,665,o),
(101,665,cs),
(214,665,ls),
(230,665,o),
(229,673,o),
(245,673,cs),
(293,673,o),
(341,674,o),
(388,674,cs),
(393,674,o),
(397,664,o),
(394,661,cs),
(376,643,o),
(320,583,o),
(317,569,c),
(317,564,o),
(311,559,o),
(306,557,cs),
(284,546,o),
(269,530,o),
(257,508,c),
(255,502,o),
(248,498,o),
(243,493,cs),
(227,477,o),
(212,461,o),
(196,445,cs),
(187,436,o),
(175,429,o),
(170,418,cs),
(166,406,o),
(149,405,o),
(149,391,c),
(126,368,o),
(104,345,o),
(81,322,cs)
);
}
);
width = 493;
}
);
unicode = 82;
},
{
glyphname = Rstroke;
lastChange = "2023-11-11 15:14:54 +0000";
layers = (
{
layerId = m01;
shapes = (
{
pos = (2,0);
ref = R;
},
{
closed = 1;
nodes = (
(63,316,o),
(67,316,o),
(36,315,cs),
(29,315,o),
(2,314,o),
(-3,316,cs),
(-21,323,o),
(-32,320,o),
(-48,310,c),
(-62,303,o),
(-65,296,o),
(-48,286,c),
(-40,290,o),
(-34,283,o),
(-27,284,cs),
(12,289,o),
(5,281,o),
(18,284,cs),
(25,286,o),
(44,285,o),
(51,285,cs),
(97,287,o),
(105,314,o),
(68,316,cs)
);
}
);
width = 495;
}
);
unicode = 588;
},
{
glyphname = Rtail;
lastChange = "2023-11-11 14:32:43 +0000";
layers = (
{
layerId = m01;
shapes = (
{
ref = R;
},
{
closed = 1;
nodes = (
(41,18,o),
(41,5,o),
(44,0,cs),
(50,-9,o),
(43,-25,o),
(44,-38,cs),
(47,-71,o),
(51,-96,o),
(88,-98,cs),
(93,-98,o),
(89,-98,o),
(120,-97,cs),
(127,-97,o),
(154,-96,o),
(159,-98,c),
(190,-64,o),
(151,-63,o),
(138,-66,cs),
(131,-68,o),
(112,-67,o),
(105,-67,cs),
(59,-69,o),
(83,17,o),
(70,32,c),
(70,40,o),
(41,42,o),
(41,26,c)
);
}
);
width = 493;
}
);
unicode = 11364;
},
{
glyphname = S;
lastChange = "2023-11-05 14:43:25 +0000";
layers = (
{
anchors = (
{
name = bottom;
pos = (239,0);
},
{
name = top;
pos = (239,700);
}
);
layerId = m01;
shapes = (
{
closed = 1;
nodes = (
(117,1,o),
(126,0,o),
(130,3,cs),
(150,15,o),
(221,1,o),
(232,1,c),
(288,0,o),
(354,1,o),
(410,1,cs),
(421,1,o),
(433,-1,o),
(440,8,c),
(443,16,o),
(455,24,o),
(442,34,c),
(439,52,o),
(438,78,o),
(443,97,c),
(451,104,o),
(448,113,o),
(448,122,cs),
(449,185,o),
(449,271,o),
(448,334,cs),
(448,351,o),
(433,364,o),
(414,364,cs),
(345,364,o),
(311,376,o),
(271,361,cs),
(264,358,o),
(262,361,o),
(258,364,cs),
(254,368,o),
(251,372,o),
(256,377,cs),
(264,386,o),
(255,382,o),
(255,400,c),
(264,408,o),
(262,431,o),
(262,485,cs),
(262,501,o),
(269,508,o),
(286,508,cs),
(311,508,o),
(388,508,o),
(401,508,cs),
(412,507,o),
(417,516,o),
(427,518,cs),
(432,519,o),
(435,528,o),
(437,533,cs),
(439,537,o),
(439,543,o),
(440,571,cs),
(440,579,o),
(438,587,o),
(447,595,c),
(435,610,o),
(440,633,o),
(446,640,cs),
(450,645,o),
(450,652,o),
(445,657,cs),
(440,662,o),
(440,669,o),
(440,675,cs),
(438,693,o),
(432,697,o),
(414,697,cs),
(113,697,o),
(105,698,o),
(98,692,cs),
(94,689,o),
(87,700,o),
(81,692,c),
(69,697,o),
(65,698,o),
(60,695,cs),
(48,686,o),
(35,679,o),
(42,663,cs),
(50,645,o),
(48,628,o),
(43,603,cs),
(41,595,o),
(38,586,o),
(44,578,cs),
(51,568,o),
(52,557,o),
(45,546,cs),
(40,537,o),
(39,530,o),
(46,522,cs),
(49,520,o),
(49,519,o),
(46,516,cs),
(40,512,o),
(41,504,o),
(41,498,cs),
(41,385,ls),
(41,367,o),
(42,359,o),
(51,346,cs),
(57,335,o),
(82,346,o),
(94,337,c),
(96,335,o),
(103,334,o),
(105,336,cs),
(114,343,o),
(168,347,o),
(181,335,c),
(191,346,o),
(200,338,o),
(210,334,cs),
(215,332,o),
(222,333,o),
(225,330,cs),
(228,327,o),
(228,321,o),
(228,316,cs),
(228,218,ls),
(228,203,o),
(226,195,o),
(218,187,c),
(214,184,o),
(208,183,o),
(202,183,cs),
(200,183,o),
(156,184,o),
(146,188,c),
(142,185,o),
(135,180,o),
(131,184,cs),
(119,194,o),
(109,190,o),
(93,190,cs),
(64,190,o),
(41,169,o),
(41,141,cs),
(41,131,o),
(40,38,o),
(42,31,cs),
(43,23,o),
(52,17,o),
(50,7,c),
(50,4,o),
(54,1,o),
(59,1,cs)
);
},
{
closed = 1;
nodes = (
(373,23,o),
(266,20,o),
(249,29,cs),
(246,31,o),
(241,30,o),
(237,30,cs),
(230,31,o),
(225,21,o),
(215,29,cs),
(207,35,o),
(104,30,o),
(94,29,cs),
(81,25,o),
(75,33,o),
(75,43,cs),
(75,141,ls),
(75,152,o),
(84,160,o),
(97,160,cs),
(198,160,ls),
(214,160,o),
(221,158,o),
(245,158,c),
(249,158,o),
(257,166,o),
(257,172,cs),
(258,186,o),
(252,185,o),
(256,220,cs),
(256,223,o),
(254,227,o),
(254,231,cs),
(254,243,o),
(254,299,o),
(254,324,cs),
(254,331,o),
(257,334,o),
(267,334,cs),
(351,333,ls),
(370,333,o),
(394,336,o),
(413,329,c),
(414,299,o),
(414,230,o),
(416,225,cs),
(422,207,o),
(427,184,o),
(416,171,cs),
(413,167,o),
(414,159,o),
(414,154,cs),
(414,32,ls),
(414,26,o),
(410,23,o),
(404,23,cs)
);
},
{
closed = 1;
nodes = (
(77,364,o),
(65,375,o),
(68,380,cs),
(75,392,o),
(76,404,o),
(76,416,cs),
(76,428,o),
(75,441,o),
(75,453,cs),
(75,467,o),
(69,460,o),
(69,474,cs),
(69,478,o),
(76,481,o),
(71,487,c),
(68,488,o),
(67,495,o),
(68,496,c),
(82,509,o),
(70,574,o),
(82,587,cs),
(85,591,o),
(85,598,o),
(83,602,c),
(76,610,o),
(74,616,o),
(82,625,cs),
(85,628,o),
(86,637,o),
(83,639,cs),
(76,646,o),
(82,652,o),
(81,657,cs),
(80,662,o),
(75,667,o),
(84,667,cs),
(194,667,ls),
(204,667,o),
(241,662,o),
(248,672,cs),
(251,677,o),
(327,674,o),
(331,674,cs),
(341,674,o),
(350,674,o),
(360,669,c),
(389,666,o),
(417,667,o),
(414,653,cs),
(414,650,o),
(415,625,o),
(415,615,cs),
(415,605,o),
(413,596,o),
(406,587,c),
(406,548,ls),
(406,541,o),
(404,539,o),
(393,538,cs),
(387,537,o),
(380,539,o),
(376,537,cs),
(368,530,o),
(314,532,o),
(285,530,cs),
(277,530,o),
(270,530,o),
(265,534,cs),
(257,542,o),
(246,536,o),
(238,532,cs),
(232,529,o),
(227,518,o),
(228,508,cs),
(228,488,o),
(230,488,o),
(227,469,cs),
(226,460,o),
(240,455,o),
(231,445,cs),
(227,440,o),
(229,431,o),
(228,374,cs),
(228,366,o),
(225,364,o),
(214,364,cs),
(87,364,ls)
);
}
);
width = 489;
}
);
unicode = 83;
},
{
glyphname = Saltillo;
lastChange = "2023-11-03 10:39:56 +0000";
layers = (
{
layerId = m01;
shapes = (
{
closed = 1;
nodes = (
(66,431,o),
(72,455,o),
(72,500,cs),
(72,614,ls),
(72,626,o),
(72,668,o),
(71,680,c),
(69,687,o),
(60,687,o),
(60,695,cs),
(60,705,o),
(44,707,o),
(42,696,cs),
(37,670,o),
(30,640,o),
(30,610,cs),
(30,539,o),
(39,577,o),
(39,500,cs),
(39,466,o),
(38,462,o),
(39,457,cs),
(45,425,o),
(51,431,o),
(56,431,cs)
);
}
);
width = 102;
}
);
unicode = 42891;
},
{
glyphname = Germandbls;
lastChange = "2023-11-05 14:52:15 +0000";
layers = (
{
layerId = m01;
shapes = (
{
closed = 1;
nodes = (
(86,3,o),
(95,95,o),
(85,95,c),
(84,102,o),
(86,126,o),
(86,140,cs),
(86,146,o),
(91,167,o),
(86,174,cs),
(82,179,o),
(86,199,o),
(86,203,cs),
(86,230,o),
(95,233,o),
(87,245,cs),
(79,256,o),
(86,276,o),
(86,296,cs),
(86,302,o),
(91,310,o),
(86,314,cs),
(80,319,o),
(83,325,o),
(85,331,cs),
(91,350,o),
(92,360,o),
(91,385,cs),
(91,392,o),
(81,417,o),
(86,422,cs),
(92,429,o),
(85,435,o),
(85,442,cs),
(85,446,o),
(92,466,o),
(88,472,cs),
(77,489,o),
(85,512,o),
(85,512,cs),
(75,526,o),
(81,588,o),
(81,611,cs),
(81,628,o),
(84,652,o),
(80,664,c),
(307,664,ls),
(314,664,o),
(320,665,o),
(326,671,c),
(335,672,o),
(345,673,o),
(355,673,cs),
(363,673,o),
(370,672,o),
(377,669,cs),
(382,666,o),
(388,665,o),
(392,664,c),
(388,656,o),
(388,656,o),
(379,647,c),
(365,639,o),
(357,632,o),
(357,619,cs),
(357,604,o),
(352,595,o),
(338,588,cs),
(334,586,o),
(338,576,o),
(334,573,cs),
(329,570,o),
(324,566,o),
(322,561,c),
(294,511,o),
(272,505,o),
(241,458,cs),
(238,453,o),
(237,449,o),
(237,445,cs),
(237,435,o),
(244,429,o),
(244,428,c),
(295,370,o),
(312,332,o),
(367,269,cs),
(394,239,o),
(419,213,o),
(445,177,cs),
(454,164,o),
(459,156,o),
(469,150,c),
(362,150,ls),
(353,150,o),
(264,142,o),
(239,142,cs),
(221,142,o),
(222,150,o),
(204,150,cs),
(188,150,o),
(162,142,o),
(158,140,c),
(146,129,o),
(169,111,o),
(180,111,cs),
(428,111,ls),
(462,111,o),
(495,114,o),
(514,114,cs),
(526,114,o),
(531,129,o),
(531,136,cs),
(531,142,o),
(526,150,o),
(519,158,cs),
(481,193,o),
(452,239,o),
(415,279,cs),
(358,341,o),
(341,369,o),
(286,429,c),
(278,440,o),
(275,445,o),
(277,447,cs),
(318,488,o),
(382,588,o),
(412,641,cs),
(424,667,o),
(432,666,o),
(432,683,cs),
(432,693,o),
(427,700,o),
(414,700,cs),
(66,700,l),
(57,698,o),
(58,695,o),
(54,692,cs),
(44,687,o),
(40,669,o),
(40,649,cs),
(40,630,o),
(43,609,o),
(47,594,cs),
(52,576,o),
(54,560,o),
(54,542,cs),
(54,497,l),
(54,487,l),
(54,462,l),
(54,415,ls),
(54,404,o),
(56,389,o),
(56,377,cs),
(56,370,o),
(55,365,o),
(54,361,cs),
(47,335,o),
(45,308,o),
(45,281,cs),
(45,253,o),
(47,226,o),
(47,199,c),
(54,139,o),
(46,59,o),
(56,3,c)
);
}
);
width = 531;
}
);
unicode = 7838;
},
{
glyphname = Sobliquestroke;
lastChange = "2023-11-03 10:44:57 +0000";
layers = (
{
layerId = m01;
shapes = (
{
pos = (45,0);
ref = S;
},
{
closed = 1;
nodes = (
(89,211,o),
(126,212,o),
(151,242,c),
(171,244,o),
(225,283,o),
(238,296,c),
(259,299,o),
(337,349,o),
(349,365,c),
(411,400,o),
(470,434,o),
(561,490,cs),
(573,494,o),
(582,505,o),
(587,514,cs),
(591,521,o),
(592,526,o),
(589,532,c),
(584,531,o),
(571,535,o),
(540,515,cs),
(532,509,o),
(504,491,o),
(496,487,cs),
(432,447,o),
(548,515,o),
(312,373,c),
(295,367,o),
(285,359,o),
(272,346,cs),
(266,340,o),
(251,332,o),
(240,325,cs),
(212,313,o),
(121,263,o),
(95,248,c),
(65,222,o),
(56,214,o),
(51,204,cs),
(43,191,o),
(51,191,o),
(60,190,c)
);
}
);
width = 633;
}
);
unicode = 42920;
},
{
glyphname = T;
kernLeft = T;
kernRight = V;
lastChange = "2023-11-19 05:24:20 +0000";
layers = (
{
anchors = (
{
name = bottom;
pos = (270,0);
},
{
name = center;
pos = (274,350);
},
{
name = top;
pos = (261,700);
}
);
layerId = m01;
shapes = (
{
closed = 1;
nodes = (
(381,-5,o),
(389,-4,o),
(394,-2,cs),
(400,0,o),
(406,3,o),
(412,7,cs),
(419,14,o),
(406,30,o),
(393,30,cs),
(314,30,o),
(346,30,o),
(317,30,cs),
(296,30,o),
(289,36,o),
(289,56,c),
(289,639,l),
(289,652,o),
(299,658,o),
(307,665,cs),
(313,671,o),
(315,661,o),
(320,661,cs),
(446,661,ls),
(451,661,o),
(456,666,o),
(461,668,cs),
(468,671,o),
(470,655,o),
(470,649,cs),
(470,523,ls),
(470,518,o),
(468,511,o),
(471,507,cs),
(474,502,o),
(479,496,o),
(485,494,cs),
(492,492,o),
(493,499,o),
(495,504,c),
(501,512,o),
(503,521,o),
(503,531,cs),
(503,673,ls),
(503,677,o),
(505,682,o),
(503,686,cs),
(498,700,o),
(496,699,o),
(484,697,cs),
(477,696,o),
(470,694,o),
(463,694,cs),
(247,694,o),
(130,694,o),
(73,695,cs),
(58,695,o),
(49,686,o),
(49,672,cs),
(49,541,o),
(49,532,o),
(43,523,cs),
(37,513,o),
(42,501,o),
(53,495,c),
(56,494,o),
(62,495,o),
(65,497,cs),
(70,501,o),
(75,505,o),
(75,513,cs),
(74,523,o),
(75,533,o),
(75,647,cs),
(75,680,o),
(104,664,o),
(136,669,cs),
(143,670,o),
(181,670,o),
(186,666,cs),
(193,661,o),
(201,661,o),
(209,661,cs),
(251,661,ls),
(261,661,o),
(263,659,o),
(264,649,cs),
(264,639,o),
(263,574,o),
(263,564,cs),
(263,535,o),
(270,514,o),
(257,488,c),
(261,484,o),
(266,477,o),
(263,473,cs),
(248,458,o),
(255,415,o),
(261,395,c),
(252,388,o),
(265,345,o),
(255,183,cs),
(255,177,o),
(253,170,o),
(256,166,cs),
(263,156,o),
(267,148,o),
(256,137,c),
(254,134,o),
(255,125,o),
(258,121,cs),
(267,109,o),
(261,64,o),
(256,42,cs),
(254,33,o),
(252,33,o),
(243,30,cs),
(232,26,o),
(220,24,o),
(195,24,cs),
(185,24,o),
(175,26,o),
(162,33,c),
(151,26,o),
(138,24,o),
(131,13,cs),
(129,9,o),
(132,0,o),
(137,0,cs),
(148,-1,o),
(159,-1,o),
(170,-1,cs),
(347,2,ls),
(355,2,o),
(368,6,o),
(378,-3,cs)
);
}
);
width = 544;
}
);
unicode = 84;
},
{
glyphname = Tdiagonalstroke;
lastChange = "2023-11-11 14:33:12 +0000";
layers = (
{
layerId = m01;
shapes = (
{
closed = 1;
nodes = (
(179,-27,o),
(206,-2,o),
(204,37,c),
(218,52,o),
(219,73,o),
(220,92,c),
(234,109,o),
(237,128,o),
(236,148,c),
(257,216,o),
(276,284,o),
(298,351,cs),
(302,364,o),
(314,374,o),
(313,389,cs),
(310,414,o),
(324,420,o),
(329,437,cs),
(359,540,o),
(377,600,o),
(407,703,cs),
(412,714,o),
(412,728,o),
(410,738,cs),
(408,746,o),
(405,750,o),
(399,753,c),
(396,749,o),
(383,743,o),
(374,707,cs),
(372,698,o),
(364,665,o),
(361,657,cs),
(340,584,o),
(330,550,o),
(308,476,cs),
(301,455,o),
(292,431,o),
(289,411,cs),
(285,384,o),
(265,374,o),
(267,347,c),
(261,329,o),
(251,319,o),
(247,299,cs),
(242,279,o),
(220,220,o),
(223,198,c),
(215,183,o),
(212,170,o),
(211,152,cs),
(211,143,o),
(205,127,o),
(201,115,cs),
(189,87,o),
(167,32,o),
(159,3,c),
(154,-35,o),
(153,-48,o),
(155,-59,cs),
(158,-73,o),
(164,-68,o),
(172,-63,c)
);
},
{
ref = T;
}
);
width = 544;
}
);
unicode = 574;
},
{
glyphname = Thook;
lastChange = "2023-11-11 14:33:39 +0000";
layers = (
{
anchors = (
{
name = bottom;
pos = (270,0);
},
{
name = center;
pos = (274,350);
},
{
name = top;
pos = (261,700);
}
);
layerId = m01;
shapes = (
{
closed = 1;
nodes = (
(381,-5,o),
(389,-4,o),
(394,-2,cs),
(400,0,o),
(406,3,o),
(412,7,cs),
(419,14,o),
(406,30,o),
(393,30,cs),
(314,30,o),
(346,30,o),
(317,30,cs),
(296,30,o),
(289,36,o),
(289,56,c),
(289,639,l),
(289,652,o),
(299,658,o),
(307,665,cs),
(313,671,o),
(315,661,o),
(320,661,cs),
(446,661,ls),
(451,661,o),
(457,671,o),
(461,668,cs),
(474,659,o),
(504,660,o),
(503,673,c),
(503,677,o),
(505,682,o),
(503,686,cs),
(498,700,o),
(496,699,o),
(484,697,cs),
(477,696,o),
(470,694,o),
(463,694,cs),
(247,694,o),
(130,694,o),
(73,695,cs),
(58,695,o),
(49,686,o),
(49,672,cs),
(49,541,o),
(49,532,o),
(43,523,cs),
(37,513,o),
(42,501,o),
(53,495,c),
(56,494,o),
(62,495,o),
(65,497,cs),
(70,501,o),
(75,505,o),
(75,513,cs),
(74,523,o),
(75,533,o),
(75,647,cs),
(75,680,o),
(104,664,o),
(136,669,cs),
(143,670,o),
(181,670,o),
(186,666,cs),
(193,661,o),
(201,661,o),
(209,661,cs),
(251,661,ls),
(261,661,o),
(263,659,o),
(264,649,cs),
(264,639,o),
(263,574,o),
(263,564,cs),
(263,535,o),
(270,514,o),
(257,488,c),
(261,484,o),
(266,477,o),
(263,473,cs),
(248,458,o),
(255,415,o),
(261,395,c),
(252,388,o),
(265,345,o),
(255,183,cs),
(255,177,o),
(253,170,o),
(256,166,cs),
(263,156,o),
(267,148,o),
(256,137,c),
(254,134,o),
(255,125,o),
(258,121,cs),
(267,109,o),
(261,64,o),
(256,42,cs),
(254,33,o),
(252,33,o),
(243,30,cs),
(232,26,o),
(220,24,o),
(195,24,cs),
(185,24,o),
(175,26,o),
(162,33,c),
(151,26,o),
(138,24,o),
(131,13,cs),
(129,9,o),
(132,0,o),
(137,0,cs),
(148,-1,o),
(159,-1,o),
(170,-1,cs),
(347,2,ls),
(355,2,o),
(368,6,o),
(378,-3,cs)
);
}
);
width = 544;
}
);
unicode = 428;
},
{
glyphname = Tretroflexhook;
lastChange = "2023-11-11 14:35:51 +0000";
layers = (
{
anchors = (
{
name = bottom;
pos = (270,0);
},
{
name = center;
pos = (274,350);
},
{
name = top;
pos = (261,700);
}
);
layerId = m01;
shapes = (
{
closed = 1;
nodes = (
(298,-74,o),
(284,-77,o),
(289,-50,c),
(289,639,l),
(289,652,o),
(299,658,o),
(307,665,cs),
(313,671,o),
(315,661,o),
(320,661,cs),
(446,661,ls),
(451,661,o),
(456,666,o),
(461,668,cs),
(468,671,o),
(470,655,o),
(470,649,cs),
(470,523,ls),
(470,518,o),
(468,511,o),
(471,507,cs),
(474,502,o),
(479,496,o),
(485,494,cs),
(492,492,o),
(493,499,o),
(495,504,c),
(501,512,o),
(503,521,o),
(503,531,cs),
(503,673,ls),
(503,677,o),
(505,682,o),
(503,686,cs),
(498,700,o),
(496,699,o),
(484,697,cs),
(477,696,o),
(470,694,o),
(463,694,cs),
(247,694,o),
(130,694,o),
(73,695,cs),
(58,695,o),
(49,686,o),
(49,672,cs),
(49,541,o),
(49,532,o),
(43,523,cs),
(37,513,o),
(42,501,o),
(53,495,c),
(56,494,o),
(62,495,o),
(65,497,cs),
(70,501,o),
(75,505,o),
(75,513,cs),
(74,523,o),
(75,533,o),
(75,647,cs),
(75,680,o),
(104,664,o),
(136,669,cs),
(143,670,o),
(181,670,o),
(186,666,cs),
(193,661,o),
(201,661,o),
(209,661,cs),
(251,661,ls),
(261,661,o),
(263,659,o),
(264,649,cs),
(264,639,o),
(263,574,o),
(263,564,cs),
(263,535,o),
(270,514,o),
(257,488,c),
(261,484,o),
(266,477,o),
(263,473,cs),
(248,458,o),
(255,415,o),
(261,395,c),
(252,388,o),
(265,345,o),
(255,183,cs),
(255,177,o),
(253,170,o),
(256,166,cs),
(263,156,o),
(267,148,o),
(256,137,c),
(254,134,o),
(255,125,o),
(258,121,cs),
(267,109,o),
(263,-40,o),
(258,-62,c)
);
},
{
closed = 1;
nodes = (
(258,-80,l),
(264,-89,o),
(257,-105,o),
(258,-118,cs),
(261,-151,o),
(265,-176,o),
(302,-178,cs),
(307,-178,o),
(303,-178,o),
(334,-177,cs),
(341,-177,o),
(368,-176,o),
(373,-178,cs),
(391,-185,o),
(402,-182,o),
(418,-172,c),
(432,-165,o),
(435,-158,o),
(418,-148,c),
(410,-152,o),
(404,-145,o),
(397,-146,cs),
(358,-151,o),
(365,-143,o),
(352,-146,cs),
(345,-148,o),
(326,-147,o),
(319,-147,cs),
(273,-149,o),
(297,-63,o),
(284,-48,c),
(284,-40,o),
(258,-38,o),
(258,-54,c)
);
}
);
width = 544;
}
);
unicode = 430;
},
{
glyphname = U;
lastChange = "2023-11-05 14:43:31 +0000";
layers = (
{
anchors = (
{
name = bottom;
pos = (248,0);
},
{
name = ogonek;
pos = (499,46);
},
{
name = top;
pos = (252,697);
},
{
name = topright;
pos = (378,998);
}
);
layerId = m01;
shapes = (
{
closed = 1;
nodes = (
(429,0,o),
(436,0,o),
(443,1,cs),
(446,1,o),
(450,3,o),
(450,4,cs),
(452,14,o),
(461,22,o),
(461,32,cs),
(461,35,o),
(460,39,o),
(457,43,cs),
(451,49,o),
(452,55,o),
(457,64,cs),
(458,66,o),
(461,73,o),
(459,75,cs),
(451,83,o),
(452,93,o),
(452,103,cs),
(452,198,ls),
(452,209,o),
(453,219,o),
(458,231,cs),
(464,245,o),
(464,259,o),
(455,271,cs),
(453,274,o),
(452,280,o),
(454,282,cs),
(460,290,o),
(461,298,o),
(461,306,cs),
(460,314,o),
(456,332,o),
(461,348,cs),
(466,360,o),
(447,362,o),
(454,376,cs),
(462,388,o),
(460,405,o),
(460,413,cs),
(461,418,o),
(461,425,o),
(458,429,cs),
(451,438,o),
(452,448,o),
(452,457,cs),
(452,542,ls),
(452,548,o),
(450,555,o),
(453,558,cs),
(459,566,o),
(461,574,o),
(461,582,cs),
(461,591,o),
(461,644,o),
(461,654,cs),
(461,669,o),
(454,681,o),
(446,694,c),
(442,705,o),
(431,696,o),
(428,689,c),
(427,684,o),
(426,678,o),
(426,610,c),
(426,601,o),
(427,593,o),
(433,585,c),
(427,576,o),
(425,566,o),
(425,556,cs),
(425,545,o),
(426,413,o),
(426,383,cs),
(426,376,o),
(423,372,o),
(416,372,cs),
(317,372,l),
(308,373,o),
(301,371,o),
(293,366,cs),
(284,359,o),
(279,374,o),
(271,372,cs),
(263,370,o),
(257,362,o),
(249,372,cs),
(248,373,o),
(243,372,o),
(241,371,c),
(233,362,o),
(225,364,o),
(215,371,cs),
(205,379,o),
(196,364,o),
(185,369,cs),
(182,370,o),
(181,370,o),
(178,369,cs),
(167,365,o),
(120,370,o),
(119,369,cs),
(113,364,o),
(91,364,o),
(86,364,cs),
(77,364,o),
(74,367,o),
(74,378,cs),
(74,632,o),
(74,675,o),
(74,679,cs),
(74,683,o),
(73,687,o),
(70,690,cs),
(61,703,o),
(49,703,o),
(49,687,cs),
(47,672,o),
(54,424,o),
(43,413,cs),
(41,411,o),
(40,404,o),
(42,402,cs),
(49,394,o),
(49,386,o),
(49,378,cs),
(49,350,o),
(49,323,o),
(48,296,cs),
(48,291,o),
(48,284,o),
(45,280,cs),
(41,274,o),
(40,267,o),
(40,260,cs),
(40,13,ls),
(40,3,o),
(43,0,o),
(53,0,cs)
);
},
{
closed = 1;
nodes = (
(75,26,o),
(66,34,o),
(66,46,cs),
(65,96,o),
(65,104,o),
(66,154,cs),
(66,166,o),
(76,180,o),
(74,192,cs),
(73,197,o),
(73,203,o),
(74,325,c),
(74,335,o),
(77,338,o),
(87,338,cs),
(413,338,ls),
(423,338,o),
(426,335,o),
(426,326,c),
(426,11,o),
(426,44,o),
(426,39,cs),
(426,27,o),
(424,26,o),
(410,26,cs),
(405,26,o),
(398,26,o),
(88,26,cs)
);
},
{
closed = 1;
nodes = (
(277,168,o),
(280,175,o),
(281,181,cs),
(284,188,o),
(281,194,o),
(276,199,cs),
(267,210,o),
(234,226,o),
(223,215,c),
(218,207,o),
(212,198,o),
(210,188,cs),
(210,182,o),
(218,174,o),
(220,166,cs),
(224,147,o),
(249,147,o),
(273,164,cs)
);
},
{
closed = 1;
nodes = (
(248,176,o),
(241,176,o),
(240,181,cs),
(239,183,o),
(237,185,o),
(237,187,cs),
(237,190,o),
(239,192,o),
(240,194,c),
(243,197,o),
(253,193,o),
(255,190,cs),
(256,189,o),
(257,187,o),
(256,185,cs),
(256,183,o),
(255,181,o),
(254,180,cs)
);
},
{
closed = 1;
nodes = (
(273,498,o),
(281,521,o),
(281,530,cs),
(281,546,o),
(266,559,o),
(241,559,cs),
(228,561,o),
(220,555,o),
(212,545,cs),
(207,538,o),
(207,529,o),
(212,522,cs),
(222,512,o),
(235,498,o),
(249,498,cs)
);
},
{
closed = 1;
nodes = (
(242,520,o),
(238,523,o),
(236,527,cs),
(235,528,o),
(235,530,o),
(236,533,cs),
(238,535,o),
(240,537,o),
(243,536,cs),
(250,536,o),
(253,533,o),
(253,529,cs),
(253,527,o),
(252,520,o),
(246,520,cs)
);
}
);
width = 502;
}
);
unicode = 85;
},
{
glyphname = Ubar;
lastChange = "2023-11-11 14:36:58 +0000";
layers = (
{
layerId = m01;
shapes = (
{
pos = (41,0);
ref = U;
},
{
closed = 1;
nodes = (
(426,367,o),
(434,340,o),
(480,338,cs),
(487,338,o),
(506,339,o),
(513,337,cs),
(526,334,o),
(519,342,o),
(558,337,cs),
(565,336,o),
(571,343,o),
(579,339,c),
(596,349,o),
(593,356,o),
(579,363,c),
(563,373,o),
(552,376,o),
(534,369,cs),
(529,367,o),
(502,368,o),
(495,368,cs),
(464,369,o),
(468,369,o),
(463,369,cs)
);
},
{
closed = 1;
nodes = (
(-14,367,o),
(-6,340,o),
(40,338,cs),
(47,338,o),
(66,339,o),
(73,337,cs),
(86,334,o),
(79,342,o),
(118,337,cs),
(125,336,o),
(131,343,o),
(139,339,c),
(156,349,o),
(153,356,o),
(139,363,c),
(107,357,o),
(112,376,o),
(94,369,cs),
(89,367,o),
(62,368,o),
(55,368,cs),
(24,369,o),
(28,369,o),
(23,369,cs)
);
}
);
width = 591;
}
);
unicode = 580;
},
{
glyphname = "Upsilon-latin";
lastChange = "2023-11-12 17:08:19 +0000";
layers = (
{
anchors = (
{
name = bottom;
pos = (448,51);
},
{
name = top;
pos = (412,697);
}
);
layerId = m01;
shapes = (
{
closed = 1;
nodes = (
(731,-3,ls),
(743,-3,o),
(750,7,o),
(750,20,cs),
(750,23,o),
(709,126,o),
(699,140,cs),
(687,157,o),
(685,177,o),
(678,194,cs),
(492,619,o),
(543,505,o),
(482,664,c),
(590,664,o),
(602,662,o),
(613,662,cs),
(620,662,o),
(626,677,o),
(626,687,cs),
(626,697,o),
(620,698,o),
(613,699,cs),
(609,700,o),
(585,707,o),
(578,708,c),
(571,700,o),
(564,698,o),
(557,698,cs),
(487,698,o),
(521,699,o),
(451,698,cs),
(448,698,o),
(444,694,o),
(444,691,cs),
(443,684,o),
(441,673,o),
(445,669,cs),
(454,659,o),
(450,647,o),
(455,636,cs),
(465,616,o),
(621,262,o),
(621,236,cs),
(621,233,o),
(681,106,o),
(702,59,cs),
(705,50,o),
(700,36,o),
(693,34,c),
(535,31,o),
(624,34,o),
(541,34,cs),
(537,34,o),
(532,38,o),
(528,41,c),
(523,43,o),
(521,31,o),
(515,36,c),
(511,43,o),
(443,43,o),
(439,39,cs),
(431,28,o),
(427,43,o),
(420,42,cs),
(414,41,o),
(407,42,o),
(401,42,cs),
(382,42,o),
(381,32,o),
(377,36,cs),
(371,44,o),
(363,42,o),
(356,42,cs),
(124,41,ls),
(118,41,o),
(110,42,o),
(106,39,cs),
(99,33,o),
(93,32,o),
(86,32,cs),
(64,32,o),
(56,44,o),
(56,54,cs),
(56,75,o),
(85,109,o),
(87,130,cs),
(88,139,o),
(91,148,o),
(96,153,cs),
(110,169,o),
(296,632,o),
(309,653,cs),
(318,667,o),
(313,697,o),
(295,699,cs),
(287,699,o),
(279,697,o),
(271,697,cs),
(259,697,o),
(249,707,o),
(238,707,cs),
(233,707,o),
(228,706,o),
(224,701,c),
(215,715,o),
(209,695,o),
(200,698,cs),
(192,701,o),
(183,699,o),
(140,699,cs),
(133,699,o),
(129,694,o),
(125,688,c),
(121,683,o),
(122,675,o),
(126,673,cs),
(138,669,o),
(147,663,o),
(159,663,cs),
(174,663,o),
(259,664,o),
(266,663,cs),
(274,663,o),
(277,656,o),
(273,649,cs),
(258,616,o),
(82,206,o),
(79,186,cs),
(74,165,o),
(10,42,o),
(10,21,cs),
(10,14,o),
(12,9,o),
(15,4,cs),
(27,-12,o),
(56,23,o),
(72,11,cs),
(87,1,o),
(90,0,o),
(102,11,c),
(112,19,o),
(117,3,o),
(132,3,cs),
(222,4,o),
(228,9,o),
(236,9,cs),
(237,9,o),
(271,4,o),
(347,4,cs),
(356,4,o),
(365,5,o),
(374,12,cs),
(377,14,o),
(383,14,o),
(386,12,c),
(392,5,o),
(400,4,o),
(408,4,cs),
(546,2,o),
(558,6,o),
(605,6,c),
(684,-1,o),
(693,-3,o),
(702,-3,cs)
);
},
{
closed = 1;
nodes = (
(392,240,o),
(415,248,o),
(415,272,cs),
(415,286,o),
(401,299,o),
(391,309,cs),
(384,314,o),
(375,314,o),
(368,309,cs),
(358,301,o),
(352,293,o),
(354,280,cs),
(354,255,o),
(367,240,o),
(383,240,cs)
);
},
{
closed = 1;
nodes = (
(379,268,o),
(376,271,o),
(376,278,cs),
(375,281,o),
(377,283,o),
(379,285,cs),
(382,286,o),
(384,286,o),
(385,285,cs),
(389,283,o),
(392,279,o),
(392,275,cs),
(392,269,o),
(385,268,o),
(383,268,cs)
);
}
);
width = 760;
}
);
unicode = 433;
},
{
glyphname = V;
kernLeft = A;
lastChange = "2023-11-11 07:34:01 +0000";
layers = (
{
anchors = (
{
name = bottom;
pos = (267,0);
},
{
name = top;
pos = (270,700);
}
);
layerId = m01;
shapes = (
{
closed = 1;
nodes = (
(235,-2,o),
(252,-2,o),
(254,4,cs),
(260,20,o),
(270,34,o),
(279,47,cs),
(290,62,o),
(297,79,o),
(303,96,cs),
(310,117,o),
(321,136,o),
(329,157,cs),
(349,201,o),
(378,241,o),
(398,285,cs),
(405,300,o),
(411,316,o),
(424,328,cs),
(426,330,o),
(427,333,o),
(427,335,cs),
(427,353,o),
(439,367,o),
(446,381,cs),
(451,391,o),
(454,401,o),
(454,410,cs),
(454,416,o),
(453,421,o),
(451,426,cs),
(443,443,o),
(442,467,o),
(452,486,cs),
(457,494,o),
(453,506,o),
(453,516,c),
(446,523,o),
(444,531,o),
(444,539,c),
(445,566,o),
(445,578,o),
(452,590,cs),
(453,592,o),
(454,594,o),
(454,597,cs),
(454,606,o),
(443,615,o),
(443,626,cs),
(443,627,o),
(444,647,o),
(450,654,cs),
(453,658,o),
(453,665,o),
(453,670,cs),
(453,686,o),
(445,695,o),
(430,695,cs),
(414,695,o),
(414,692,o),
(412,678,cs),
(412,677,o),
(419,662,o),
(419,655,cs),
(419,586,o),
(419,578,o),
(425,571,cs),
(427,569,o),
(427,562,o),
(425,560,cs),
(417,551,o),
(419,541,o),
(419,418,cs),
(419,410,o),
(418,401,o),
(418,393,c),
(407,386,o),
(412,372,o),
(406,362,cs),
(387,330,o),
(373,295,o),
(353,263,cs),
(343,248,o),
(334,233,o),
(327,217,c),
(292,217,o),
(187,217,o),
(169,217,cs),
(163,217,o),
(158,216,o),
(153,213,c),
(149,222,o),
(126,261,o),
(126,274,cs),
(126,288,o),
(111,293,o),
(106,306,cs),
(99,329,o),
(90,351,o),
(69,389,cs),
(67,394,o),
(66,400,o),
(66,406,cs),
(66,439,ls),
(66,444,o),
(65,448,o),
(66,452,cs),
(70,462,o),
(81,471,o),
(67,482,c),
(74,491,o),
(75,501,o),
(75,511,c),
(75,667,l),
(76,671,o),
(76,680,o),
(76,684,cs),
(75,691,o),
(64,698,o),
(54,698,cs),
(46,698,o),
(40,694,o),
(40,685,cs),
(40,399,ls),
(40,391,o),
(43,384,o),
(46,376,cs),
(62,340,o),
(83,308,o),
(95,270,cs),
(102,248,o),
(151,166,o),
(154,142,c),
(180,112,o),
(190,73,o),
(211,40,cs),
(218,28,o),
(224,16,o),
(231,4,cs)
);
},
{
closed = 1;
nodes = (
(242,43,o),
(242,44,o),
(238,52,cs),
(210,93,o),
(187,144,o),
(165,188,c),
(176,188,o),
(195,182,o),
(208,191,cs),
(213,194,o),
(229,191,o),
(233,191,cs),
(314,191,l),
(309,180,o),
(264,87,o),
(246,51,cs)
);
},
{
closed = 1;
nodes = (
(259,356,o),
(267,362,o),
(275,372,cs),
(280,379,o),
(280,388,o),
(275,395,cs),
(265,405,o),
(252,419,o),
(238,419,cs),
(214,419,o),
(206,396,o),
(206,387,cs),
(206,371,o),
(221,358,o),
(246,358,cs)
);
},
{
closed = 1;
nodes = (
(237,380,o),
(234,383,o),
(234,387,cs),
(234,389,o),
(235,396,o),
(241,396,cs),
(245,396,o),
(249,393,o),
(251,389,cs),
(252,388,o),
(252,386,o),
(251,383,cs),
(249,381,o),
(247,379,o),
(244,380,cs)
);
}
);
width = 495;
}
);
unicode = 86;
},
{
glyphname = "Gamma-latin";
lastChange = "2023-11-04 17:20:06 +0000";
layers = (
{
layerId = m01;
shapes = (
{
closed = 1;
nodes = (
(572,686,o),
(562,683,o),
(558,674,cs),
(546,648,o),
(535,626,o),
(520,601,cs),
(511,586,o),
(508,569,o),
(497,554,cs),
(486,540,o),
(404,388,o),
(395,373,cs),
(387,358,o),
(377,343,o),
(370,327,cs),
(354,292,o),
(337,257,o),
(312,217,c),
(309,216,o),
(302,216,o),
(302,218,c),
(287,249,o),
(278,244,o),
(273,278,c),
(255,290,o),
(256,312,o),
(245,327,cs),
(235,341,o),
(230,359,o),
(214,370,c),
(197,403,o),
(90,590,o),
(76,614,c),
(63,622,o),
(39,671,o),
(32,683,cs),
(31,686,o),
(28,687,o),
(27,689,c),
(15,702,o),
(0,687,o),
(0,670,c),
(35,620,l),
(46,606,o),
(103,507,o),
(112,499,cs),
(116,495,o),
(119,490,o),
(119,485,cs),
(119,475,o),
(127,466,o),
(133,460,cs),
(141,451,o),
(163,414,o),
(163,403,cs),
(164,394,o),
(172,383,o),
(180,374,cs),
(188,362,o),
(278,205,o),
(286,191,cs),
(292,183,o),
(292,175,o),
(284,168,cs),
(276,162,o),
(271,155,o),
(273,145,c),
(258,126,o),
(253,104,o),
(236,87,cs),
(227,76,o),
(228,62,o),
(215,51,cs),
(206,43,o),
(202,30,o),
(196,19,cs),
(194,14,o),
(199,3,o),
(202,3,cs),
(212,2,o),
(222,2,o),
(232,2,c),
(242,9,o),
(296,10,o),
(298,10,cs),
(330,13,o),
(315,2,o),
(356,2,cs),
(363,2,o),
(381,2,o),
(388,2,cs),
(398,2,o),
(406,10,o),
(415,12,c),
(417,13,o),
(414,23,o),
(413,26,c),
(401,42,o),
(386,56,o),
(380,76,cs),
(378,87,o),
(369,99,o),
(362,108,cs),
(356,116,o),
(348,121,o),
(349,132,c),
(350,134,o),
(346,139,o),
(343,141,cs),
(329,149,o),
(334,166,o),
(325,177,cs),
(321,182,o),
(326,189,o),
(330,194,c),
(496,495,o),
(551,599,o),
(555,604,cs),
(564,617,o),
(554,624,o),
(588,670,c),
(600,685,o),
(592,709,o),
(578,692,cs)
);
},
{
closed = 1;
nodes = (
(286,536,o),
(278,530,o),
(270,520,cs),
(265,513,o),
(265,504,o),
(270,497,cs),
(280,487,o),
(293,473,o),
(307,473,cs),
(331,473,o),
(339,496,o),
(339,505,cs),
(339,521,o),
(324,534,o),
(299,534,cs)
);
},
{
closed = 1;
nodes = (
(308,512,o),
(311,509,o),
(311,505,cs),
(311,503,o),
(310,496,o),
(304,496,cs),
(300,496,o),
(296,499,o),
(294,503,cs),
(293,504,o),
(293,506,o),
(294,509,cs),
(296,511,o),
(298,513,o),
(301,512,cs)
);
},
{
closed = 1;
nodes = (
(303,145,o),
(306,147,o),
(312,138,cs),
(330,107,o),
(348,75,o),
(366,43,c),
(365,37,o),
(364,34,o),
(362,34,cs),
(339,34,o),
(320,27,o),
(301,39,cs),
(298,41,o),
(276,34,o),
(275,35,cs),
(264,46,o),
(243,35,o),
(248,51,cs),
(265,81,o),
(282,112,o),
(300,142,c)
);
}
);
width = 594;
}
);
unicode = 404;
},
{
glyphname = Vhook;
lastChange = "2023-11-12 16:50:20 +0000";
layers = (
{
anchors = (
{
name = bottom;
pos = (255,0);
},
{
name = top;
pos = (258,700);
}
);
layerId = m01;
shapes = (
{
closed = 1;
nodes = (
(240,386,o),
(248,392,o),
(256,402,cs),
(261,409,o),
(261,418,o),
(256,425,c),
(246,435,o),
(233,449,o),
(219,449,cs),
(195,449,o),
(187,426,o),
(187,417,cs),
(187,401,o),
(202,388,o),
(227,388,c)
);
},
{
closed = 1;
nodes = (
(46,24,o),
(49,14,o),
(54,6,cs),
(60,-3,o),
(81,1,o),
(83,4,cs),
(92,18,o),
(107,28,o),
(119,38,cs),
(133,49,o),
(145,69,o),
(155,84,cs),
(168,101,o),
(183,117,o),
(198,135,cs),
(230,171,o),
(269,202,o),
(299,238,cs),
(311,251,o),
(378,330,o),
(394,338,c),
(396,340,o),
(398,342,o),
(399,344,cs),
(404,361,o),
(419,371,o),
(429,383,c),
(445,396,o),
(442,398,o),
(442,410,cs),
(442,416,o),
(441,421,o),
(439,426,cs),
(431,443,o),
(430,467,o),
(440,486,cs),
(445,494,o),
(441,506,o),
(441,516,c),
(434,523,o),
(432,531,o),
(432,539,cs),
(433,566,o),
(433,578,o),
(440,590,cs),
(441,592,o),
(442,594,o),
(442,597,cs),
(442,606,o),
(431,615,o),
(431,626,cs),
(431,627,o),
(432,651,o),
(438,658,cs),
(441,662,o),
(441,669,o),
(441,674,cs),
(441,690,o),
(433,699,o),
(418,699,cs),
(402,699,o),
(262,704,o),
(260,690,cs),
(260,689,o),
(249,674,o),
(269,673,cs),
(270,673,o),
(279,673,o),
(291,673,cs),
(296,673,o),
(323,668,o),
(329,673,cs),
(334,677,o),
(339,670,o),
(344,673,cs),
(349,676,o),
(365,686,o),
(380,673,cs),
(380,673,o),
(407,672,o),
(407,670,cs),
(407,601,o),
(407,578,o),
(413,571,cs),
(415,569,o),
(415,562,o),
(413,560,cs),
(405,551,o),
(407,541,o),
(407,418,cs),
(407,388,o),
(409,399,o),
(386,376,cs),
(359,350,o),
(278,255,o),
(250,230,cs),
(236,218,o),
(234,200,o),
(216,200,cs),
(202,200,o),
(103,204,o),
(72,197,c),
(73,251,o),
(72,305,o),
(74,359,cs),
(74,370,o),
(83,380,o),
(77,391,cs),
(67,410,o),
(79,418,o),
(79,431,cs),
(77,663,l),
(79,673,o),
(75,684,o),
(70,691,cs),
(66,697,o),
(62,699,o),
(55,700,c),
(54,696,o),
(43,689,o),
(45,659,cs),
(45,651,o),
(47,625,o),
(47,617,cs),
(47,557,o),
(48,519,o),
(48,457,cs),
(47,439,o),
(45,419,o),
(48,403,cs),
(52,381,o),
(36,369,o),
(45,348,c),
(45,333,o),
(38,323,o),
(40,307,cs),
(41,290,o),
(37,240,o),
(46,224,c),
(42,210,o),
(43,200,o),
(47,185,c),
(50,179,o),
(49,165,o),
(48,155,cs),
(45,131,o),
(39,79,o),
(40,55,c)
);
},
{
closed = 1;
nodes = (
(78,151,o),
(79,160,o),
(78,169,c),
(192,172,ls),
(203,172,o),
(116,80,o),
(88,52,cs),
(74,38,l),
(78,55,o),
(82,77,o),
(74,96,c),
(83,111,o),
(78,127,o),
(73,142,c)
);
},
{
closed = 1;
nodes = (
(215,419,o),
(216,426,o),
(222,426,cs),
(226,426,o),
(230,423,o),
(232,419,c),
(233,418,o),
(233,416,o),
(232,413,c),
(230,411,o),
(228,409,o),
(225,410,c),
(218,410,o),
(215,413,o),
(215,417,cs)
);
}
);
width = 483;
}
);
unicode = 434;
},
{
glyphname = Vturned;
lastChange = "2023-11-11 14:39:30 +0000";
layers = (
{
layerId = m01;
shapes = (
{
closed = 1;
nodes = (
(475,276,o),
(530,140,o),
(534,134,cs),
(543,117,o),
(541,97,o),
(575,37,c),
(587,17,o),
(579,-14,o),
(565,8,cs),
(559,16,o),
(549,20,o),
(545,32,cs),
(533,65,o),
(514,105,o),
(499,138,cs),
(490,157,o),
(487,179,o),
(476,199,cs),
(465,217,o),
(383,415,o),
(374,435,cs),
(366,454,o),
(356,474,o),
(349,495,cs),
(333,540,o),
(316,586,o),
(291,638,c),
(282,661,l),
(279,663,o),
(272,661,o),
(272,659,c),
(261,617,o),
(251,622,o),
(250,579,c),
(234,561,o),
(238,533,o),
(229,513,cs),
(220,494,o),
(218,470,o),
(203,453,c),
(190,409,o),
(106,156,o),
(95,122,c),
(83,110,o),
(64,32,o),
(59,15,cs),
(58,12,o),
(55,9,o),
(54,7,c),
(44,-11,o),
(27,5,o),
(25,26,c),
(54,108,l),
(65,126,o),
(109,262,o),
(117,272,cs),
(121,279,o),
(123,285,o),
(122,291,cs),
(121,304,o),
(128,317,o),
(133,324,cs),
(140,338,o),
(157,388,o),
(156,402,cs),
(156,413,o),
(163,430,o),
(169,441,cs),
(176,458,o),
(246,672,o),
(253,690,cs),
(260,708,o),
(291,720,o),
(309,668,c)
);
},
{
closed = 1;
nodes = (
(306,224,o),
(321,237,o),
(321,253,cs),
(321,262,o),
(313,285,o),
(289,285,cs),
(275,285,o),
(262,271,o),
(252,261,cs),
(247,254,o),
(247,245,o),
(252,238,cs),
(260,228,o),
(268,222,o),
(281,224,cs)
);
},
{
closed = 1;
nodes = (
(280,245,o),
(278,247,o),
(276,249,cs),
(275,252,o),
(275,254,o),
(276,255,cs),
(278,259,o),
(282,262,o),
(286,262,cs),
(292,262,o),
(293,255,o),
(293,253,cs),
(293,249,o),
(290,246,o),
(283,246,cs)
);
}
);
width = 600;
}
);
unicode = 581;
},
{
glyphname = W;
lastChange = "2023-11-05 14:43:47 +0000";
layers = (
{
anchors = (
{
name = bottom;
pos = (329,0);
},
{
name = top;
pos = (329,700);
}
);
layerId = m01;
shapes = (
{
closed = 1;
nodes = (
(632,-11,o),
(639,17,o),
(645,32,c),
(637,51,l),
(637,124,ls),
(637,147,o),
(645,160,o),
(645,183,cs),
(645,205,l),
(632,214,o),
(647,221,o),
(645,228,cs),
(642,237,o),
(634,249,o),
(641,255,cs),
(647,262,o),
(648,269,o),
(643,276,cs),
(634,287,o),
(638,300,o),
(638,312,c),
(644,318,o),
(646,324,o),
(646,330,cs),
(646,360,o),
(645,512,o),
(645,565,cs),
(645,571,o),
(645,577,o),
(646,583,cs),
(646,590,o),
(640,596,o),
(639,600,cs),
(639,606,o),
(645,610,o),
(639,616,cs),
(635,620,o),
(645,631,o),
(645,636,cs),
(646,644,o),
(646,674,o),
(645,681,c),
(642,689,o),
(611,699,o),
(611,673,cs),
(611,457,ls),
(611,448,o),
(613,440,o),
(618,433,c),
(611,426,o),
(610,418,o),
(610,410,cs),
(610,400,o),
(612,391,o),
(612,381,cs),
(611,287,o),
(611,191,o),
(611,97,cs),
(611,78,o),
(604,81,o),
(595,94,cs),
(591,99,o),
(536,203,o),
(370,504,c),
(366,509,o),
(361,516,o),
(365,521,cs),
(374,532,o),
(369,549,o),
(383,557,cs),
(386,559,o),
(390,564,o),
(389,566,c),
(388,577,o),
(396,582,o),
(402,590,cs),
(409,599,o),
(418,611,o),
(420,622,cs),
(426,642,o),
(441,656,o),
(453,672,c),
(454,675,o),
(457,685,o),
(455,686,c),
(446,688,o),
(438,696,o),
(428,696,cs),
(421,696,o),
(403,696,o),
(396,696,cs),
(355,696,o),
(370,685,o),
(338,688,cs),
(336,688,o),
(282,689,o),
(272,696,c),
(262,696,o),
(252,696,o),
(242,695,cs),
(239,695,o),
(234,684,o),
(236,679,cs),
(242,668,o),
(246,655,o),
(255,647,cs),
(268,636,o),
(267,622,o),
(276,611,cs),
(293,594,o),
(298,572,o),
(313,553,c),
(311,543,o),
(316,536,o),
(324,530,cs),
(332,523,o),
(332,515,o),
(326,507,cs),
(318,493,o),
(228,336,o),
(220,324,cs),
(212,315,o),
(204,304,o),
(203,295,cs),
(203,284,o),
(181,247,o),
(173,238,cs),
(167,232,o),
(159,223,o),
(159,213,cs),
(159,208,o),
(156,203,o),
(152,199,cs),
(143,191,o),
(86,92,o),
(75,78,cs),
(72,73,o),
(66,75,o),
(66,81,cs),
(66,214,ls),
(66,219,o),
(64,225,o),
(68,229,c),
(67,289,l),
(67,290,o),
(75,293,o),
(74,303,c),
(68,309,o),
(66,315,o),
(74,321,c),
(74,328,o),
(73,358,o),
(67,365,c),
(66,367,o),
(67,372,o),
(69,375,cs),
(78,385,o),
(78,398,o),
(72,410,cs),
(67,420,o),
(66,429,o),
(66,440,cs),
(66,523,ls),
(66,528,o),
(64,533,o),
(66,538,cs),
(69,545,o),
(79,549,o),
(71,557,cs),
(63,565,o),
(75,570,o),
(74,577,c),
(74,669,l),
(74,671,o),
(75,674,o),
(73,676,cs),
(46,700,o),
(40,678,o),
(40,670,c),
(40,28,ls),
(40,11,o),
(55,-4,o),
(67,9,c),
(68,11,o),
(71,12,o),
(72,15,cs),
(79,27,o),
(103,76,o),
(116,84,c),
(130,108,o),
(237,295,o),
(254,328,c),
(270,339,o),
(275,357,o),
(285,371,cs),
(296,386,o),
(295,408,o),
(313,420,c),
(318,454,o),
(327,449,o),
(342,480,c),
(342,482,o),
(349,482,o),
(352,481,c),
(377,441,o),
(394,406,o),
(410,371,cs),
(417,355,o),
(427,340,o),
(435,325,cs),
(444,310,o),
(526,158,o),
(537,144,cs),
(548,129,o),
(551,112,o),
(560,97,cs),
(575,72,o),
(586,50,o),
(598,24,cs),
(602,15,o),
(612,12,o),
(618,6,cs)
);
},
{
closed = 1;
nodes = (
(364,164,o),
(379,177,o),
(379,193,cs),
(379,202,o),
(371,225,o),
(347,225,cs),
(333,225,o),
(320,211,o),
(310,201,cs),
(305,194,o),
(305,185,o),
(310,178,cs),
(318,168,o),
(326,162,o),
(339,164,cs)
);
},
{
closed = 1;
nodes = (
(338,185,o),
(336,187,o),
(334,189,cs),
(333,192,o),
(333,194,o),
(334,195,cs),
(336,199,o),
(340,202,o),
(344,202,cs),
(350,202,o),
(351,195,o),
(351,193,cs),
(351,189,o),
(348,186,o),
(341,186,cs)
);
},
{
closed = 1;
nodes = (
(322,586,o),
(305,617,o),
(288,647,cs),
(283,663,o),
(304,652,o),
(315,663,cs),
(316,664,o),
(338,657,o),
(341,659,cs),
(360,671,o),
(379,664,o),
(402,664,cs),
(404,664,o),
(405,661,o),
(406,655,c),
(388,623,o),
(370,591,o),
(352,560,cs),
(346,551,o),
(343,553,o),
(340,556,c)
);
}
);
width = 686;
}
);
unicode = 87;
},
{
glyphname = Whook;
lastChange = "2023-11-04 17:23:06 +0000";
layers = (
{
layerId = m01;
shapes = (
{
closed = 1;
nodes = (
(650,656,o),
(698,657,o),
(710,657,cs),
(738,657,o),
(767,662,o),
(795,666,cs),
(804,668,o),
(804,679,o),
(795,680,cs),
(786,681,o),
(786,686,o),
(779,687,cs),
(770,688,o),
(760,689,o),
(749,689,cs),
(730,689,o),
(670,689,o),
(650,689,c),
(647,663,l),
(647,657,l)
);
},
{
ref = W;
}
);
width = 746;
}
);
unicode = 11378;
},
{
glyphname = X;
lastChange = "2023-11-05 14:43:51 +0000";
layers = (
{
anchors = (
{
name = bottom;
pos = (294,0);
},
{
name = top;
pos = (294,700);
}
);
layerId = m01;
shapes = (
{
closed = 1;
nodes = (
(72,1,o),
(78,5,o),
(78,18,cs),
(78,27,o),
(77,70,o),
(70,81,cs),
(67,85,o),
(70,96,o),
(73,102,cs),
(77,111,o),
(78,131,o),
(78,139,cs),
(78,159,o),
(80,172,o),
(94,184,cs),
(105,193,o),
(141,233,o),
(157,240,cs),
(169,246,o),
(178,257,o),
(188,267,cs),
(194,272,o),
(202,277,o),
(205,283,cs),
(213,301,o),
(231,311,o),
(244,324,cs),
(248,328,o),
(254,330,o),
(259,324,cs),
(272,312,o),
(290,302,o),
(298,285,cs),
(306,270,o),
(318,271,o),
(331,257,cs),
(350,239,o),
(370,220,o),
(390,201,cs),
(397,195,o),
(404,190,o),
(414,186,cs),
(422,184,o),
(426,177,o),
(426,168,cs),
(426,147,ls),
(426,138,o),
(429,129,o),
(435,120,cs),
(437,117,o),
(426,99,o),
(426,95,cs),
(426,92,o),
(434,89,o),
(435,86,cs),
(436,82,o),
(424,79,o),
(430,74,cs),
(435,69,o),
(435,65,o),
(432,60,cs),
(421,42,o),
(426,21,o),
(438,4,cs),
(445,-8,o),
(461,15,o),
(461,21,cs),
(461,151,ls),
(461,167,o),
(456,182,o),
(444,193,cs),
(435,200,o),
(424,207,o),
(420,216,cs),
(416,226,o),
(390,245,o),
(385,251,c),
(371,248,o),
(377,267,o),
(365,267,cs),
(362,267,o),
(359,269,o),
(358,270,cs),
(347,290,o),
(330,304,o),
(308,315,cs),
(302,317,o),
(300,324,o),
(295,330,cs),
(293,332,o),
(289,334,o),
(286,336,cs),
(278,341,o),
(277,346,o),
(282,351,cs),
(292,360,o),
(363,425,o),
(375,433,cs),
(386,440,o),
(388,456,o),
(400,462,cs),
(415,468,o),
(417,479,o),
(426,488,cs),
(438,498,o),
(450,509,o),
(461,518,c),
(461,561,ls),
(461,570,o),
(461,579,o),
(454,587,cs),
(447,595,o),
(460,600,o),
(460,611,cs),
(460,634,o),
(461,659,o),
(461,683,c),
(459,688,o),
(450,700,o),
(443,694,c),
(441,690,o),
(436,689,o),
(435,686,cs),
(433,676,o),
(434,665,o),
(429,656,cs),
(426,650,o),
(426,644,o),
(426,637,cs),
(426,557,ls),
(426,526,o),
(419,522,o),
(409,504,cs),
(406,498,o),
(398,499,o),
(396,495,cs),
(386,478,o),
(366,468,o),
(355,452,cs),
(343,435,o),
(323,428,o),
(310,414,cs),
(296,399,o),
(279,386,o),
(264,373,cs),
(260,369,o),
(256,367,o),
(250,371,cs),
(224,394,o),
(202,419,o),
(171,435,cs),
(162,440,o),
(159,455,o),
(150,457,cs),
(140,461,o),
(141,471,o),
(134,473,cs),
(123,476,o),
(115,480,o),
(113,490,cs),
(110,500,o),
(99,497,o),
(93,502,cs),
(85,510,o),
(78,518,o),
(78,530,cs),
(78,573,o),
(79,615,o),
(79,656,cs),
(79,671,o),
(68,681,o),
(66,695,cs),
(66,696,o),
(61,698,o),
(59,697,cs),
(51,695,o),
(44,689,o),
(44,681,cs),
(44,674,l),
(44,644,ls),
(44,634,o),
(45,623,o),
(52,613,c),
(52,568,ls),
(52,555,o),
(44,540,o),
(44,526,cs),
(44,519,o),
(46,512,o),
(52,507,cs),
(76,487,o),
(104,469,o),
(119,442,cs),
(120,440,o),
(123,437,o),
(126,437,cs),
(138,435,o),
(208,372,o),
(235,348,c),
(212,320,o),
(179,300,o),
(153,274,cs),
(139,262,o),
(46,192,o),
(44,178,cs),
(41,162,o),
(40,141,o),
(40,121,cs),
(41,65,o),
(44,74,o),
(44,19,cs),
(44,9,o),
(55,1,o),
(64,1,cs)
);
},
{
closed = 1;
nodes = (
(280,138,o),
(283,145,o),
(284,151,cs),
(287,158,o),
(284,164,o),
(279,169,cs),
(270,180,o),
(237,196,o),
(226,185,c),
(221,177,o),
(215,168,o),
(213,158,cs),
(213,152,o),
(221,144,o),
(223,136,cs),
(227,117,o),
(252,117,o),
(276,134,cs)
);
},
{
closed = 1;
nodes = (
(251,146,o),
(244,146,o),
(243,151,cs),
(242,153,o),
(240,155,o),
(240,157,cs),
(240,160,o),
(242,162,o),
(243,164,c),
(246,167,o),
(256,163,o),
(258,160,cs),
(259,159,o),
(260,157,o),
(259,155,cs),
(259,153,o),
(258,151,o),
(257,150,cs)
);
},
{
closed = 1;
nodes = (
(277,528,o),
(285,551,o),
(285,560,cs),
(285,576,o),
(270,589,o),
(245,589,cs),
(232,591,o),
(224,585,o),
(216,575,cs),
(211,568,o),
(211,559,o),
(216,552,cs),
(226,542,o),
(239,528,o),
(253,528,cs)
);
},
{
closed = 1;
nodes = (
(246,550,o),
(242,553,o),
(240,557,cs),
(239,558,o),
(239,560,o),
(240,563,cs),
(242,565,o),
(244,567,o),
(247,566,cs),
(254,566,o),
(257,563,o),
(257,559,cs),
(257,557,o),
(256,550,o),
(250,550,cs)
);
}
);
width = 501;
}
);
unicode = 88;
},
{
glyphname = Y;
lastChange = "2023-11-05 14:43:55 +0000";
layers = (
{
anchors = (
{
name = bottom;
pos = (255,0);
},
{
name = top;
pos = (255,700);
},
{
name = topleft;
pos = (0,700);
}
);
layerId = m01;
shapes = (
{
closed = 1;
nodes = (
(164,1,ls),
(204,1,o),
(305,1,o),
(338,1,cs),
(418,1,ls),
(436,1,o),
(451,19,o),
(451,34,cs),
(451,35,o),
(452,70,o),
(444,102,c),
(444,109,o),
(445,116,o),
(447,123,cs),
(455,147,o),
(452,177,o),
(448,202,c),
(448,221,o),
(423,208,o),
(417,199,cs),
(415,197,o),
(417,191,o),
(417,187,cs),
(417,152,o),
(415,53,o),
(414,39,c),
(408,36,o),
(402,35,o),
(396,35,cs),
(388,35,o),
(328,36,o),
(318,35,c),
(305,35,o),
(293,45,o),
(280,45,cs),
(278,45,o),
(276,44,o),
(274,44,cs),
(268,43,o),
(255,62,o),
(259,68,cs),
(263,73,o),
(264,79,o),
(264,85,cs),
(264,90,o),
(263,95,o),
(263,100,cs),
(264,112,o),
(264,201,o),
(264,289,cs),
(264,304,o),
(265,315,o),
(281,323,cs),
(293,328,o),
(306,339,o),
(312,351,cs),
(319,366,o),
(386,433,o),
(410,455,cs),
(425,468,o),
(433,487,o),
(446,501,cs),
(449,504,o),
(450,511,o),
(450,516,cs),
(450,535,o),
(450,652,o),
(450,689,cs),
(450,707,o),
(417,700,o),
(417,680,cs),
(415,638,o),
(417,600,o),
(417,558,cs),
(417,551,o),
(418,544,o),
(424,538,cs),
(425,537,o),
(425,533,o),
(424,531,cs),
(416,509,o),
(408,505,o),
(391,488,cs),
(384,479,o),
(380,469,o),
(372,461,cs),
(337,424,o),
(300,388,o),
(264,352,cs),
(258,346,o),
(253,346,o),
(246,352,cs),
(189,406,o),
(139,467,o),
(75,515,cs),
(69,519,o),
(68,526,o),
(68,533,cs),
(68,659,ls),
(68,666,o),
(68,673,o),
(73,679,cs),
(74,680,o),
(74,684,o),
(72,685,c),
(67,691,o),
(55,702,o),
(50,697,cs),
(45,693,o),
(42,687,o),
(42,679,cs),
(42,665,o),
(42,548,o),
(40,537,cs),
(40,536,o),
(40,535,o),
(40,534,cs),
(40,525,o),
(43,504,o),
(47,500,cs),
(61,489,o),
(70,472,o),
(88,465,cs),
(94,463,o),
(99,456,o),
(102,450,cs),
(111,432,o),
(126,418,o),
(142,408,cs),
(157,399,o),
(168,387,o),
(178,374,cs),
(181,371,o),
(182,366,o),
(185,365,cs),
(204,357,o),
(214,338,o),
(229,326,cs),
(240,318,o),
(241,305,o),
(237,296,c),
(229,245,l),
(229,238,o),
(231,231,o),
(237,225,c),
(238,223,o),
(238,218,o),
(237,217,cs),
(231,211,o),
(229,204,o),
(229,196,cs),
(229,174,o),
(230,60,o),
(229,46,cs),
(229,40,o),
(228,35,o),
(220,35,cs),
(88,35,ls),
(79,35,o),
(76,38,o),
(76,48,cs),
(76,110,o),
(76,147,o),
(77,183,cs),
(77,211,o),
(51,213,o),
(51,200,c),
(51,75,o),
(50,71,o),
(43,63,cs),
(41,61,o),
(41,53,o),
(43,51,cs),
(50,41,o),
(51,31,o),
(51,19,cs),
(52,9,o),
(61,1,o),
(71,1,cs)
);
},
{
closed = 1;
nodes = (
(282,526,o),
(285,533,o),
(286,539,cs),
(289,546,o),
(286,552,o),
(281,557,cs),
(272,568,o),
(239,584,o),
(228,573,c),
(223,565,o),
(217,556,o),
(215,546,cs),
(215,540,o),
(223,532,o),
(225,524,cs),
(229,505,o),
(254,505,o),
(278,522,cs)
);
},
{
closed = 1;
nodes = (
(253,534,o),
(246,534,o),
(245,539,cs),
(244,541,o),
(242,543,o),
(242,545,cs),
(242,548,o),
(244,550,o),
(245,552,c),
(248,555,o),
(258,551,o),
(260,548,cs),
(261,547,o),
(262,545,o),
(261,543,cs),
(261,541,o),
(260,539,o),
(259,538,cs)
);
}
);
width = 492;
}
);
unicode = 89;
},
{
glyphname = Yhook;
lastChange = "2023-11-11 14:46:24 +0000";
layers = (
{
layerId = m01;
shapes = (
{
ref = Y;
},
{
closed = 1;
nodes = (
(408,698,o),
(416,671,o),
(462,669,cs),
(469,669,o),
(488,670,o),
(495,668,cs),
(508,665,o),
(501,673,o),
(540,668,cs),
(547,667,o),
(553,674,o),
(561,670,c),
(578,680,o),
(575,687,o),
(561,694,c),
(545,704,o),
(534,707,o),
(516,700,cs),
(511,698,o),
(484,699,o),
(477,699,cs),
(446,700,o),
(450,700,o),
(445,700,cs)
);
}
);
width = 543;
}
);
unicode = 435;
},
{
glyphname = Ystroke;
lastChange = "2023-11-11 14:41:05 +0000";
layers = (
{
anchors = (
{
name = bottom;
pos = (332,0);
},
{
name = top;
pos = (332,700);
},
{
name = topleft;
pos = (77,700);
}
);
layerId = m01;
shapes = (
{
closed = 1;
nodes = (
(241,1,ls),
(281,1,o),
(382,1,o),
(415,1,cs),
(495,1,ls),
(513,1,o),
(528,19,o),
(528,34,cs),
(528,35,o),
(529,70,o),
(521,102,c),
(521,109,o),
(522,116,o),
(524,123,cs),
(532,147,o),
(529,177,o),
(525,202,c),
(525,221,o),
(500,208,o),
(494,199,cs),
(492,197,o),
(494,191,o),
(494,187,cs),
(494,152,o),
(492,53,o),
(491,39,c),
(485,36,o),
(479,35,o),
(473,35,cs),
(465,35,o),
(405,36,o),
(395,35,c),
(382,35,o),
(370,45,o),
(357,45,cs),
(355,45,o),
(353,44,o),
(351,44,cs),
(345,43,o),
(332,62,o),
(336,68,cs),
(340,73,o),
(341,79,o),
(341,85,cs),
(341,90,o),
(340,95,o),
(340,100,cs),
(341,112,o),
(341,201,o),
(341,289,cs),
(341,304,o),
(342,315,o),
(358,323,cs),
(370,328,o),
(383,339,o),
(389,351,cs),
(396,366,o),
(463,433,o),
(487,455,cs),
(502,468,o),
(510,487,o),
(523,501,cs),
(526,504,o),
(527,511,o),
(527,516,cs),
(527,535,o),
(527,652,o),
(527,689,cs),
(527,707,o),
(494,700,o),
(494,680,cs),
(492,638,o),
(494,600,o),
(494,558,cs),
(494,551,o),
(495,544,o),
(501,538,cs),
(502,537,o),
(502,533,o),
(501,531,cs),
(493,509,o),
(485,505,o),
(468,488,cs),
(461,479,o),
(377,388,o),
(341,352,cs),
(335,346,o),
(330,346,o),
(323,352,cs),
(266,406,o),
(216,467,o),
(152,515,cs),
(146,519,o),
(145,526,o),
(145,533,cs),
(145,659,ls),
(145,666,o),
(145,673,o),
(150,679,cs),
(151,680,o),
(151,684,o),
(149,685,c),
(144,691,o),
(132,702,o),
(127,697,cs),
(122,693,o),
(119,687,o),
(119,679,cs),
(119,665,o),
(119,548,o),
(117,537,cs),
(117,536,o),
(117,535,o),
(117,534,cs),
(117,525,o),
(120,504,o),
(124,500,cs),
(138,489,o),
(147,472,o),
(165,465,cs),
(171,463,o),
(176,456,o),
(179,450,cs),
(188,432,o),
(203,418,o),
(219,408,cs),
(234,399,o),
(245,387,o),
(255,374,cs),
(258,371,o),
(259,366,o),
(262,365,cs),
(281,357,o),
(291,338,o),
(306,326,cs),
(317,318,o),
(318,305,o),
(314,296,c),
(306,245,l),
(306,238,o),
(308,231,o),
(314,225,c),
(315,223,o),
(315,218,o),
(314,217,cs),
(308,211,o),
(306,204,o),
(306,196,cs),
(306,174,o),
(307,60,o),
(306,46,cs),
(306,40,o),
(305,35,o),
(297,35,cs),
(165,35,ls),
(156,35,o),
(153,38,o),
(153,48,cs),
(153,110,o),
(153,147,o),
(154,183,cs),
(154,211,o),
(128,213,o),
(128,200,c),
(128,75,o),
(127,71,o),
(120,63,cs),
(118,61,o),
(118,53,o),
(120,51,cs),
(127,41,o),
(128,31,o),
(128,19,cs),
(129,9,o),
(138,1,o),
(148,1,cs)
);
},
{
closed = 1;
nodes = (
(400,557,o),
(422,558,o),
(444,557,cs),
(490,557,o),
(599,553,o),
(637,568,c),
(634,574,l),
(615,587,o),
(584,590,o),
(541,589,c),
(529,585,o),
(516,588,o),
(502,588,cs),
(494,588,o),
(485,588,o),
(477,588,cs),
(440,588,o),
(227,588,o),
(188,589,cs),
(172,589,o),
(157,589,o),
(141,590,cs),
(123,590,o),
(106,590,o),
(91,590,cs),
(83,590,o),
(76,590,o),
(68,590,c),
(41,590,o),
(27,584,o),
(7,583,cs),
(-1,582,o),
(-2,570,o),
(6,569,cs),
(26,564,o),
(48,558,o),
(71,558,cs),
(80,558,o),
(90,559,o),
(99,561,cs),
(129,567,o),
(190,564,o),
(219,564,cs),
(241,563,o),
(271,564,o),
(294,564,cs),
(302,564,o),
(310,564,o),
(315,563,cs),
(335,558,o),
(357,557,o),
(378,557,cs)
);
}
);
width = 637;
}
);
unicode = 590;
},
{
glyphname = Z;
lastChange = "2023-11-05 14:43:59 +0000";
layers = (
{
anchors = (
{
name = bottom;
pos = (247,0);
},
{
name = center;
pos = (250,351);
},
{
name = top;
pos = (245,698);
}
);
layerId = m01;
shapes = (
{
closed = 1;
nodes = (
(430,3,l),
(442,3,o),
(451,11,o),
(451,22,cs),
(451,25,l),
(451,339,ls),
(451,342,o),
(451,344,o),
(450,347,cs),
(449,349,o),
(446,350,o),
(443,351,cs),
(433,352,o),
(422,349,o),
(419,340,cs),
(411,320,o),
(394,304,o),
(391,283,cs),
(391,280,o),
(388,276,o),
(385,273,cs),
(375,266,o),
(372,255,o),
(366,245,cs),
(347,211,o),
(253,56,o),
(240,45,c),
(235,34,o),
(232,33,o),
(223,33,cs),
(120,33,ls),
(102,33,o),
(102,34,o),
(108,50,cs),
(114,67,o),
(140,89,o),
(143,108,cs),
(146,122,o),
(169,169,o),
(179,178,cs),
(185,185,o),
(188,194,o),
(191,202,cs),
(192,206,o),
(192,211,o),
(197,215,cs),
(207,222,o),
(222,265,o),
(225,277,cs),
(228,289,o),
(330,472,o),
(341,481,cs),
(354,492,o),
(350,507,o),
(360,517,cs),
(370,529,o),
(386,576,o),
(398,585,cs),
(407,593,o),
(405,606,o),
(411,616,cs),
(421,631,o),
(429,649,o),
(439,665,cs),
(443,672,o),
(455,680,o),
(450,686,cs),
(445,692,o),
(434,695,o),
(425,698,cs),
(418,700,o),
(412,698,o),
(405,698,cs),
(77,698,ls),
(59,698,o),
(51,692,o),
(51,676,cs),
(51,574,ls),
(51,565,o),
(48,533,o),
(54,520,c),
(48,509,o),
(51,467,o),
(51,459,cs),
(51,364,ls),
(51,359,o),
(49,353,o),
(51,349,cs),
(52,346,o),
(60,343,o),
(62,344,cs),
(72,351,o),
(81,358,o),
(86,369,cs),
(97,391,o),
(115,412,o),
(121,437,cs),
(125,453,o),
(152,478,o),
(154,493,cs),
(155,500,o),
(158,507,o),
(163,513,cs),
(182,533,o),
(229,622,o),
(243,646,cs),
(246,651,o),
(253,654,o),
(258,659,c),
(271,659,o),
(281,667,o),
(292,667,cs),
(296,667,o),
(329,667,o),
(338,667,cs),
(347,667,o),
(345,666,o),
(374,659,c),
(376,660,o),
(378,666,o),
(381,667,cs),
(389,670,o),
(406,664,o),
(401,654,cs),
(374,607,o),
(282,441,o),
(276,428,cs),
(267,409,o),
(258,389,o),
(242,374,cs),
(238,370,o),
(234,363,o),
(234,359,cs),
(234,348,o),
(206,291,o),
(187,273,c),
(183,239,o),
(79,72,o),
(59,50,cs),
(50,41,o),
(46,29,o),
(41,17,cs),
(38,11,o),
(43,3,o),
(50,3,cs)
);
},
{
closed = 1;
nodes = (
(281,31,o),
(280,35,o),
(285,46,cs),
(300,75,o),
(419,272,o),
(422,272,c),
(422,49,o),
(423,40,o),
(419,33,c),
(360,28,o),
(349,34,o),
(295,32,cs)
);
},
{
closed = 1;
nodes = (
(79,413,o),
(77,427,o),
(77,441,cs),
(78,449,o),
(74,458,o),
(82,467,c),
(74,493,o),
(77,499,o),
(83,521,c),
(77,553,o),
(78,557,o),
(76,561,cs),
(74,567,o),
(86,570,o),
(83,577,c),
(74,596,o),
(79,625,o),
(79,647,cs),
(79,651,o),
(80,658,o),
(83,660,cs),
(88,665,o),
(94,668,o),
(103,669,cs),
(107,670,o),
(111,658,o),
(119,666,cs),
(125,672,o),
(154,656,o),
(158,660,cs),
(176,672,o),
(210,672,o),
(219,665,c),
(215,657,o),
(211,651,o),
(206,646,cs),
(195,630,o),
(184,614,o),
(179,593,cs),
(178,589,o),
(175,586,o),
(171,581,cs),
(147,552,o),
(138,518,o),
(115,489,cs),
(108,483,o),
(111,475,o),
(107,468,cs),
(100,453,o),
(91,437,o),
(83,422,cs)
);
}
);
width = 491;
}
);
unicode = 90;
},
{
glyphname = F.alt;
lastChange = "2023-11-11 06:37:08 +0000";
layers = (
{
anchors = (
{
name = bottom;
pos = (153,7);
},
{
name = top;
pos = (253,700);
}
);
layerId = m01;
shapes = (
{
closed = 1;
nodes = (
(194,5,ls),
(201,5,o),
(207,8,o),
(213,10,cs),
(219,12,o),
(228,5,o),
(235,5,cs),
(245,5,o),
(330,4,o),
(331,6,c),
(336,10,o),
(342,15,o),
(344,21,cs),
(346,28,o),
(338,28,o),
(334,31,cs),
(325,36,o),
(317,39,o),
(307,39,cs),
(285,39,o),
(199,39,o),
(177,39,cs),
(174,39,o),
(169,40,o),
(169,72,cs),
(169,377,l),
(290,377,l),
(304,384,o),
(295,386,o),
(316,389,cs),
(320,389,o),
(320,394,o),
(319,396,cs),
(309,409,o),
(307,410,o),
(291,410,c),
(168,410,l),
(168,610,o),
(169,628,o),
(169,647,cs),
(169,652,o),
(171,655,o),
(175,656,c),
(189,655,o),
(199,668,o),
(221,664,c),
(224,658,o),
(228,653,o),
(235,647,cs),
(258,630,o),
(282,614,o),
(296,588,cs),
(301,578,o),
(320,575,o),
(329,569,cs),
(334,566,o),
(332,558,o),
(342,555,cs),
(358,550,o),
(371,540,o),
(379,524,cs),
(389,505,o),
(415,494,o),
(427,491,c),
(436,472,o),
(458,497,o),
(457,514,cs),
(457,521,o),
(458,562,o),
(465,574,cs),
(470,581,o),
(461,593,o),
(459,601,cs),
(458,605,o),
(466,608,o),
(462,615,cs),
(455,628,o),
(455,637,o),
(462,650,cs),
(469,660,o),
(467,670,o),
(462,681,cs),
(454,698,o),
(454,698,o),
(439,698,cs),
(219,702,o),
(183,698,o),
(181,696,cs),
(173,688,o),
(163,690,o),
(153,689,cs),
(144,688,o),
(135,680,o),
(135,670,c),
(136,555,o),
(134,545,o),
(128,535,c),
(139,522,o),
(135,512,o),
(135,495,cs),
(135,50,ls),
(135,41,o),
(133,38,o),
(122,38,cs),
(28,38,ls),
(23,38,o),
(17,38,o),
(12,37,cs),
(7,36,o),
(-2,25,o),
(0,22,cs),
(3,16,o),
(7,10,o),
(12,6,cs),
(15,4,o),
(20,5,o),
(25,5,cs)
);
},
{
closed = 1;
nodes = (
(73,361,o),
(86,375,o),
(96,385,cs),
(101,392,o),
(101,401,o),
(96,408,cs),
(88,418,o),
(80,424,o),
(67,422,cs),
(42,422,o),
(27,409,o),
(27,393,cs),
(27,384,o),
(35,361,o),
(59,361,cs)
);
},
{
closed = 1;
nodes = (
(57,385,o),
(56,391,o),
(56,393,cs),
(56,397,o),
(58,399,o),
(65,399,cs),
(68,400,o),
(70,399,o),
(71,397,cs),
(72,394,o),
(72,392,o),
(71,391,cs),
(70,387,o),
(66,385,o),
(62,385,cs)
);
},
{
closed = 1;
nodes = (
(402,533,o),
(286,644,o),
(256,668,c),
(429,668,l),
(434,659,o),
(432,584,o),
(428,525,c)
);
}
);
width = 477;
}
);
},
{
glyphname = a;
kernLeft = a;
lastChange = "2023-11-05 14:44:05 +0000";
layers = (
{
anchors = (
{
name = bottom;
pos = (246,5);
},
{
name = ogonek;
pos = (494,47);
},
{
name = top;
pos = (276,450);
}
);
layerId = m01;
shapes = (
{
closed = 1;
nodes = (
(318,-4,o),
(332,-2,o),
(345,-2,cs),
(395,-2,o),
(372,6,o),
(423,4,cs),
(444,3,o),
(448,21,o),
(454,44,c),
(449,56,o),
(448,67,o),
(448,80,cs),
(448,89,o),
(448,98,o),
(449,108,cs),
(458,248,o),
(449,221,o),
(449,404,cs),
(449,420,o),
(447,439,o),
(440,444,c),
(435,454,o),
(407,458,o),
(370,452,cs),
(357,449,o),
(120,452,o),
(101,452,cs),
(88,452,o),
(85,443,o),
(73,440,cs),
(69,439,o),
(68,427,o),
(73,426,c),
(85,423,o),
(97,415,o),
(110,415,cs),
(115,415,o),
(121,416,o),
(126,420,cs),
(136,424,o),
(154,425,o),
(164,425,cs),
(189,424,o),
(208,422,o),
(232,425,cs),
(242,425,o),
(254,427,o),
(261,424,cs),
(273,417,o),
(286,416,o),
(298,416,cs),
(309,416,o),
(382,421,o),
(390,421,cs),
(415,421,o),
(422,387,o),
(422,370,cs),
(422,342,o),
(391,349,o),
(373,329,c),
(346,320,o),
(330,310,o),
(318,299,cs),
(294,278,o),
(271,258,o),
(247,238,cs),
(222,216,o),
(186,202,o),
(162,173,cs),
(143,149,o),
(98,136,o),
(72,104,c),
(56,90,o),
(43,77,o),
(29,67,cs),
(11,54,o),
(0,37,o),
(0,24,cs),
(0,10,o),
(13,-1,o),
(46,-1,cs),
(50,-1,o),
(54,-1,o),
(59,-1,cs),
(78,1,o),
(126,7,o),
(143,-2,c),
(181,16,o),
(266,-4,o),
(305,-4,cs)
);
},
{
closed = 1;
nodes = (
(126,36,o),
(75,31,o),
(62,31,cs),
(38,31,o),
(81,77,o),
(88,83,cs),
(106,99,o),
(178,141,o),
(206,169,cs),
(215,178,o),
(226,190,o),
(236,194,cs),
(272,207,o),
(296,242,o),
(327,266,c),
(342,298,o),
(404,297,o),
(422,327,c),
(417,271,o),
(414,128,o),
(417,72,cs),
(418,32,o),
(381,33,o),
(365,33,cs),
(341,32,o),
(316,32,o),
(292,32,cs),
(268,32,o),
(167,40,o),
(142,26,c)
);
},
{
closed = 1;
nodes = (
(300,99,o),
(313,113,o),
(323,123,cs),
(328,130,o),
(328,139,o),
(323,146,cs),
(315,156,o),
(307,162,o),
(294,160,cs),
(269,160,o),
(254,147,o),
(254,131,cs),
(254,122,o),
(262,99,o),
(286,99,cs)
);
},
{
closed = 1;
nodes = (
(283,122,o),
(282,129,o),
(282,131,cs),
(282,135,o),
(285,138,o),
(292,138,cs),
(295,139,o),
(297,137,o),
(299,135,cs),
(300,132,o),
(300,130,o),
(299,129,cs),
(297,125,o),
(293,122,o),
(289,122,cs)
);
}
);
width = 494;
}
);
unicode = 97;
},
{
glyphname = "alpha-latin";
lastChange = "2023-11-12 16:55:35 +0000";
layers = (
{
anchors = (
{
name = bottom;
pos = (230,0);
},
{
name = center;
pos = (233,232);
},
{
name = ogonek;
pos = (457,41);
},
{
name = top;
pos = (230,450);
},
{
name = topright;
pos = (329,742);
}
);
layerId = m01;
shapes = (
{
closed = 1;
nodes = (
(183,17,o),
(188,29,o),
(198,28,cs),
(213,27,o),
(290,27,o),
(298,30,cs),
(307,33,o),
(315,18,o),
(324,31,c),
(343,18,o),
(360,25,o),
(383,25,cs),
(392,25,o),
(401,30,o),
(410,36,cs),
(413,38,o),
(413,46,o),
(413,51,cs),
(413,279,o),
(413,282,o),
(413,418,c),
(413,424,o),
(414,476,o),
(408,476,c),
(392,488,o),
(375,463,o),
(379,455,cs),
(387,439,o),
(379,427,o),
(377,427,cs),
(282,428,o),
(132,431,o),
(40,427,c),
(40,344,o),
(40,250,o),
(40,164,cs),
(40,121,o),
(40,120,o),
(40,78,cs),
(40,68,o),
(40,58,o),
(40,49,cs),
(41,37,o),
(49,28,o),
(61,28,cs),
(70,27,o),
(136,28,o),
(144,27,cs),
(154,27,o),
(165,28,o),
(172,24,cs)
);
},
{
closed = 1;
nodes = (
(240,53,o),
(230,51,o),
(221,58,cs),
(218,60,o),
(209,53,o),
(204,54,cs),
(198,56,o),
(193,62,o),
(187,55,cs),
(185,53,o),
(180,53,o),
(179,54,cs),
(172,60,o),
(99,57,o),
(76,58,cs),
(70,58,o),
(66,65,o),
(69,70,cs),
(75,77,o),
(76,84,o),
(76,93,cs),
(76,114,o),
(73,161,o),
(73,183,cs),
(73,192,o),
(72,199,o),
(67,206,cs),
(65,208,o),
(66,214,o),
(68,217,cs),
(73,224,o),
(75,231,o),
(75,238,cs),
(75,245,o),
(73,251,o),
(71,257,cs),
(66,267,o),
(65,274,o),
(73,282,cs),
(74,284,o),
(73,288,o),
(72,290,c),
(72,352,l),
(74,353,o),
(72,360,o),
(70,362,cs),
(62,371,o),
(65,380,o),
(70,393,c),
(84,395,o),
(117,397,o),
(132,397,cs),
(142,397,o),
(152,400,o),
(161,390,c),
(175,387,o),
(182,402,o),
(190,390,c),
(200,390,o),
(329,397,o),
(338,396,cs),
(352,394,o),
(377,392,o),
(381,392,c),
(381,293,o),
(388,320,o),
(379,214,cs),
(379,205,o),
(379,195,o),
(379,185,cs),
(379,137,ls),
(379,128,o),
(379,66,o),
(375,59,c),
(324,58,o),
(265,53,o),
(249,53,cs)
);
},
{
closed = 1;
nodes = (
(256,219,ls),
(267,230,o),
(250,233,o),
(250,248,cs),
(250,268,o),
(222,266,o),
(208,264,cs),
(199,262,o),
(190,247,o),
(190,236,cs),
(190,230,o),
(192,225,o),
(196,220,cs),
(205,208,o),
(228,191,o),
(242,205,cs)
);
},
{
closed = 1;
nodes = (
(225,221,o),
(219,226,o),
(217,229,cs),
(215,230,o),
(215,232,o),
(215,233,cs),
(215,236,o),
(217,240,o),
(220,241,cs),
(224,242,o),
(231,242,o),
(231,237,cs),
(231,232,o),
(236,232,o),
(233,229,cs),
(229,225,ls)
);
},
{
closed = 1;
nodes = (
(372,31,o),
(389,28,o),
(391,-6,c),
(398,-10,o),
(403,-16,o),
(408,-3,cs),
(411,6,o),
(412,19,o),
(412,53,c),
(379,66,l)
);
}
);
width = 453;
}
);
unicode = 593;
},
{
glyphname = astroke;
lastChange = "2023-11-03 10:39:56 +0000";
layers = (
{
layerId = m01;
shapes = (
{
closed = 1;
nodes = (
(163,-53,l),
(158,-44,o),
(163,-36,o),
(165,-27,cs),
(184,32,o),
(219,124,o),
(221,130,cs),
(224,138,o),
(227,144,o),
(235,147,c),
(236,148,o),
(237,156,o),
(236,159,cs),
(232,170,o),
(270,277,o),
(277,284,cs),
(285,293,o),
(291,300,o),
(287,313,c),
(295,318,o),
(298,324,o),
(301,333,cs),
(311,365,o),
(351,496,o),
(353,500,cs),
(355,507,o),
(355,511,o),
(352,518,cs),
(351,532,o),
(349,537,o),
(328,535,c),
(312,491,o),
(314,487,o),
(311,478,cs),
(291,416,ls),
(289,410,o),
(285,386,o),
(277,386,c),
(275,378,o),
(265,330,o),
(262,322,cs),
(181,121,o),
(174,98,o),
(165,93,cs),
(161,90,o),
(156,78,o),
(158,73,cs),
(161,60,o),
(147,-1,o),
(133,3,c),
(133,-11,o),
(128,-46,o),
(125,-59,c),
(119,-90,o),
(149,-73,o),
(150,-72,cs)
);
},
{
ref = a;
}
);
width = 524;
}
);
unicode = 11365;
},
{
glyphname = ae;
lastChange = "2023-11-05 14:52:43 +0000";
layers = (
{
anchors = (
{
name = bottom;
pos = (421,0);
},
{
name = top;
pos = (421,450);
}
);
layerId = m01;
shapes = (
{
closed = 1;
nodes = (
(41,-8,o),
(47,-7,o),
(53,-3,cs),
(63,0,o),
(72,1,o),
(83,1,cs),
(91,1,o),
(127,1,o),
(137,-3,c),
(166,9,o),
(197,1,o),
(229,1,cs),
(239,1,o),
(252,4,o),
(260,1,cs),
(277,-6,o),
(295,-8,o),
(312,-8,cs),
(326,-8,o),
(339,-7,o),
(352,-7,c),
(366,0,o),
(382,1,o),
(398,1,cs),
(559,6,o),
(348,1,o),
(647,1,cs),
(655,1,o),
(690,1,o),
(698,-7,c),
(704,-7,o),
(724,-9,o),
(732,-3,cs),
(744,2,o),
(751,1,o),
(760,-7,c),
(762,-8,o),
(769,-7,o),
(772,-3,cs),
(780,4,o),
(786,0,o),
(792,-3,c),
(819,2,o),
(848,29,o),
(804,29,cs),
(575,29,ls),
(566,29,o),
(556,27,o),
(549,30,cs),
(526,41,o),
(521,41,o),
(496,33,c),
(475,47,o),
(478,28,o),
(462,28,cs),
(449,28,o),
(448,66,o),
(448,87,cs),
(448,121,o),
(454,178,o),
(454,206,cs),
(454,268,o),
(455,284,o),
(455,299,cs),
(455,311,o),
(448,324,o),
(448,336,cs),
(448,338,o),
(448,340,o),
(449,344,cs),
(454,359,o),
(448,370,o),
(448,387,cs),
(448,393,o),
(448,400,o),
(447,406,c),
(469,391,o),
(523,343,o),
(544,326,cs),
(576,300,o),
(617,280,o),
(639,249,c),
(670,242,o),
(678,219,o),
(697,204,cs),
(705,198,o),
(712,189,o),
(722,187,cs),
(746,181,o),
(777,150,o),
(798,137,cs),
(806,132,o),
(815,134,o),
(824,139,cs),
(837,148,o),
(827,164,o),
(841,173,c),
(833,179,o),
(833,208,o),
(833,214,cs),
(833,327,o),
(832,301,o),
(832,414,cs),
(832,425,o),
(830,451,o),
(806,451,cs),
(420,456,o),
(226,454,o),
(113,454,cs),
(98,454,o),
(90,447,o),
(77,443,cs),
(73,442,o),
(73,428,o),
(77,426,cs),
(89,422,o),
(101,414,o),
(115,414,cs),
(120,414,o),
(125,415,o),
(131,419,cs),
(153,429,o),
(200,421,o),
(226,424,cs),
(236,424,o),
(248,426,o),
(255,424,cs),
(276,413,o),
(324,416,o),
(342,414,c),
(354,422,o),
(365,423,o),
(376,423,cs),
(419,422,o),
(406,423,o),
(410,386,cs),
(411,378,o),
(409,374,o),
(410,369,c),
(397,363,o),
(385,350,o),
(371,348,c),
(362,329,o),
(347,320,o),
(334,310,cs),
(310,291,o),
(287,273,o),
(264,254,cs),
(239,235,o),
(212,222,o),
(189,195,cs),
(169,173,o),
(92,121,o),
(66,91,c),
(50,78,o),
(39,65,o),
(26,54,cs),
(-22,12,o),
(6,-8,o),
(36,-8,cs)
);
},
{
closed = 1;
nodes = (
(116,36,o),
(101,29,o),
(79,32,cs),
(69,32,o),
(61,31,o),
(53,31,c),
(56,35,o),
(60,38,o),
(63,44,cs),
(70,55,o),
(200,162,o),
(228,187,cs),
(237,196,o),
(248,207,o),
(258,210,cs),
(294,222,o),
(319,253,o),
(349,274,c),
(366,305,o),
(395,309,o),
(414,337,c),
(414,325,o),
(414,312,o),
(417,301,cs),
(423,275,o),
(417,261,o),
(417,235,cs),
(417,159,o),
(417,78,o),
(417,60,cs),
(417,51,o),
(417,44,o),
(417,35,c),
(412,35,o),
(407,36,o),
(399,38,c),
(392,33,o),
(365,32,o),
(359,32,cs),
(259,32,o),
(273,30,o),
(169,33,cs),
(158,33,o),
(147,31,o),
(136,26,c)
);
},
{
closed = 1;
nodes = (
(596,114,o),
(609,128,o),
(619,138,cs),
(624,145,o),
(624,154,o),
(619,161,cs),
(611,171,o),
(603,177,o),
(590,175,cs),
(565,175,o),
(550,162,o),
(550,146,cs),
(550,137,o),
(558,114,o),
(582,114,cs)
);
},
{
closed = 1;
nodes = (
(579,137,o),
(578,144,o),
(578,146,cs),
(578,150,o),
(581,153,o),
(588,153,cs),
(591,154,o),
(593,152,o),
(595,150,cs),
(596,147,o),
(596,145,o),
(595,144,cs),
(593,140,o),
(589,137,o),
(585,137,cs)
);
},
{
closed = 1;
nodes = (
(789,174,o),
(774,194,o),
(753,200,cs),
(739,206,o),
(744,219,o),
(730,219,c),
(667,275,o),
(656,279,o),
(648,285,cs),
(635,289,o),
(633,304,o),
(617,307,c),
(597,335,o),
(567,355,o),
(533,370,cs),
(523,376,o),
(515,384,o),
(510,392,cs),
(503,403,o),
(494,410,o),
(482,421,c),
(493,421,ls),
(503,421,o),
(514,420,o),
(524,420,cs),
(562,421,o),
(571,432,o),
(610,421,c),
(674,421,ls),
(699,421,o),
(699,438,o),
(728,426,cs),
(733,425,o),
(739,421,o),
(745,421,cs),
(798,421,l),
(802,185,l)
);
}
);
width = 851;
}
);
unicode = 230;
},
{
glyphname = b;
lastChange = "2023-11-05 14:44:09 +0000";
layers = (
{
anchors = (
{
name = bottom;
pos = (235,17);
},
{
name = center;
pos = (230,250);
},
{
name = top;
pos = (237,452);
}
);
layerId = m01;
shapes = (
{
closed = 1;
nodes = (
(82,-4,o),
(92,-3,o),
(106,0,c),
(116,0,o),
(127,-5,o),
(138,3,cs),
(143,7,o),
(152,3,o),
(160,3,cs),
(409,-1,ls),
(417,-1,o),
(422,-2,o),
(430,-1,cs),
(438,-1,o),
(446,9,o),
(446,18,cs),
(446,64,o),
(447,100,o),
(447,146,cs),
(447,153,o),
(435,178,o),
(444,187,cs),
(450,194,o),
(441,219,o),
(441,225,cs),
(441,256,o),
(449,333,o),
(441,342,c),
(445,350,o),
(450,358,o),
(441,367,c),
(444,371,o),
(445,376,o),
(445,381,cs),
(445,396,o),
(438,415,o),
(438,431,c),
(440,440,o),
(430,449,o),
(422,450,c),
(94,451,l),
(76,453,o),
(70,484,o),
(71,654,c),
(71,660,o),
(69,700,o),
(64,700,cs),
(40,700,o),
(40,691,o),
(40,665,c),
(45,26,l),
(45,21,o),
(44,14,o),
(45,9,cs),
(45,6,o),
(48,-4,o),
(74,-4,cs)
);
},
{
closed = 1;
nodes = (
(269,187,o),
(284,200,o),
(284,216,cs),
(284,225,o),
(276,248,o),
(252,248,cs),
(238,248,o),
(225,234,o),
(215,224,cs),
(210,217,o),
(210,208,o),
(215,201,cs),
(223,191,o),
(231,185,o),
(244,187,cs)
);
},
{
closed = 1;
nodes = (
(243,208,o),
(241,210,o),
(239,212,cs),
(238,215,o),
(238,217,o),
(239,218,cs),
(241,222,o),
(245,225,o),
(249,225,cs),
(255,225,o),
(256,218,o),
(256,216,cs),
(256,212,o),
(253,209,o),
(246,209,cs)
);
},
{
closed = 1;
nodes = (
(129,36,ls),
(120,36,o),
(92,41,o),
(83,35,cs),
(78,31,o),
(80,261,o),
(80,379,cs),
(80,403,o),
(83,417,o),
(129,417,cs),
(146,417,o),
(138,416,o),
(155,416,cs),
(377,416,ls),
(385,416,o),
(394,417,o),
(403,416,c),
(406,415,o),
(409,412,o),
(409,407,cs),
(409,374,o),
(408,364,o),
(409,359,cs),
(411,348,o),
(424,329,o),
(417,320,cs),
(413,313,o),
(412,271,o),
(409,255,cs),
(408,246,o),
(417,174,o),
(417,43,cs),
(417,37,o),
(416,33,o),
(409,33,cs),
(399,33,o),
(388,32,o),
(378,32,cs)
);
}
);
width = 487;
}
);
unicode = 98;
},
{
glyphname = "beta-latin";
lastChange = "2023-11-12 16:52:56 +0000";
layers = (
{
layerId = m01;
shapes = (
{
ref = B;
},
{
closed = 1;
nodes = (
(26,-144,o),
(46,-160,o),
(42,-179,c),
(49,-183,o),
(53,-186,o),
(59,-180,cs),
(64,-175,o),
(61,-168,o),
(68,-150,c),
(68,-134,o),
(69,-84,o),
(66,-69,cs),
(65,-63,o),
(64,-53,o),
(67,-50,cs),
(71,-40,o),
(74,-33,o),
(71,-25,c),
(80,-15,o),
(75,-2,o),
(76,8,cs),
(77,19,o),
(71,25,o),
(70,35,c),
(40,11,l),
(42,-25,o),
(40,-30,o),
(41,-67,c),
(34,-77,o),
(32,-86,o),
(40,-97,c),
(35,-106,o),
(30,-116,o),
(40,-126,c)
);
},
{
closed = 1;
nodes = (
(28,-189,o),
(31,-190,o),
(54,-191,cs),
(60,-191,o),
(91,-191,o),
(104,-191,c),
(114,-190,o),
(114,-166,o),
(91,-166,c),
(89,-166,o),
(77,-165,o),
(73,-166,cs),
(1,-157,o),
(-10,-173,o),
(6,-192,c)
);
}
);
width = 441;
}
);
unicode = 42933;
},
{
glyphname = bhook;
lastChange = "2023-11-11 16:24:57 +0000";
layers = (
{
layerId = m01;
shapes = (
{
ref = b;
},
{
closed = 1;
nodes = (
(40,583,o),
(70,587,o),
(70,595,c),
(83,610,o),
(55,694,o),
(101,692,cs),
(108,692,o),
(127,693,o),
(134,691,cs),
(147,688,o),
(140,696,o),
(179,691,cs),
(186,690,o),
(192,697,o),
(200,693,c),
(217,703,o),
(214,710,o),
(200,717,c),
(184,727,o),
(173,730,o),
(155,723,cs),
(150,721,o),
(123,722,o),
(116,722,cs),
(85,723,o),
(89,723,o),
(84,723,cs),
(47,721,o),
(40,693,o),
(40,663,cs),
(40,650,o),
(46,634,o),
(40,625,cs),
(37,620,o),
(41,603,o),
(40,599,c)
);
}
);
width = 487;
}
);
unicode = 595;
},
{
glyphname = bilabialclick;
lastChange = "2023-11-11 14:41:57 +0000";
layers = (
{
anchors = (
{
name = bottom;
pos = (238,9);
},
{
name = center;
pos = (238,350);
},
{
name = ogonek;
pos = (487,58);
},
{
name = top;
pos = (248,700);
},
{
name = topleft;
pos = (38,701);
},
{
name = topright;
pos = (362,994);
}
);
layerId = m01;
shapes = (
{
closed = 1;
nodes = (
(414,-6,ls),
(422,-6,o),
(432,1,o),
(439,7,cs),
(442,9,o),
(442,17,o),
(442,22,cs),
(442,163,o),
(443,220,o),
(443,379,cs),
(443,389,o),
(444,400,o),
(450,409,c),
(452,411,o),
(443,420,o),
(445,423,c),
(447,429,o),
(451,434,o),
(451,442,cs),
(451,581,ls),
(451,587,o),
(450,592,o),
(446,597,cs),
(440,604,o),
(451,606,o),
(451,611,cs),
(451,646,ls),
(451,658,o),
(450,670,o),
(450,682,cs),
(450,688,o),
(442,695,o),
(436,698,cs),
(432,700,o),
(425,698,o),
(420,698,cs),
(78,698,ls),
(72,698,o),
(66,699,o),
(61,698,cs),
(55,698,o),
(45,686,o),
(45,679,cs),
(45,629,ls),
(45,619,o),
(46,609,o),
(45,600,c),
(34,592,o),
(45,586,o),
(45,578,cs),
(45,477,ls),
(45,472,o),
(38,465,o),
(40,463,cs),
(45,457,o),
(45,450,o),
(45,444,c),
(45,25,ls),
(45,12,o),
(54,3,o),
(66,3,c),
(160,3,o),
(171,4,o),
(179,0,cs),
(190,-7,o),
(195,3,o),
(205,3,cs),
(310,3,o),
(320,0,o),
(327,3,cs),
(337,6,o),
(343,-11,o),
(353,3,c),
(362,-3,o),
(372,-6,o),
(382,-6,cs)
);
},
{
closed = 1;
nodes = (
(274,305,o),
(284,334,o),
(284,345,cs),
(284,366,o),
(265,382,o),
(233,382,cs),
(217,384,o),
(206,377,o),
(196,364,cs),
(190,355,o),
(190,344,o),
(196,335,cs),
(209,322,o),
(225,305,o),
(244,305,cs)
);
},
{
closed = 1;
nodes = (
(179,36,o),
(170,37,o),
(161,37,cs),
(78,37,ls),
(73,37,o),
(68,45,o),
(72,49,cs),
(78,57,o),
(79,64,o),
(79,73,cs),
(79,120,ls),
(79,128,o),
(78,136,o),
(72,143,c),
(71,145,o),
(72,151,o),
(74,154,cs),
(83,167,o),
(83,180,o),
(76,194,cs),
(72,205,o),
(71,212,o),
(78,220,c),
(80,221,o),
(79,226,o),
(78,228,c),
(72,234,o),
(71,240,o),
(71,247,cs),
(71,269,o),
(70,279,o),
(78,287,c),
(79,289,o),
(78,296,o),
(76,298,cs),
(70,304,o),
(72,311,o),
(70,318,cs),
(68,328,o),
(84,337,o),
(71,347,c),
(71,647,l),
(72,654,o),
(82,663,o),
(89,663,cs),
(401,663,ls),
(417,663,o),
(417,663,o),
(417,646,cs),
(417,490,ls),
(417,481,o),
(417,474,o),
(412,466,cs),
(406,458,o),
(407,447,o),
(412,438,cs),
(415,432,o),
(416,429,o),
(412,424,cs),
(410,422,o),
(407,415,o),
(409,413,cs),
(415,405,o),
(419,399,o),
(412,390,cs),
(409,387,o),
(406,378,o),
(409,375,c),
(415,366,o),
(417,355,o),
(417,241,cs),
(417,233,o),
(415,225,o),
(409,219,cs),
(407,217,o),
(410,213,o),
(409,211,cs),
(406,202,o),
(421,194,o),
(409,186,c),
(409,51,l),
(409,44,o),
(408,37,o),
(404,30,c),
(389,30,o),
(374,29,o),
(358,29,cs),
(257,29,ls),
(248,29,o),
(238,27,o),
(229,34,cs),
(226,36,o),
(216,28,o),
(211,30,cs),
(205,32,o),
(200,38,o),
(194,30,c),
(192,29,o),
(187,28,o),
(186,29,cs)
);
}
);
width = 491;
}
);
unicode = 664;
},
{
glyphname = bstroke;
lastChange = "2023-11-11 15:19:03 +0000";
layers = (
{
layerId = m01;
shapes = (
{
ref = b;
},
{
closed = 1;
nodes = (
(-65,620,o),
(-51,593,o),
(37,591,cs),
(50,591,o),
(85,592,o),
(98,590,cs),
(124,587,o),
(110,595,o),
(183,590,cs),
(196,589,o),
(208,596,o),
(222,592,c),
(255,602,o),
(249,609,o),
(222,616,c),
(192,626,o),
(172,629,o),
(138,622,cs),
(129,620,o),
(77,621,o),
(64,621,cs),
(6,622,o),
(14,622,o),
(5,622,cs)
);
}
);
width = 487;
}
);
unicode = 384;
},
{
glyphname = c;
lastChange = "2023-11-05 14:44:35 +0000";
layers = (
{
anchors = (
{
name = bottom;
pos = (225,7);
},
{
name = top;
pos = (222,450);
}
);
layerId = m01;
shapes = (
{
closed = 1;
nodes = (
(327,0,o),
(341,2,o),
(344,5,cs),
(361,22,o),
(398,-6,o),
(398,17,cs),
(398,21,o),
(397,25,o),
(395,32,cs),
(393,40,o),
(382,36,o),
(375,36,cs),
(299,36,o),
(283,33,o),
(207,33,cs),
(198,33,o),
(188,30,o),
(180,33,cs),
(162,42,o),
(146,47,o),
(131,34,c),
(117,44,o),
(108,45,o),
(95,34,cs),
(85,26,o),
(73,47,o),
(73,54,cs),
(73,75,o),
(74,84,o),
(80,92,cs),
(87,101,o),
(76,111,o),
(74,120,c),
(74,134,o),
(85,142,o),
(80,153,cs),
(76,161,o),
(69,176,o),
(77,186,cs),
(84,195,o),
(72,210,o),
(72,220,cs),
(72,254,o),
(73,278,o),
(73,313,cs),
(73,318,o),
(74,324,o),
(77,329,cs),
(81,334,o),
(77,336,o),
(76,340,cs),
(69,365,o),
(74,383,o),
(74,409,c),
(81,413,o),
(88,413,o),
(96,413,cs),
(160,413,ls),
(194,413,o),
(217,435,o),
(242,413,c),
(265,413,ls),
(300,413,o),
(290,438,o),
(319,418,cs),
(324,415,o),
(330,413,o),
(336,413,cs),
(378,413,ls),
(386,413,o),
(396,422,o),
(398,429,cs),
(400,437,o),
(388,449,o),
(378,449,cs),
(66,449,ls),
(52,449,o),
(51,444,o),
(42,436,c),
(41,436,o),
(39,423,o),
(40,422,cs),
(46,413,o),
(46,402,o),
(46,393,cs),
(46,-7,o),
(45,32,o),
(46,23,cs),
(46,16,o),
(57,5,o),
(63,5,cs),
(71,4,o),
(78,5,o),
(86,5,c),
(273,5,o),
(316,9,o),
(325,2,cs)
);
},
{
closed = 1;
nodes = (
(265,202,o),
(268,219,o),
(268,229,cs),
(268,248,o),
(261,263,o),
(248,269,cs),
(238,275,o),
(218,257,o),
(213,248,cs),
(202,235,o),
(207,221,o),
(209,210,cs),
(212,200,o),
(249,201,o),
(257,202,cs)
);
},
{
closed = 1;
nodes = (
(241,226,o),
(230,225,o),
(229,228,cs),
(229,232,o),
(228,235,o),
(231,238,cs),
(232,241,o),
(238,247,o),
(241,245,cs),
(244,243,o),
(245,238,o),
(245,234,cs),
(245,231,o),
(245,226,o),
(242,226,cs)
);
}
);
width = 408;
}
);
unicode = 99;
},
